<svg xmlns="http://www.w3.org/2000/svg" xml:space="preserve" viewBox="0 0 400 600">
  <path fill="#ae2012" d="m429.7-60.7-.2-.2c-.7-.6-1.4-1.1-2.2-1.4-.1 0-.2-.1-.3-.2h-.2c-.9-.3-1.8-.5-2.7-.5h-.6c-.3 0-.6 0-.9.1L83.2 5.1c-3.2.6-5.6 3.1-6.3 6.3L9 350.7c0 .3-.1.6-.1.9v.6c0 .9.2 1.8.5 2.7v.2c0 .1.1.2.2.3.3.8.8 1.6 1.4 2.2l.2.2.1.1 226.3 226.3c.1.1.2.1.3.2.4.4.8.7 1.3 1l.6.3c.4.2.8.4 1.3.5l.1.1c.2.1.4 0 .6.1.4.1.8.1 1.2.2.3 0 .6 0 .9-.1.3 0 .6 0 .9-.1l339.4-67.9.9-.3c.3-.1.6-.2.8-.3 1.7-.8 3.1-2.2 3.9-3.9.1-.3.2-.5.3-.8l.3-.9 67.9-339.4c0-.6.1-1.2.1-1.7 0-.4-.1-.8-.2-1.2 0-.2 0-.4-.1-.7l-.1-.1c-.1-.4-.3-.8-.5-1.2l-.3-.6c-.2-.3-.5-.7-.7-1-.2-.2-.3-.4-.5-.7L429.7-60.7z"/>
</svg>
