<?xml version="1.0" encoding="UTF-8" standalone="no"?>
<svg
   xml:space="preserve"
   viewBox="0 0 400 700"
   version="1.1"
   id="svg1"
   sodipodi:docname="bgShape.svg"
   inkscape:version="1.4 (86a8ad7, 2024-10-11)"
   width="400"
   height="700"
   xmlns:inkscape="http://www.inkscape.org/namespaces/inkscape"
   xmlns:sodipodi="http://sodipodi.sourceforge.net/DTD/sodipodi-0.dtd"
   xmlns="http://www.w3.org/2000/svg"
   xmlns:svg="http://www.w3.org/2000/svg"><defs
   id="defs1" /><sodipodi:namedview
   id="namedview1"
   pagecolor="#ffffff"
   bordercolor="#000000"
   borderopacity="0.25"
   inkscape:showpageshadow="2"
   inkscape:pageopacity="0.0"
   inkscape:pagecheckerboard="0"
   inkscape:deskcolor="#d1d1d1"
   inkscape:zoom="1.0076272"
   inkscape:cx="226.27417"
   inkscape:cy="314.10428"
   inkscape:window-width="1920"
   inkscape:window-height="1057"
   inkscape:window-x="-8"
   inkscape:window-y="-8"
   inkscape:window-maximized="1"
   inkscape:current-layer="svg1" />
  <path
   fill="#ae2012"
   d="m 429.7,-8.7 -0.2,-0.2 c -0.7,-0.6 -1.4,-1.1 -2.2,-1.4 -0.1,0 -0.2,-0.1 -0.3,-0.2 h -0.2 c -0.9,-0.3 -1.8,-0.5 -2.7,-0.5 h -0.6 c -0.3,0 -0.6,0 -0.9,0.1 l -339.4,68 c -3.2,0.6 -5.6,3.1 -6.3,6.3 L 9,402.7 c 0,0.3 -0.1,0.6 -0.1,0.9 v 0.6 c 0,0.9 0.2,1.8 0.5,2.7 v 0.2 c 0,0.1 0.1,0.2 0.2,0.3 0.3,0.8 0.8,1.6 1.4,2.2 l 0.2,0.2 0.1,0.1 226.3,226.3 c 0.1,0.1 0.2,0.1 0.3,0.2 0.4,0.4 0.8,0.7 1.3,1 l 0.6,0.3 c 0.4,0.2 0.8,0.4 1.3,0.5 l 0.1,0.1 c 0.2,0.1 0.4,0 0.6,0.1 0.4,0.1 0.8,0.1 1.2,0.2 0.3,0 0.6,0 0.9,-0.1 0.3,0 0.6,0 0.9,-0.1 l 339.4,-67.9 0.9,-0.3 c 0.3,-0.1 0.6,-0.2 0.8,-0.3 1.7,-0.8 3.1,-2.2 3.9,-3.9 0.1,-0.3 0.2,-0.5 0.3,-0.8 l 0.3,-0.9 67.9,-339.4 c 0,-0.6 0.1,-1.2 0.1,-1.7 0,-0.4 -0.1,-0.8 -0.2,-1.2 0,-0.2 0,-0.4 -0.1,-0.7 l -0.1,-0.1 c -0.1,-0.4 -0.3,-0.8 -0.5,-1.2 l -0.3,-0.6 c -0.2,-0.3 -0.5,-0.7 -0.7,-1 -0.2,-0.2 -0.3,-0.4 -0.5,-0.7 z"
   id="path1"
   style="fill:#000000" />
</svg>
