<svg xmlns="http://www.w3.org/2000/svg" viewBox="0 0 800 800">
  <path d="M318.7 22.741c-36.456 8.201-72.662 19.528-106.667 36.606.775 29.954 2.726 58.609 6.651 87.638-13.152 8.477-26.954 15.753-39.206 25.654-12.502 9.502-25.254 18.753-36.606 29.955-22.653-14.852-46.482-28.904-71.236-41.281-26.579 28.53-51.308 59.384-71.636 93.89 15.227 24.753 31.255 47.782 48.458 69.81h.4v211.883c.4 0 .775 0 1.175.125l129.97 12.502c6.776.65 12.102 6.126 12.502 13.027l4.026 57.31 113.292 8.076 7.827-52.884c1.05-6.9 6.9-11.976 13.802-11.976h137.121c6.901 0 12.752 5.075 13.802 11.976l7.827 52.884 113.292-8.077 4.026-57.309c.4-6.9 5.726-12.376 12.627-13.027l129.845-12.502c.4 0 .775-.125 1.175-.125V325.013h.525c17.203-21.878 33.08-45.057 48.308-69.81-20.178-34.506-45.057-65.386-71.636-93.89-24.604 12.377-48.583 26.429-71.236 41.281-11.327-11.202-23.954-20.453-36.456-29.955-12.377-9.901-26.18-17.202-39.331-25.654 3.9-29.03 5.85-57.684 6.65-87.638-33.854-17.053-70.06-28.38-106.666-36.606-14.577 24.604-27.88 51.183-39.456 77.087-13.802-2.225-27.73-3.125-41.531-3.25h-.65c-13.803.125-27.73 1.05-41.532 3.25-11.602-25.904-24.879-52.483-39.581-77.087ZM215.934 332.94c43.231 0 78.262 35.155 78.262 78.387s-35.03 78.262-78.262 78.262-78.263-35.03-78.263-78.262 35.031-78.387 78.263-78.387zm368.307 0c43.232 0 78.263 35.155 78.263 78.387s-35.031 78.262-78.263 78.262c-43.231 0-78.262-35.03-78.262-78.262s35.03-78.387 78.262-78.387zM223.36 364.07c-28.655 0-51.958 23.178-51.958 51.957 0 28.655 23.303 51.834 51.958 51.834 28.78 0 52.083-23.179 52.083-51.834 0-28.779-23.304-51.958-52.083-51.958zm353.33 0c-28.654 0-51.958 23.178-51.958 51.957 0 28.655 23.304 51.834 51.958 51.834 28.78 0 51.958-23.179 51.958-51.834 0-28.779-23.178-51.958-51.958-51.958zm-176.602 15.102c13.927 0 25.253 10.151 25.253 22.778v72.137c0 12.627-11.326 22.928-25.253 22.928-13.928 0-25.254-10.276-25.254-22.928V401.95c0-12.627 11.326-22.778 25.254-22.778zM48.733 564.876c0 12.627.125 26.304.125 29.03 0 123.469 156.524 182.703 350.955 183.353h.525c194.43-.65 350.83-59.91 350.83-183.354 0-2.725.125-16.402.25-29.03l-116.819 11.328-4.026 57.684c-.525 6.9-6 12.501-12.902 12.902L478.2 656.69c-6.776 0-12.752-4.95-13.802-11.852l-7.952-53.908H343.53l-7.952 53.908c-1.05 7.151-7.426 12.377-14.852 11.852L182.43 646.79c-6.902-.526-12.502-6.001-13.028-12.902l-3.9-57.684L48.683 565z"/>
</svg>
