<svg xmlns="http://www.w3.org/2000/svg">
  <defs>
  
    <symbol id="github"  viewBox="0 0 800 800">
      <path d="M399.999 0c220.919 0 399.998 183.6 399.998 410.118 0 181.16-114.48 334.84-273.319 389.119-20.28 4.04-27.48-8.76-27.48-19.68 0-13.52.48-57.68.48-112.56 0-38.24-12.8-63.2-27.16-75.92 89.08-10.16 182.68-44.839 182.68-202.358 0-44.8-15.52-81.36-41.2-110.08 4.16-10.36 17.88-52.08-3.92-108.56 0 0-33.52-11-109.88 42.04a375.839 375.839 0 0 0-100.2-13.8 374.999 374.999 0 0 0-100.12 13.8c-76.439-53.04-110.039-42.04-110.039-42.04-21.72 56.48-8 98.2-3.88 108.56-25.56 28.72-41.2 65.28-41.2 110.08 0 157.119 93.4 192.319 182.24 202.679-11.44 10.24-21.8 28.32-25.4 54.84-22.8 10.48-80.72 28.6-116.4-34.08 0 0-21.16-39.4-61.32-42.28 0 0-39-.52-2.72 24.92 0 0 26.2 12.6 44.4 60 0 0 23.48 73.2 134.76 48.4.2 34.28.56 66.6.56 76.36 0 10.84-7.36 23.519-27.32 19.719C114.599 745.077 0 591.317 0 410.118 0 183.6 179.12 0 399.999 0"/>
    </symbol>

    <symbol id="linkedin"  viewBox="0 0 800 800">
      <path d="M400 0A400 400 0 0 0 0 400a400 400 0 0 0 400 400 400 400 0 0 0 400-400A400 400 0 0 0 400 0zM247.46 160c29.08 0 47.46 19.56 48.04 45.68 0 24.9-18.96 45.06-48.6 45.06-28.52 0-47.48-20.16-46.88-45.06-.6-26.12 18.36-45.68 47.44-45.68zM536.2 279.86c59.3 0 103.8 39.14 103.8 124.52v172.04h-90.16V415.68c0-37.4-13.04-62.88-45.66-62.88-24.92 0-39.74 17.2-45.66 33.8-2.38 5.94-3.56 14.22-3.56 22.54v167.28h-90.14V378.9h-.02c0-36.2-1.2-67.04-2.4-92.54h78.3l4.16 39.74h1.8c11.84-18.4 41.5-46.24 89.54-46.24zm-333.8 6.46h90.14v290.04H202.4V286.32z"/>
    </symbol>

    <symbol id="handshake"  viewBox="0 0 800 800">
      <path d="m113.792 506.05-31.974-31.975C50.491 442.748 30.701 401.227 26.1 357.162a13.094 13.094 0 0 0-26.045 2.721c5.226 50.017 27.689 97.148 63.249 132.708l31.974 31.974a13.055 13.055 0 0 0 9.258 3.836 13.047 13.047 0 0 0 9.258-3.836 13.09 13.09 0 0 0-.002-18.514zm423.236-199.852a13.094 13.094 0 0 0-18.517.003l-55.67 55.692a13.094 13.094 0 0 0 9.26 22.349 13.057 13.057 0 0 0 9.26-3.838l55.67-55.692a13.09 13.09 0 0 0-.003-18.514zm39.198 54.45c-5.117-5.116-13.408-5.113-18.516.001l-90.816 90.836a13.092 13.092 0 1 0 18.517 18.513l90.816-90.836a13.088 13.088 0 0 0-.001-18.514z"/>
      <path d="M788.268 258.89c-7.19-.76-13.633 4.468-14.382 11.66-4.606 44.067-24.394 85.588-55.723 116.915l-159.47 159.47a19.875 19.875 0 0 1-14.15 5.86 19.875 19.875 0 0 1-14.148-5.862 19.875 19.875 0 0 1-5.86-14.149c0-5.345 2.08-10.37 5.86-14.149.025-.025.044-.05.066-.073L632.843 416.18a13.094 13.094 0 0 0-18.518-18.516L493.91 518.079a45.93 45.93 0 0 0-10.922-17.372l-60.964-60.962 31.404-31.404a13.094 13.094 0 0 0-18.518-18.516l-31.402 31.402-100.26-100.258c-.255-.255-.781-.782-.36-1.805.423-1.022 1.171-1.024 1.529-1.024l56.234-.089c26.905-.042 48.76-21.966 48.717-48.873-.043-26.874-21.928-48.716-48.794-48.716h-.047l-219.073.206a13.094 13.094 0 0 0 .01 26.186h.013l219.074-.206h.02c12.447 0 22.588 10.122 22.61 22.573.019 12.465-10.108 22.625-22.572 22.644l-56.233.089a27.763 27.763 0 0 0-25.688 17.208 27.765 27.765 0 0 0 6.044 30.324L464.47 519.224c7.782 7.782 7.799 20.423.064 28.23l-.068.07c-.013.012-.02.025-.033.035a19.88 19.88 0 0 1-14.115 5.83 19.875 19.875 0 0 1-14.148-5.86L281.463 392.821a13.094 13.094 0 0 0-18.516 18.516l184.184 184.185c7.803 7.802 7.803 20.499 0 28.3a19.876 19.876 0 0 1-14.149 5.862 19.874 19.874 0 0 1-14.149-5.861L242.267 447.256a13.094 13.094 0 0 0-18.516 18.516L363.82 605.84c7.797 7.804 7.795 20.496-.007 28.295-7.803 7.802-20.498 7.802-28.3 0L185.652 484.274a13.094 13.094 0 0 0-18.516 18.516l102.457 102.458c7.8 7.804 7.798 20.498-.002 28.298a19.88 19.88 0 0 1-14.15 5.86 19.884 19.884 0 0 1-14.152-5.86l-94.632-94.637a13.094 13.094 0 0 0-18.516 18.516l94.633 94.634c8.726 8.726 20.327 13.531 32.667 13.531s23.94-4.805 32.666-13.531a45.903 45.903 0 0 0 10.924-17.376l17.966 17.966c9.006 9.007 20.838 13.508 32.666 13.508 11.83 0 23.66-4.504 32.666-13.508a45.921 45.921 0 0 0 10.924-17.377l7.063 7.063c8.725 8.725 20.327 13.53 32.666 13.53 12.341 0 23.943-4.805 32.668-13.532 18.011-18.012 18.011-47.32 0-65.332l-.023-.024a46.004 46.004 0 0 0 17.36-10.94l.132-.138 17.816-17.816a46.007 46.007 0 0 0 10.943 17.364c8.725 8.727 20.327 13.532 32.666 13.532 12.34 0 23.943-4.805 32.668-13.532l159.47-159.469c35.56-35.558 58.02-82.689 63.247-132.707a13.092 13.092 0 0 0-11.661-14.382z"/>
      <path d="M702.886 285.962a13.094 13.094 0 0 0-16.93-7.499c-20.231 7.808-42.041 9.38-63.08 4.553a13.094 13.094 0 0 0-5.862 25.521 133.931 133.931 0 0 0 30.002 3.411c16.418 0 32.776-3.036 48.37-9.056a13.094 13.094 0 0 0 7.5-16.93zM658.528 134.05l-219.511-.207h-.044c-26.626 0-48.315 21.65-48.357 48.276l-.002.88c-.02 12.915 4.99 25.067 14.11 34.214 9.117 9.154 21.253 14.202 34.17 14.22l60.658.096-120.195 120.195a13.094 13.094 0 0 0 18.517 18.516L527.24 240.873c11.387 20.294 27.724 37.129 48.05 49.267a13.088 13.088 0 0 0 17.955-4.527 13.096 13.096 0 0 0-4.528-17.955c-20.902-12.481-36.596-31.118-45.386-53.89-.009-.025-.026-.044-.034-.069-1.908-4.855-6.625-8.302-12.16-8.31l-92.202-.145a22.03 22.03 0 0 1-15.667-6.519 22.022 22.022 0 0 1-6.467-15.681l.001-.88c.019-12.21 9.963-22.136 22.17-22.136h.021l219.511.207h.013a13.094 13.094 0 0 0 .01-26.185z"/>
    </symbol>

    <symbol id="SQL"  viewBox="0 0 800 800">
    <circle cx="400" cy="400" r="397.5" class="st0"/>
    <path fill="#ffffff" d="M400.137 492.022c-14.675 0-23.144 14.404-23.144 32.183-.146 18.07 8.607 31.906 23.008 31.906 14.536 0 23.007-13.694 23.007-32.322 0-17.363-8.187-31.767-22.87-31.767z"/>
    <path fill="#ffffff" d="M545.023 295.854c-.024-1.834-.606-3.646-1.865-5.078l-77.128-88.094c-.014-.025-.045-.033-.061-.055a7.821 7.821 0 0 0-1.555-1.31c-.168-.109-.345-.206-.521-.306a8.039 8.039 0 0 0-1.547-.648c-.139-.042-.276-.102-.421-.139a7.644 7.644 0 0 0-1.793-.224H270.589c-8.648 0-15.687 7.04-15.687 15.687v368.626c0 8.651 7.04 15.687 15.686 15.687h258.823c8.647 0 15.687-7.036 15.687-15.687v-287.58c0-.295-.047-.583-.077-.879zM307.03 573.05c-10.874 0-21.599-2.827-26.96-5.796l4.373-17.78c5.783 2.964 14.681 5.929 23.851 5.929 9.886 0 15.106-4.099 15.106-10.31 0-5.933-4.51-9.313-15.946-13.404-15.807-5.507-26.115-14.265-26.115-28.094 0-16.235 13.556-28.658 35.998-28.658 10.73 0 18.635 2.26 24.278 4.803l-4.803 17.36c-3.808-1.832-10.585-4.51-19.899-4.51-9.321 0-13.83 4.23-13.83 9.173 0 6.07 5.359 8.751 17.638 13.409 16.796 6.211 24.71 14.966 24.71 28.377-.005 15.943-12.29 29.5-38.4 29.5zm134.245 14.954c-13.55-3.952-24.84-8.042-37.546-13.412-2.115-.842-4.373-1.267-6.634-1.405-21.453-1.406-41.496-17.222-41.496-48.28 0-28.512 18.067-49.97 46.436-49.97 29.083 0 45.03 22.02 45.03 47.993 0 21.6-10.019 36.845-22.588 42.486v.57c7.345 2.123 15.533 3.815 23.009 5.359zm79.342-16.368H461.19v-95.14h21.6v77.068h37.83ZM270.588 466.34V215.687H452.29v80.257a7.843 7.843 0 0 0 7.843 7.844h69.278l.008 162.552z"/>
    <path fill="#ffffff" d="M452.352 324.306c.345-.95.59-1.922.59-2.95 0-12.626-27.283-19.437-52.959-19.437-25.65 0-52.926 6.811-52.926 19.438 0 1.028.24 2.004.588 2.958l-.136.243c-1.173 2.13-1.753 4.277-1.753 6.392v15.622c0 2.406.756 4.715 2.098 6.899l-.176.297c-1.279 2.22-1.922 4.467-1.922 6.687v15.62c0 2.33.714 4.565 1.984 6.686l-.062.098c-1.279 2.216-1.922 4.468-1.922 6.683v15.62c0 13.888 23.82 24.76 54.228 24.76 30.44 0 54.26-10.872 54.26-24.76v-15.62c0-2.22-.643-4.475-1.938-6.687l-.053-.086c1.26-2.126 1.991-4.36 1.991-6.694v-15.62c0-2.222-.643-4.48-1.938-6.693l-.168-.288c1.34-2.187 2.106-4.492 2.106-6.906v-15.622c0-2.114-.59-4.268-1.753-6.398zm-3.92 80.856c0 8.97-19.885 18.95-48.448 18.95-28.537-.001-48.424-9.98-48.424-18.95V390.47c8.905 8.156 27.227 13.359 48.424 13.359 21.225 0 39.546-5.206 48.447-13.367zm0-29.088c0 8.961-19.885 18.949-48.448 18.949-28.537 0-48.424-9.988-48.424-18.95V361.38c8.905 8.153 27.227 13.36 48.424 13.36 21.225 0 39.546-5.207 48.447-13.368zm0-29.506c0 8.961-19.885 18.949-48.448 18.949-28.537 0-48.424-9.984-48.424-18.95V333.57c8.703 7.375 28.883 11.2 48.424 11.2 19.567 0 39.738-3.825 48.447-11.2z"/>
    </symbol>

    <symbol id="backEnd"  viewBox="0 0 800 800">
      <circle cx="400" cy="400" r="397.5" class="st0"/>
      <path fill="#fff" d="M200 394.014a15.818 15.818 0 0 1 13.117-15.587l8.545-1.481a101.48 101.48 0 0 1 12.845-30.972l-5.005-7.106a15.82 15.82 0 0 1 1.747-20.296l8.466-8.466a15.82 15.82 0 0 1 20.298-1.749l7.105 5.006a101.488 101.488 0 0 1 30.971-12.845l1.482-8.545a15.82 15.82 0 0 1 15.587-13.116h11.975a15.818 15.818 0 0 1 15.586 13.116l1.482 8.55a101.712 101.712 0 0 1 42.309 21.055l-1.204 1.463a120.799 120.799 0 0 0-22.011 40.662c-10.202-11.832-25.296-19.322-42.15-19.322-30.713 0-55.62 24.9-55.62 55.62 0 30.714 24.907 55.621 55.62 55.621 16.854 0 31.948-7.49 42.149-19.322 8.297-9.639 13.357-22.149 13.463-35.833v-.93c.107-24.443 8.809-46.858 23.246-64.382a102.806 102.806 0 0 1 13.486-13.585 101.763 101.763 0 0 1 42.309-21.047l1.483-8.551a15.82 15.82 0 0 1 15.586-13.117h11.975a15.818 15.818 0 0 1 15.587 13.117l1.482 8.546a101.488 101.488 0 0 1 30.971 12.846l7.107-5.006a15.82 15.82 0 0 1 20.296 1.747l8.466 8.467a15.82 15.82 0 0 1 1.747 20.296l-5.005 7.104a101.488 101.488 0 0 1 12.845 30.971l8.545 1.484A15.818 15.818 0 0 1 600 394.012v11.974a15.818 15.818 0 0 1-13.117 15.587l-8.546 1.481a101.5 101.5 0 0 1-12.846 30.972l5.006 7.106a15.82 15.82 0 0 1-1.746 20.296l-8.466 8.467a15.82 15.82 0 0 1-20.298 1.747l-7.105-5.006a101.509 101.509 0 0 1-30.971 12.846l-1.481 8.546a15.82 15.82 0 0 1-15.588 13.117H472.87a15.818 15.818 0 0 1-15.587-13.117l-1.483-8.55a101.75 101.75 0 0 1-42.309-21.048l1.22-1.477c9.928-12.054 17.364-25.898 22.004-40.656 10.195 11.832 25.288 19.322 42.142 19.322 30.712 0 55.611-24.908 55.611-55.62 0-30.72-24.899-55.621-55.611-55.621-16.854 0-31.947 7.49-42.142 19.322-8.305 9.63-13.364 22.142-13.47 35.833v.93c-.108 24.443-8.809 46.858-23.24 64.382a102.81 102.81 0 0 1-13.493 13.577 101.703 101.703 0 0 1-42.309 21.055l-1.482 8.55a15.82 15.82 0 0 1-15.587 13.116h-11.974a15.818 15.818 0 0 1-15.586-13.116l-1.483-8.546a101.509 101.509 0 0 1-30.971-12.846l-7.106 5.006a15.82 15.82 0 0 1-20.296-1.747l-8.468-8.467a15.82 15.82 0 0 1-1.746-20.296l5.006-7.106a101.5 101.5 0 0 1-12.846-30.972l-8.545-1.481A15.818 15.818 0 0 1 200 405.987Z"/>
    </symbol>
    
    <symbol id="JS"  viewBox="0 0 800 800">
      <circle cx="400" cy="400" r="397.5" class="st0"/>
      <path fill="#ffffff" d="M200 200v400h400V200Zm217.632 311.897c0 38.916-22.825 56.605-56.148 56.605-30.015 0-47.475-15.52-56.377-34.35l30.585-18.489c5.934 10.5 11.298 19.287 24.194 19.287 12.325 0 20.085-4.793 20.085-23.623V383.509h37.547v128.388zm88.902 56.72c-34.922 0-57.404-16.663-68.474-38.346l30.585-17.689c8.102 13.124 18.488 22.825 37.09 22.825 15.52 0 25.449-7.76 25.449-18.488 0-12.896-10.157-17.461-27.39-24.993l-9.357-3.994c-27.162-11.527-45.079-26.02-45.079-56.605 0-28.189 21.455-49.644 55.007-49.644 23.852 0 41.084 8.331 53.41 30.129l-29.216 18.83c-6.505-11.869-13.466-16.434-24.194-16.434-10.956 0-18.031 6.962-18.031 16.092 0 11.298 6.961 15.863 23.053 22.824l9.358 3.994c31.954 13.695 49.985 27.618 49.985 59.116.115 33.78-26.476 52.382-62.196 52.382z" class="st1"/>
    </symbol>

    <symbol id="c"  viewBox="0 0 800 800">
      <path d="m566.758 470.183 209.494 63.322c-14.077 58.756-36.236 107.836-66.49 147.235-30.251 39.386-67.81 69.125-112.663 89.178C552.24 789.974 495.166 800 425.85 800c-84.078 0-152.763-12.225-206.057-36.662-53.303-24.43-99.305-67.395-138-128.93C43.1 572.892 23.748 494.13 23.748 398.145c0-127.965 34.041-226.31 102.114-295.053C193.928 34.371 290.237 0 414.78 0c97.45 0 174.048 19.71 229.808 59.104 55.768 39.397 97.181 99.917 124.283 181.524l-211.086 46.966c-7.39-23.56-15.13-40.804-23.214-51.71-13.375-18.29-29.738-32.37-49.082-42.218-19.35-9.844-40.99-14.775-64.904-14.775-54.184 0-95.696 21.792-124.544 65.361-21.81 32.335-32.711 83.106-32.711 152.314 0 85.744 13.008 144.516 39.046 176.31 26.03 31.795 62.62 47.701 109.766 47.701 45.732 0 80.287-12.851 103.687-38.52 23.396-25.674 40.371-62.973 50.93-111.874z"/>
    </symbol>

    <symbol id="css"  viewBox="0 0 800 800">
      <path d="m755.557 0-66.678 722.217L399.995 800l-288.889-77.783L44.443 0ZM621.199 146.851h-446.85l10.779 87.215H411.79l-12.055 5.018-206.764 86.115 6.858 85.25 199.906.648 107.144.34-6.858 113.669-100.287 28.235v-.09l-.822.23-96.852-24.45-5.877-70.56H205.71l11.76 136.215 182.267 53.9v-.097l.329.098 181.29-52.92L604.873 325.2H399.23l.506-.22 212.65-90.913z"/>
    </symbol>

    <symbol id="html" viewBox="0 0 800 800">
      <path fill-rule="evenodd" d="M617.4 240H272.48l8.24 80H609.2c-4.8 70.08-19.36 218.56-24.72 286.12L400 658.04l-.4.4-184.64-64.96L202.32 440h90.48l6.4 82.52L399.72 560h.28l100.4-36 10.32-124h-312.4c-1.52-16.04-20.96-224.32-24.32-240h451.52c-2.52 26.4-5.08 53.52-8.08 80zM40 0l65.52 725.92L399.6 800l294.8-75.56L760 0z"/>
    </symbol>

    <symbol id="java"  viewBox="0 0 800 800">
      <path d="M302.808 325.43c-7.403-16.37-10.722-35.463-5.066-52.808 5.655-17.733 18.322-31.957 30.989-45.21 35.264-35.273 78.724-61.19 113.214-97.042 19.096-19.684 34.878-43.263 40.332-70.351C486.761 40.144 484.62 19.684 480.53 0c18.317 20.852 24.358 50.666 19.095 77.56-5.649 30.202-22.413 56.898-42.092 79.89-15.782 18.517-33.908 34.885-52.808 50.088-22.02 17.733-43.647 36.828-57.48 61.772-11.698 20.263-14.427 45.207-6.435 67.228 13.058 37.802 43.454 65.864 60.02 101.523-18.321-16.175-36.245-32.933-53.01-50.663-17.53-18.708-34.097-38.582-45.01-61.968zm99.382-29.622c-3.311 30.986 12.858 60.215 32.155 83.211 9.35 10.326 17.34 22.993 17.726 37.415.393 19.285-10.514 37.22-24.554 49.88 3.318-.385 5.655-3.31 8.384-4.868 21.046-13.447 41.307-30.4 51.635-53.585 6.821-15.785 5.263-34.495-3.698-49.113-10.527-17.147-24.358-32.347-32.541-51.052-4.489-10.523-6.047-22.798-2.343-33.906 4.876-15.002 15.396-27.281 26.505-37.999 30.591-29.031 67.615-49.695 103.083-72.295-44.82 12.859-89.054 30.594-126.857 58.462-23.97 17.927-46.18 42.868-49.495 73.85zM615.182 442.35c21.241 1.171 42.085 16.758 45.986 38.195 3.705 18.513-5.257 36.828-16.759 50.857-18.904 22.604-44.433 38.78-70.148 52.617-2.539 1.551-4.68 3.502-6.63 5.649 33.909-8.577 67.81-21.431 95.29-43.454 15.195-12.667 28.641-29.43 31.567-49.501 2.729-17.34-4.477-35.27-17.341-46.765-15.593-14.23-37.607-19.488-58.267-16.758-11.888 1.558-24.941 4.091-33.124 14.03 9.747-1.944 19.287-5.845 29.426-4.87zm-423.055 55.726c25.523 6.821 51.832 8.772 77.944 10.527 23.383 1.558 46.771 1.95 70.351 1.754 60.796-.97 121.982-5.067 181.61-18.316 5.648-1.362 11.887-2.337 16.96-5.844 9.936-6.435 20.841-11.502 31.564-16.568-48.525 7.795-97.241 14.426-146.345 17.542-49.69 3.117-99.774 5.066-149.656 1.755-14.225-1.362-28.842-2.147-42.092-7.606-3.121-1.362-7.41-4.084-5.852-8.183 2.926-5.262 8.772-7.792 13.838-10.52 21.439-10.134 44.82-15.783 67.621-22.408-39.171-.589-78.146 9.348-113.994 24.745-7.992 3.9-16.955 7.015-23.383 13.642-2.54 2.723-2.54 7.408.387 9.741 5.847 5.262 13.637 7.6 21.047 9.74zM507.81 551.67c-34.104 6.041-68.405 11.698-102.897 13.446-37.804 2.534-75.607.387-113.019-3.508-7.208-.975-14.42-2.142-20.849-5.453-3.312-1.95-6.623-5.066-6.428-9.164.387-6.429 5.84-10.908 9.741-15.587-12.078 4.288-24.163 8.765-34.295 16.764-4.293 3.313-8.576 8.57-7.41 14.415 1.762 6.82 8.386 10.912 14.231 14.028 14.416 7.41 30.591 10.718 46.38 13.642 39.939 6.434 80.668 6.63 120.809 3.895 42.49-3.311 84.772-10.323 125.888-22.408-11.692-5.257-22.801-11.305-32.15-20.07zM293.65 619.1c-10.912 3.115-22.021 6.821-30.982 14.023-4.49 3.508-7.993 9.556-5.846 15.206 2.729 7.208 9.55 11.502 15.973 15.194 16.764 9.164 35.664 13.446 54.175 16.763 41.902 6.621 84.962 5.649 126.665-1.753 24.746-4.68 49.495-11.305 72.487-21.628-15.004-6.237-29.615-13.256-43.644-21.437-24.359 4.286-48.918 8.772-73.86 10.33-32.927 2.532-66.253-.196-99.186-4.287-7.796-1.755-17.537-2.533-22.799-9.356-2.722-5.656 3.51-9.749 7.017-13.055zm266.578 125.293c27.278-5.642 54.758-12.085 79.699-24.745 7.79-4.489 17.34-9.36 19.88-18.709 1.361-8.963-7.993-13.642-14.618-17.346 4.09 4.686 6.82 11.502 2.724 16.955-6.821 9.163-18.506 12.667-28.838 16.175-32.344 9.159-65.866 12.863-99.185 16.567-88.274 7.987-177.136 9.938-265.406 2.533-29.62-3.122-59.83-6.433-88.084-16.953-4.477-1.951-11.298-3.902-11.298-9.945 1.748-5.25 6.82-8.183 11.298-10.716 20.266-10.325 42.871-15.98 65.475-17.342-6.62-3.9-14.416-4.286-22.015-4.09-18.906.583-37.417 5.452-55.34 11.502-15.396 5.642-31.18 11.882-43.46 23.187-4.871 4.282-9.349 12.465-4.289 18.315 7.797 8.38 19.881 10.521 30.591 13.054 60.02 10.331 120.816 16.17 181.622 18.315 80.674 2.346 161.931-1.164 241.244-16.757zm79.895 10.527c-36.637 11.691-74.633 18.12-112.442 23.383-65.277 8.183-131.144 10.716-196.815 8.771-39.945-1.557-79.89-4.286-119.257-10.918 9.158 6.237 20.463 8.183 30.988 11.11 44.238 9.355 89.636 11.109 134.654 12.47 66.05 1.172 132.112-1.361 197.2-11.69 30.793-5.449 61.775-12.08 89.44-26.501 14.427-7.6 29.044-19.297 31.566-36.246-14.61 15.585-35.65 22.8-55.334 29.62z"/>
    </symbol>

    <symbol id="js"  viewBox="0 0 800 800">
      <path fill-rule="evenodd" d="M.796 0C-.097.13-.031 1.205.033 2.283V799.11c265.15 1.776 533.555.253 799.967.76V0Zm405.299 707.11c-18.508 18.66-47.715 29.65-83.646 29.65-58.932 0-91.653-28.713-112.539-68.433a1515.009 1515.009 0 0 1 61.596-37.252c8.541 23.893 37.395 50.755 69.953 34.218 20.64-10.488 18.256-42.286 18.256-76.797V369.52c-.065-1.078-.13-2.153.755-2.283h73.763v183.998c0 66.69 4.765 122.72-28.138 155.877zm330.024-66.144c-4.186 62.44-55.175 95.597-123.945 95.793-67.416.194-110.566-29.766-136.881-76.034 18.92-13.021 40.357-23.51 60.078-35.73 15.78 24.675 43.11 48.392 83.646 44.857 25.254-2.201 54.57-22.787 38.02-53.984-8.027-15.123-27.423-22.805-44.863-30.41-55.346-24.148-120.279-46.296-114.068-133.06 2.077-28.985 15.424-49.355 32.703-63.869 17.708-14.873 41.425-24.84 73-25.849 57.345-1.836 88.803 23.671 110.26 59.31-18.26 13.92-38.377 26-58.553 38.013-6.62-20.344-38.581-40.169-65.396-28.131-12.194 5.468-23.151 21.543-16.726 41.055 5.73 17.4 29.102 26.926 47.904 34.98 56.911 24.36 120.512 48.168 114.821 133.059z" clip-rule="evenodd"/>
    </symbol>

    <symbol id="php"  viewBox="0 0 800 800">
      <path d="M627.09 349.902c5.815 6.442 7.194 17.505 4.154 33.174-3.177 16.321-9.292 27.964-18.353 34.944-9.07 6.979-22.86 10.468-41.381 10.468h-27.944l17.154-88.25h31.473c17.456 0 29.083 3.223 34.897 9.664zm-393.424-9.664h-31.473l-17.155 88.25h27.942c18.516 0 32.312-3.49 41.38-10.468 9.064-6.98 15.177-18.624 18.354-34.944 3.04-15.67 1.66-26.732-4.154-33.174-5.812-6.44-17.44-9.664-34.894-9.664zM800 400c0 116.21-179.089 210.416-400 210.416S0 516.21 0 400c0-116.208 179.089-210.416 400-210.416S800 283.792 800 400zm-489.954 14.538c4.76-8.53 8.146-17.943 10.15-28.238 4.856-24.997 1.191-44.467-10.997-58.416-12.181-13.949-31.57-20.92-58.138-20.92h-88.334l-40.981 210.861h45.936l10.893-56.054h39.35c17.356 0 31.639-1.823 42.852-5.475 11.21-3.646 21.4-9.758 30.572-18.347 7.694-7.076 13.924-14.876 18.697-23.411zm161.678 47.233 19.07-98.133c3.882-19.956.97-34.397-8.723-43.31-9.7-8.904-27.317-13.364-52.866-13.364h-40.6l10.899-56.063H353.93l-40.99 210.868h45.574l23.477-120.806h36.426c11.66 0 19.283 1.929 22.864 5.79 3.58 3.861 4.34 11.1 2.278 21.712l-18.131 93.304h46.296zm196.004-133.885c-12.18-13.95-31.568-20.92-58.137-20.92h-88.335l-40.984 210.861h45.939l10.891-56.055h39.35c17.356 0 31.64-1.822 42.851-5.475 11.211-3.646 21.4-9.758 30.573-18.346 7.702-7.078 13.927-14.876 18.697-23.412 4.766-8.529 8.144-17.943 10.15-28.238 4.857-24.998 1.192-44.468-10.995-58.415z"/>
    </symbol>

    <symbol id="postgre"  viewBox="0 0 800 800">
      <path d="M625.854 263.788c1.61-10.429 3.12-20.415 3.31-31.415-26.27-3.233-56.417-2.499-68.32 14.516-23.156 33.093 22.07 114.192 41.38 148.824 4.964 8.897 8.55 15.325 10.199 19.33a110.912 110.912 0 0 0 5.879 12.098c13.287-28.267 9.858-56.91 6.517-84.734-1.655-13.775-3.372-28.02-2.923-41.72.446-14.081 2.234-25.682 3.958-36.9zm-22.126-6.438c-2.134 2.248-6.643 6.148-12.794 7.001-.79.11-1.598.166-2.4.166-9.068 0-16.892-7.076-17.542-11.663-.745-5.535 8.285-9.744 17.605-11.042a43.93 43.93 0 0 1 6.011-.428c8.054 0 13.39 2.39 13.926 6.231.346 2.485-1.536 6.305-4.806 9.735zM511.216 51.992c16.596-3.438 39.29-6.646 64.701-6.088 64.384 1.424 115.305 25.51 151.363 71.585 27.66 35.34-2.79 196.15-90.957 334.878a387.386 387.386 0 0 0-2.671-3.366 334.247 334.247 0 0 0-1.118-1.4c22.784-37.624 18.325-74.844 14.361-107.848-1.63-13.545-3.164-26.339-2.773-38.353.406-12.743 2.09-23.663 3.72-34.228 2.001-13.014 4.04-26.481 3.474-42.356.423-1.664.594-3.63.371-5.968-1.432-15.23-18.818-60.789-54.248-102.034-19.375-22.555-47.638-47.795-86.223-64.822ZM267.44 456.707a109.678 109.678 0 0 0 7.896 7.45c-10.877 11.645-34.517 37.403-59.677 67.67-17.804 21.408-30.1 17.315-34.144 15.963-26.345-8.79-56.914-64.473-83.865-152.779-23.32-76.402-36.952-153.229-38.028-174.776-3.406-68.133 13.109-115.62 49.09-141.137 58.552-41.528 154.83-16.67 193.514-4.062-.558.546-1.135 1.06-1.683 1.615-63.481 64.113-61.975 173.65-61.817 180.342-.01 2.582.208 6.237.505 11.27 1.092 18.42 3.125 52.71-2.306 91.544-5.044 36.084 6.076 71.4 30.515 96.9zm354.764 13.866c-12.58 3.63-35.161 12.003-33.103 53.863-1.654 20.99-13.463 119.324-19.456 154.08-7.913 45.908-24.811 63.007-72.298 73.188-49.248 10.557-66.671-14.575-78.164-43.294-7.413-18.547-11.051-102.16-8.474-194.493a10.865 10.865 0 0 0-.48-3.524 45.937 45.937 0 0 0-1.377-6.528c-3.839-13.439-13.21-24.672-24.45-29.333-3.517-1.459-8.835-3.655-15.376-3.655a28.305 28.305 0 0 0-7.136.91c2.103-8.652 5.744-18.415 9.69-28.993l1.657-4.451c1.863-5.02 4.207-10.217 6.682-15.725 13.378-29.715 31.7-70.425 11.815-162.386-7.449-34.444-32.324-51.263-70.024-47.358-22.607 2.34-43.283 11.461-53.599 16.69a171.526 171.526 0 0 0-6.17 3.28c2.845-34.655 13.676-99.408 54.405-140.545 25.622-25.88 59.747-38.661 101.367-37.974 81.9 1.345 134.42 43.375 164.063 78.4 25.542 30.184 39.37 60.586 44.891 76.983-41.494-4.22-69.74 3.975-84.049 24.434-31.139 44.507 17.03 130.886 40.18 172.401 4.243 7.612 7.913 14.181 9.062 16.979 7.533 18.268 17.296 30.467 24.43 39.37 2.181 2.73 4.296 5.381 5.914 7.681zm-234.725 39.41c.91 3.189 1.938 9.238-1.42 13.937-16.92 23.693-40.213 35.71-69.229 35.71-9.542 0-19.673-1.328-30.121-3.942-6.112-1.528-11.609-4.18-14.837-6.377 2.694-1.27 7.49-2.993 15.806-4.704 40.25-8.293 46.464-14.139 60.037-31.372 3.114-3.952 6.645-8.43 11.534-13.893 3.691-4.13 6.982-6.226 9.778-6.226 1.962 0 4.174.845 6.862 1.957 4.891 2.033 9.658 8.16 11.59 14.91zm346.545-13.81c.169-.037.341-.077.504-.106-6.164 5.766-16.703 13.493-31.662 20.441-12.858 5.968-34.366 10.444-54.806 11.404-22.575 1.049-34.068-2.525-36.77-4.736-1.263-26.08 8.448-28.806 18.723-31.693 1.609-.454 3.189-.896 4.704-1.426a39.602 39.602 0 0 0 3.12 2.279c18.144 11.977 50.507 13.265 96.187 3.837zM350.74 435.021l1.652-4.42c2.124-5.727 4.615-11.253 7.253-17.113 12.78-28.4 28.69-63.748 10.355-148.558-3.546-16.382-12.068-25.9-26.054-29.105-30.646-7.021-73.624 16.005-82.897 24.227.086 1.857.226 4.212.382 6.895 1.14 19.19 3.258 54.915-2.478 95.939-4.096 29.295 4.85 57.882 24.542 78.424 15.49 16.164 35.854 25.107 56.79 25.17 2.408-9.876 6.288-20.269 10.455-31.46zm-28.853-171.316c-1.436-1.904-3.775-5.597-3.302-8.935.67-4.89 6.557-7.825 15.746-7.825 2.037 0 4.146.152 6.275.45 9.92 1.379 20.157 6.077 19.17 13.128-.742 5.342-9.2 13.264-19.36 13.264-.887 0-1.784-.063-2.658-.186-5.874-.811-11.81-4.512-15.871-9.896zM786.98 481.764c-3.308-15.005-16.897-32.528-44.304-32.528-5.5 0-11.46.676-18.225 2.078-12.995 2.677-24.588 4.344-34.553 4.964 34.9-59.84 62.982-127.211 79.269-190.26 15.073-58.359 26.477-136.314-4.781-176.26C718.433 31.038 651.233 0 570.045 0c-45.758 0-83.128 10.223-94.444 13.683-17.844-3.112-37.054-4.856-57.115-5.182a243.147 243.147 0 0 0-3.986-.031c-36.1 0-68.45 8.199-96.179 24.37-25.252-8.455-74.002-22.147-124.778-22.147-57.113 0-102.096 16.84-133.693 50.06C24.868 97.531 8.942 152.428 12.52 223.92c1.497 29.979 18.77 119.56 43.499 197.348 38.206 120.195 80.291 176.168 132.439 176.168 16.327 0 31.821-5.714 46.102-16.992 12.523 13.647 30.7 19.809 40.695 22.31 14.181 3.55 28.163 5.348 41.561 5.348 17.906 0 34.768-3.126 50.194-9.3.1 3.353.192 6.53.27 9.396.184 6.516.36 12.906.602 18.882 1.628 40.628 4.407 72.24 12.664 94.53.435 1.17 1.016 2.956 1.648 4.888 3.609 11.064 9.062 27.771 21.606 42.94C420.337 789.431 443.903 800 471.941 800c8.955 0 18.547-1.079 28.516-3.22 30.134-6.454 64.367-16.318 89.267-51.769 23.344-33.24 34.668-82.974 36.719-161.265l.903-7.704 4.344.355c2.753.125 5.6.182 8.467.182 29.232 0 61.625-6.27 82.54-15.981 17.377-8.072 73.388-37.6 64.283-78.834zm-74.742 54.912c-17.983 8.347-46.64 13.626-71.482 13.626-11.915 0-22.933-1.224-31.497-3.888-4.055 37.27-12.675 106.768-17.694 135.892-9.396 54.458-33.664 79.16-89.556 91.147-9.516 2.033-18.167 2.943-26.023 2.95-53.561.005-70.51-42.391-77.447-59.732-8.474-21.191-11.419-90.728-10.823-161.3-19.228 17.402-43.334 26.503-70.885 26.503-11.36 0-23.308-1.547-35.515-4.603-3.53-.885-34.497-9.195-34.084-28.993.375-18.116 26.228-23.447 35.96-25.454 34.214-7.048 36.424-9.85 47.054-23.346a345.57 345.57 0 0 1 7.755-9.58c-.035-.404-.08-.801-.104-1.205-15.342-.412-30.339-4.503-43.992-11.83-9.235 9.832-34.301 36.891-61.143 69.184-16.161 19.43-31.693 25.14-44.363 25.14-5.167.006-9.856-.946-13.923-2.306-34.727-11.579-67.735-67.895-98.098-167.374-23.07-75.58-37.686-154.5-38.968-180.159-3.816-76.253 15.862-130.225 58.483-160.423 76.311-54.065 199.62-12.548 226.52-2.469 26.521-18.082 58.54-26.95 95.663-26.367 20.227.332 38.798 2.934 55.836 7.17 8.095-3.552 49.853-16.184 99.222-15.64 71.854.763 131.214 28.481 171.659 80.162 27.292 34.88 9.283 119.79.264 154.676-18.741 72.565-53.484 150.334-95.718 214.682 6.39 4.698 25.86 12.465 80.185 1.25 18.298-3.777 29.313-.442 32.734 9.902 6.611 19.989-29.824 43.012-50.02 52.385z"/>
    </symbol>

    <symbol id="python"  viewBox="0 0 800 800">
     <path fill-rule="evenodd" d="M53.333 80a80 80 0 0 1 80-80H571.04l175.627 175.627V720a80 80 0 0 1-80 80H133.333a80 80 0 0 1-80-80zm213.334 240h-160v160h106.666v53.333H106.667v53.334h160v-160H160v-53.334h106.667zm106.666 0H320v197.707l80 80 80-80V320h-53.333v175.627L400 522.293l-26.667-26.666zm160 0h160v53.333H586.667v160H640v-80h53.333v133.334h-160Z" clip-rule="evenodd"/>
    </symbol>

    <symbol id="svg" viewBox="0 0 800 800">
      <path d="M53.333 80a80 80 0 0 1 80-80H571.04l175.627 175.627V720a80 80 0 0 1-80 80H133.333a80 80 0 0 1-80-80zm213.334 240h-160v160h106.666v53.333H106.667v53.334h160v-160H160v-53.334h106.667zm106.666 0H320v197.707l80 80 80-80V320h-53.333v175.627L400 522.293l-26.667-26.666zm160 0h160v53.333H586.667v160H640v-80h53.333v133.334h-160Z" clip-rule="evenodd"/>
    </symbol>
    
    <symbol id="godot" viewBox="0 0 800 800">
      <path d="M318.7 22.741c-36.456 8.201-72.662 19.528-106.667 36.606.775 29.954 2.726 58.609 6.651 87.638-13.152 8.477-26.954 15.753-39.206 25.654-12.502 9.502-25.254 18.753-36.606 29.955-22.653-14.852-46.482-28.904-71.236-41.281-26.579 28.53-51.308 59.384-71.636 93.89 15.227 24.753 31.255 47.782 48.458 69.81h.4v211.883c.4 0 .775 0 1.175.125l129.97 12.502c6.776.65 12.102 6.126 12.502 13.027l4.026 57.31 113.292 8.076 7.827-52.884c1.05-6.9 6.9-11.976 13.802-11.976h137.121c6.901 0 12.752 5.075 13.802 11.976l7.827 52.884 113.292-8.077 4.026-57.309c.4-6.9 5.726-12.376 12.627-13.027l129.845-12.502c.4 0 .775-.125 1.175-.125V325.013h.525c17.203-21.878 33.08-45.057 48.308-69.81-20.178-34.506-45.057-65.386-71.636-93.89-24.604 12.377-48.583 26.429-71.236 41.281-11.327-11.202-23.954-20.453-36.456-29.955-12.377-9.901-26.18-17.202-39.331-25.654 3.9-29.03 5.85-57.684 6.65-87.638-33.854-17.053-70.06-28.38-106.666-36.606-14.577 24.604-27.88 51.183-39.456 77.087-13.802-2.225-27.73-3.125-41.531-3.25h-.65c-13.803.125-27.73 1.05-41.532 3.25-11.602-25.904-24.879-52.483-39.581-77.087ZM215.934 332.94c43.231 0 78.262 35.155 78.262 78.387s-35.03 78.262-78.262 78.262-78.263-35.03-78.263-78.262 35.031-78.387 78.263-78.387zm368.307 0c43.232 0 78.263 35.155 78.263 78.387s-35.031 78.262-78.263 78.262c-43.231 0-78.262-35.03-78.262-78.262s35.03-78.387 78.262-78.387zM223.36 364.07c-28.655 0-51.958 23.178-51.958 51.957 0 28.655 23.303 51.834 51.958 51.834 28.78 0 52.083-23.179 52.083-51.834 0-28.779-23.304-51.958-52.083-51.958zm353.33 0c-28.654 0-51.958 23.178-51.958 51.957 0 28.655 23.304 51.834 51.958 51.834 28.78 0 51.958-23.179 51.958-51.834 0-28.779-23.178-51.958-51.958-51.958zm-176.602 15.102c13.927 0 25.253 10.151 25.253 22.778v72.137c0 12.627-11.326 22.928-25.253 22.928-13.928 0-25.254-10.276-25.254-22.928V401.95c0-12.627 11.326-22.778 25.254-22.778zM48.733 564.876c0 12.627.125 26.304.125 29.03 0 123.469 156.524 182.703 350.955 183.353h.525c194.43-.65 350.83-59.91 350.83-183.354 0-2.725.125-16.402.25-29.03l-116.819 11.328-4.026 57.684c-.525 6.9-6 12.501-12.902 12.902L478.2 656.69c-6.776 0-12.752-4.95-13.802-11.852l-7.952-53.908H343.53l-7.952 53.908c-1.05 7.151-7.426 12.377-14.852 11.852L182.43 646.79c-6.902-.526-12.502-6.001-13.028-12.902l-3.9-57.684L48.683 565z"/>
    </symbol>

  </defs>
</svg>
