<svg xmlns="http://www.w3.org/2000/svg">
  <defs>
  
    <symbol id="github"  viewBox="0 0 800 800">
      <path d="M400 0c220.92 0 400 183.6 400 410.12 0 181.16-114.48 334.84-273.32 389.12-20.28 4.04-27.48-8.76-27.48-19.68 0-13.52.48-57.68.48-112.56 0-38.24-12.8-63.2-27.16-75.92 89.08-10.16 182.68-44.84 182.68-202.36 0-44.8-15.52-81.36-41.2-110.08 4.16-10.36 17.88-52.08-3.92-108.56 0 0-33.52-11-109.88 42.04a375.84 375.84 0 0 0-100.2-13.8 375 375 0 0 0-100.12 13.8c-76.44-53.04-110.04-42.04-110.04-42.04-21.72 56.48-8 98.2-3.88 108.56-25.56 28.72-41.2 65.28-41.2 110.08 0 157.12 93.4 192.32 182.24 202.68-11.44 10.24-21.8 28.32-25.4 54.84-22.8 10.48-80.72 28.6-116.4-34.08 0 0-21.16-39.4-61.32-42.28 0 0-39-.52-2.72 24.92 0 0 26.2 12.6 44.4 60 0 0 23.48 73.2 134.76 48.4.2 34.28.56 66.6.56 76.36 0 10.84-7.36 23.52-27.32 19.72C114.6 745.08 0 591.32 0 410.12 0 183.6 179.12 0 400 0"/>
    </symbol>

    <symbol id="linkedin"  viewBox="0 0 800 800">
      <path d="M400 0A400 400 0 0 0 0 400a400 400 0 0 0 400 400 400 400 0 0 0 400-400A400 400 0 0 0 400 0zM247.46 160c29.08 0 47.46 19.56 48.04 45.68 0 24.9-18.96 45.06-48.6 45.06-28.52 0-47.48-20.16-46.88-45.06-.6-26.12 18.36-45.68 47.44-45.68zM536.2 279.86c59.3 0 103.8 39.14 103.8 124.52v172.04h-90.16V415.68c0-37.4-13.04-62.88-45.66-62.88-24.92 0-39.74 17.2-45.66 33.8-2.38 5.94-3.56 14.22-3.56 22.54v167.28h-90.14V378.9h-.02c0-36.2-1.2-67.04-2.4-92.54h78.3l4.16 39.74h1.8c11.84-18.4 41.5-46.24 89.54-46.24zm-333.8 6.46h90.14v290.04H202.4V286.32z"/>
    </symbol>

    <symbol id="handshake"  viewBox="0 0 800 800">
      <path d="m72.836 323.871-20.463-20.464c-20.049-20.049-32.714-46.622-35.659-74.823a8.38 8.38 0 0 0-16.668 1.742c3.344 32.01 17.72 62.173 40.478 84.931l20.463 20.463a8.355 8.355 0 0 0 5.925 2.455 8.35 8.35 0 0 0 5.925-2.455 8.378 8.378 0 0 0-.001-11.849zm270.865-127.903a8.38 8.38 0 0 0-11.851.002l-35.628 35.642a8.38 8.38 0 0 0 5.927 14.303 8.356 8.356 0 0 0 5.926-2.456l35.628-35.642a8.378 8.378 0 0 0-.002-11.849zm25.086 34.847c-3.275-3.274-8.581-3.272-11.85.001l-58.121 58.134a8.379 8.379 0 1 0 11.851 11.848l58.121-58.134a8.376 8.376 0 0 0-.001-11.849z"/>
      <path d="M504.491 165.691c-4.601-.486-8.725 2.86-9.204 7.463-2.948 28.202-15.612 54.775-35.662 74.824L357.566 350.036a12.72 12.72 0 0 1-9.055 3.751 12.72 12.72 0 0 1-9.055-3.752 12.72 12.72 0 0 1-3.751-9.055c0-3.421 1.332-6.637 3.751-9.055.016-.016.028-.032.042-.047l65.523-65.523a8.38 8.38 0 0 0-11.851-11.85l-77.064 77.064a29.395 29.395 0 0 0-6.99-11.118L270.1 281.436l20.098-20.098a8.38 8.38 0 0 0-11.851-11.85l-20.097 20.097-64.165-64.164c-.163-.163-.5-.5-.23-1.155.27-.654.749-.655.978-.655l35.989-.057c17.219-.027 31.206-14.058 31.178-31.278-.027-17.199-14.033-31.178-31.227-31.178h-.03l-140.204.132a8.38 8.38 0 0 0 .007 16.759h.008l140.204-.132h.013c7.966 0 14.456 6.478 14.47 14.446.012 7.978-6.469 14.48-14.446 14.492l-35.988.057a17.768 17.768 0 0 0-16.44 11.013 17.769 17.769 0 0 0 3.868 19.407l115.03 115.03c4.98 4.98 4.991 13.07.041 18.067l-.044.044c-.008.008-.013.016-.021.023a12.723 12.723 0 0 1-9.033 3.731 12.72 12.72 0 0 1-9.055-3.751l-99.01-99.01a8.38 8.38 0 0 0-11.85 11.85l117.875 117.876c4.994 4.993 4.994 13.119 0 18.112-2.419 2.419-5.634 3.751-9.055 3.751s-6.637-1.332-9.055-3.751l-113-113.001a8.38 8.38 0 0 0-11.85 11.85l89.642 89.642c4.99 4.994 4.989 13.117-.004 18.108-4.994 4.993-13.119 4.993-18.112 0l-95.909-95.909a8.38 8.38 0 0 0-11.85 11.85l65.571 65.572c4.992 4.994 4.991 13.118-.001 18.11-2.419 2.419-5.635 3.751-9.056 3.751s-6.638-1.332-9.057-3.751L93.869 344.9a8.38 8.38 0 0 0-11.85 11.85l60.564 60.564c5.584 5.585 13.009 8.66 20.906 8.66 7.897 0 15.322-3.075 20.906-8.66a29.377 29.377 0 0 0 6.991-11.12l11.498 11.498c5.764 5.764 13.336 8.645 20.906 8.645 7.571 0 15.142-2.883 20.906-8.645a29.389 29.389 0 0 0 6.991-11.121l4.52 4.52c5.584 5.584 13.009 8.659 20.906 8.659 7.898 0 15.323-3.075 20.907-8.66 11.527-11.528 11.527-30.285 0-41.812l-.015-.015a29.442 29.442 0 0 0 11.111-7.002l.084-.088 11.402-11.402a29.444 29.444 0 0 0 7.003 11.113c5.584 5.585 13.009 8.66 20.906 8.66 7.898 0 15.323-3.075 20.907-8.66l102.059-102.058c22.757-22.757 37.132-52.92 40.477-84.931a8.379 8.379 0 0 0-7.463-9.204z"/>
      <path d="M449.848 183.017a8.38 8.38 0 0 0-10.835-4.799c-12.948 4.997-26.906 6.003-40.371 2.914a8.38 8.38 0 0 0-3.751 16.333 85.714 85.714 0 0 0 19.201 2.183c10.507 0 20.976-1.943 30.956-5.796a8.38 8.38 0 0 0 4.8-10.835zm-28.389-97.221-140.484-.133h-.028c-17.04 0-30.921 13.856-30.948 30.896l-.001.563c-.013 8.266 3.193 16.043 9.03 21.897 5.835 5.858 13.602 9.089 21.869 9.101l38.82.061-76.923 76.923a8.38 8.38 0 0 0 11.85 11.85l82.793-82.793c7.287 12.988 17.743 23.762 30.751 31.53a8.376 8.376 0 0 0 11.491-2.897 8.381 8.381 0 0 0-2.898-11.491c-13.377-7.988-23.421-19.915-29.046-34.489-.006-.016-.017-.028-.022-.044-1.221-3.107-4.24-5.313-7.782-5.318l-59.008-.093a14.099 14.099 0 0 1-10.027-4.172 14.094 14.094 0 0 1-4.139-10.036l.001-.563c.012-7.814 6.376-14.167 14.189-14.167h.013l140.484.133h.008a8.38 8.38 0 0 0 .007-16.758z"/>
    </symbol>

    <symbol id="SQL"  viewBox="0 0 800 800">
    <circle cx="400" cy="400" r="397.5" class="st0"/>
    <path fill="#ffffff" d="M400.137 492.022c-14.675 0-23.144 14.404-23.144 32.183-.146 18.07 8.607 31.906 23.008 31.906 14.536 0 23.007-13.694 23.007-32.322 0-17.363-8.187-31.767-22.87-31.767z"/>
    <path fill="#ffffff" d="M545.023 295.854c-.024-1.834-.606-3.646-1.865-5.078l-77.128-88.094c-.014-.025-.045-.033-.061-.055a7.821 7.821 0 0 0-1.555-1.31c-.168-.109-.345-.206-.521-.306a8.039 8.039 0 0 0-1.547-.648c-.139-.042-.276-.102-.421-.139a7.644 7.644 0 0 0-1.793-.224H270.589c-8.648 0-15.687 7.04-15.687 15.687v368.626c0 8.651 7.04 15.687 15.686 15.687h258.823c8.647 0 15.687-7.036 15.687-15.687v-287.58c0-.295-.047-.583-.077-.879zM307.03 573.05c-10.874 0-21.599-2.827-26.96-5.796l4.373-17.78c5.783 2.964 14.681 5.929 23.851 5.929 9.886 0 15.106-4.099 15.106-10.31 0-5.933-4.51-9.313-15.946-13.404-15.807-5.507-26.115-14.265-26.115-28.094 0-16.235 13.556-28.658 35.998-28.658 10.73 0 18.635 2.26 24.278 4.803l-4.803 17.36c-3.808-1.832-10.585-4.51-19.899-4.51-9.321 0-13.83 4.23-13.83 9.173 0 6.07 5.359 8.751 17.638 13.409 16.796 6.211 24.71 14.966 24.71 28.377-.005 15.943-12.29 29.5-38.4 29.5zm134.245 14.954c-13.55-3.952-24.84-8.042-37.546-13.412-2.115-.842-4.373-1.267-6.634-1.405-21.453-1.406-41.496-17.222-41.496-48.28 0-28.512 18.067-49.97 46.436-49.97 29.083 0 45.03 22.02 45.03 47.993 0 21.6-10.019 36.845-22.588 42.486v.57c7.345 2.123 15.533 3.815 23.009 5.359zm79.342-16.368H461.19v-95.14h21.6v77.068h37.83ZM270.588 466.34V215.687H452.29v80.257a7.843 7.843 0 0 0 7.843 7.844h69.278l.008 162.552z"/>
    <path fill="#ffffff" d="M452.352 324.306c.345-.95.59-1.922.59-2.95 0-12.626-27.283-19.437-52.959-19.437-25.65 0-52.926 6.811-52.926 19.438 0 1.028.24 2.004.588 2.958l-.136.243c-1.173 2.13-1.753 4.277-1.753 6.392v15.622c0 2.406.756 4.715 2.098 6.899l-.176.297c-1.279 2.22-1.922 4.467-1.922 6.687v15.62c0 2.33.714 4.565 1.984 6.686l-.062.098c-1.279 2.216-1.922 4.468-1.922 6.683v15.62c0 13.888 23.82 24.76 54.228 24.76 30.44 0 54.26-10.872 54.26-24.76v-15.62c0-2.22-.643-4.475-1.938-6.687l-.053-.086c1.26-2.126 1.991-4.36 1.991-6.694v-15.62c0-2.222-.643-4.48-1.938-6.693l-.168-.288c1.34-2.187 2.106-4.492 2.106-6.906v-15.622c0-2.114-.59-4.268-1.753-6.398zm-3.92 80.856c0 8.97-19.885 18.95-48.448 18.95-28.537-.001-48.424-9.98-48.424-18.95V390.47c8.905 8.156 27.227 13.359 48.424 13.359 21.225 0 39.546-5.206 48.447-13.367zm0-29.088c0 8.961-19.885 18.949-48.448 18.949-28.537 0-48.424-9.988-48.424-18.95V361.38c8.905 8.153 27.227 13.36 48.424 13.36 21.225 0 39.546-5.207 48.447-13.368zm0-29.506c0 8.961-19.885 18.949-48.448 18.949-28.537 0-48.424-9.984-48.424-18.95V333.57c8.703 7.375 28.883 11.2 48.424 11.2 19.567 0 39.738-3.825 48.447-11.2z"/>
    </symbol>

    <symbol id="backEnd"  viewBox="0 0 800 800">
      <circle cx="400" cy="400" r="397.5" class="st0"/>
      <path fill="#fff" d="M200 394.014a15.818 15.818 0 0 1 13.117-15.587l8.545-1.481a101.48 101.48 0 0 1 12.845-30.972l-5.005-7.106a15.82 15.82 0 0 1 1.747-20.296l8.466-8.466a15.82 15.82 0 0 1 20.298-1.749l7.105 5.006a101.488 101.488 0 0 1 30.971-12.845l1.482-8.545a15.82 15.82 0 0 1 15.587-13.116h11.975a15.818 15.818 0 0 1 15.586 13.116l1.482 8.55a101.712 101.712 0 0 1 42.309 21.055l-1.204 1.463a120.799 120.799 0 0 0-22.011 40.662c-10.202-11.832-25.296-19.322-42.15-19.322-30.713 0-55.62 24.9-55.62 55.62 0 30.714 24.907 55.621 55.62 55.621 16.854 0 31.948-7.49 42.149-19.322 8.297-9.639 13.357-22.149 13.463-35.833v-.93c.107-24.443 8.809-46.858 23.246-64.382a102.806 102.806 0 0 1 13.486-13.585 101.763 101.763 0 0 1 42.309-21.047l1.483-8.551a15.82 15.82 0 0 1 15.586-13.117h11.975a15.818 15.818 0 0 1 15.587 13.117l1.482 8.546a101.488 101.488 0 0 1 30.971 12.846l7.107-5.006a15.82 15.82 0 0 1 20.296 1.747l8.466 8.467a15.82 15.82 0 0 1 1.747 20.296l-5.005 7.104a101.488 101.488 0 0 1 12.845 30.971l8.545 1.484A15.818 15.818 0 0 1 600 394.012v11.974a15.818 15.818 0 0 1-13.117 15.587l-8.546 1.481a101.5 101.5 0 0 1-12.846 30.972l5.006 7.106a15.82 15.82 0 0 1-1.746 20.296l-8.466 8.467a15.82 15.82 0 0 1-20.298 1.747l-7.105-5.006a101.509 101.509 0 0 1-30.971 12.846l-1.481 8.546a15.82 15.82 0 0 1-15.588 13.117H472.87a15.818 15.818 0 0 1-15.587-13.117l-1.483-8.55a101.75 101.75 0 0 1-42.309-21.048l1.22-1.477c9.928-12.054 17.364-25.898 22.004-40.656 10.195 11.832 25.288 19.322 42.142 19.322 30.712 0 55.611-24.908 55.611-55.62 0-30.72-24.899-55.621-55.611-55.621-16.854 0-31.947 7.49-42.142 19.322-8.305 9.63-13.364 22.142-13.47 35.833v.93c-.108 24.443-8.809 46.858-23.24 64.382a102.81 102.81 0 0 1-13.493 13.577 101.703 101.703 0 0 1-42.309 21.055l-1.482 8.55a15.82 15.82 0 0 1-15.587 13.116h-11.974a15.818 15.818 0 0 1-15.586-13.116l-1.483-8.546a101.509 101.509 0 0 1-30.971-12.846l-7.106 5.006a15.82 15.82 0 0 1-20.296-1.747l-8.468-8.467a15.82 15.82 0 0 1-1.746-20.296l5.006-7.106a101.5 101.5 0 0 1-12.846-30.972l-8.545-1.481A15.818 15.818 0 0 1 200 405.987Z"/>
    </symbol>
    
    <symbol id="JS"  viewBox="0 0 800 800">
      <circle cx="400" cy="400" r="397.5" class="st0"/>
      <path fill="#ffffff" d="M200 200v400h400V200Zm217.632 311.897c0 38.916-22.825 56.605-56.148 56.605-30.015 0-47.475-15.52-56.377-34.35l30.585-18.489c5.934 10.5 11.298 19.287 24.194 19.287 12.325 0 20.085-4.793 20.085-23.623V383.509h37.547v128.388zm88.902 56.72c-34.922 0-57.404-16.663-68.474-38.346l30.585-17.689c8.102 13.124 18.488 22.825 37.09 22.825 15.52 0 25.449-7.76 25.449-18.488 0-12.896-10.157-17.461-27.39-24.993l-9.357-3.994c-27.162-11.527-45.079-26.02-45.079-56.605 0-28.189 21.455-49.644 55.007-49.644 23.852 0 41.084 8.331 53.41 30.129l-29.216 18.83c-6.505-11.869-13.466-16.434-24.194-16.434-10.956 0-18.031 6.962-18.031 16.092 0 11.298 6.961 15.863 23.053 22.824l9.358 3.994c31.954 13.695 49.985 27.618 49.985 59.116.115 33.78-26.476 52.382-62.196 52.382z" class="st1"/>
    </symbol>

    <symbol id="c"  viewBox="0 0 800 800">
      <path d="m362.517 300.83 133.815 40.447c-8.992 37.531-23.146 68.881-42.471 94.047-19.323 25.158-43.314 44.154-71.964 56.963-28.653 12.811-65.11 19.215-109.385 19.215-53.705 0-97.578-7.809-131.62-23.418-34.047-15.605-63.431-43.049-88.148-82.354-24.716-39.295-37.077-89.604-37.077-150.915 0-81.738 21.744-144.556 65.226-188.466C124.37 22.454 185.888.499 265.44.499c62.247 0 111.174 12.59 146.791 37.753 35.622 25.165 62.075 63.822 79.386 115.949l-134.832 30c-4.72-15.049-9.664-26.064-14.828-33.03-8.543-11.683-18.995-20.677-31.351-26.967-12.36-6.288-26.182-9.438-41.458-9.438-34.61 0-61.126 13.92-79.553 41.75-13.931 20.654-20.894 53.084-20.894 97.291 0 54.769 8.309 92.31 24.941 112.619 16.627 20.309 39.998 30.469 70.113 30.469 29.212 0 51.284-8.209 66.231-24.605 14.944-16.399 25.787-40.224 32.531-71.46z"/>
    </symbol>

    <symbol id="css"  viewBox="0 0 800 800">
      <path d="m483.111.501-42.59 461.314-184.524 49.684L71.47 461.815 28.889.501h454.222zM397.29 94.302H111.866l6.885 55.708h144.78l-7.7 3.205-132.07 55.006 4.38 54.453 127.69.414 68.438.217-4.381 72.606-64.058 18.035v-.057l-.525.146-61.864-15.617-3.754-45.07H131.898l7.511 87.007 116.423 34.429v-.062l.21.062 115.799-33.802 15.021-172.761H255.509l.323-.14 135.83-58.071 5.628-55.708z"/>
    </symbol>

    <symbol id="html" viewBox="0 0 800 800">
      <path d="M617.4 240H272.48l8.24 80H609.2c-4.8 70.08-19.36 218.56-24.72 286.12L400 658.04l-.4.4-184.64-64.96L202.32 440h90.48l6.4 82.52L399.72 560h.28l100.4-36 10.32-124h-312.4c-1.52-16.04-20.96-224.32-24.32-240h451.52c-2.52 26.4-5.08 53.52-8.08 80zM40 0l65.52 725.92L399.6 800l294.8-75.56L760 0z"/>
    </symbol>

    <symbol id="java"  viewBox="0 0 800 800">
      <path d="M193.918 208.369c-4.729-10.456-6.849-22.652-3.236-33.731 3.612-11.327 11.703-20.413 19.794-28.878 22.525-22.531 50.285-39.085 72.316-61.986 12.197-12.573 22.278-27.634 25.762-44.937 2.864-12.695 1.496-25.764-1.117-38.337 11.7 13.319 15.559 32.363 12.197 49.541-3.608 19.292-14.316 36.344-26.886 51.031-10.081 11.827-21.659 22.282-33.731 31.993-14.065 11.327-27.88 23.524-36.716 39.457-7.472 12.943-9.215 28.876-4.11 42.942 8.341 24.146 27.756 42.071 38.338 64.848-11.703-10.332-23.152-21.036-33.86-32.361-11.198-11.95-21.78-24.644-28.751-39.582zm63.48-18.921c-2.115 19.792 8.213 38.462 20.539 53.151 5.972 6.596 11.076 14.687 11.323 23.899.251 12.318-6.716 23.774-15.684 31.861 2.119-.246 3.612-2.115 5.355-3.11 13.443-8.589 26.385-19.418 32.982-34.227 4.357-10.083 3.362-22.034-2.362-31.371-6.724-10.953-15.559-20.662-20.786-32.61-2.867-6.721-3.862-14.562-1.496-21.657 3.114-9.583 9.834-17.426 16.93-24.272 19.54-18.544 43.189-31.743 65.844-46.179-28.629 8.214-56.883 19.542-81.03 37.343-15.311 11.451-29.498 27.382-31.615 47.172zm136.049 93.604c13.568.748 26.882 10.704 29.374 24.397 2.366 11.825-3.358 23.524-10.705 32.485-12.075 14.438-28.382 24.771-44.807 33.609-1.622.991-2.99 2.237-4.235 3.608 21.659-5.478 43.314-13.689 60.867-27.756 9.705-8.091 18.294-18.799 20.163-31.619 1.743-11.076-2.86-22.528-11.077-29.871-9.96-9.09-24.021-12.448-37.218-10.704-7.593.995-15.931 2.613-21.158 8.961 6.226-1.241 12.32-3.733 18.796-3.11zM123.22 318.647c16.303 4.357 33.108 5.603 49.787 6.724 14.936.995 29.875 1.246 44.937 1.12 38.833-.619 77.916-3.236 116.003-11.699 3.608-.87 7.593-1.493 10.833-3.733 6.347-4.11 13.313-7.347 20.162-10.583-30.995 4.979-62.113 9.215-93.478 11.205-31.74 1.991-63.731 3.236-95.593 1.121-9.086-.87-18.423-1.371-26.886-4.858-1.994-.87-4.733-2.609-3.738-5.227 1.869-3.361 5.603-4.977 8.839-6.72 13.694-6.473 28.629-10.081 43.193-14.313-25.021-.376-49.916 5.971-72.814 15.806-5.105 2.491-10.83 4.481-14.936 8.714-1.622 1.739-1.622 4.732.247 6.222 3.735 3.361 8.711 4.854 13.444 6.221zm201.644 34.233c-21.784 3.859-43.694 7.472-65.726 8.589-24.147 1.618-48.294.247-72.191-2.241-4.604-.623-9.211-1.368-13.317-3.483-2.116-1.246-4.231-3.236-4.106-5.854.247-4.106 3.73-6.967 6.222-9.956-7.715 2.739-15.434 5.599-21.906 10.708-2.742 2.116-5.478 5.474-4.733 9.208 1.125 4.356 5.356 6.97 9.09 8.96 9.208 4.733 19.54 6.846 29.625 8.714 25.511 4.11 51.527 4.235 77.167 2.488 27.141-2.115 54.148-6.594 80.411-14.313-7.468-3.358-14.564-7.221-20.536-12.82zm-136.796 43.071c-6.97 1.99-14.066 4.357-19.79 8.957-2.868 2.241-5.105 6.104-3.734 9.713 1.743 4.604 6.1 7.347 10.203 9.705 10.708 5.854 22.78 8.589 34.604 10.708 26.765 4.229 54.27 3.608 80.908-1.12 15.806-2.989 31.615-7.221 46.301-13.815-9.584-3.984-18.917-8.467-27.878-13.693-15.559 2.738-31.246 5.603-47.178 6.598-21.032 1.618-42.319-.125-63.355-2.738-4.98-1.121-11.202-1.618-14.563-5.976-1.739-3.613 2.242-6.227 4.482-8.339zm170.277 80.031c17.424-3.604 34.977-7.719 50.908-15.806 4.976-2.867 11.076-5.979 12.698-11.95.87-5.725-5.105-8.714-9.337-11.08 2.613 2.993 4.356 7.347 1.74 10.83-4.357 5.853-11.821 8.091-18.42 10.332-20.66 5.85-42.072 8.216-63.355 10.582-56.385 5.102-113.146 6.348-169.528 1.618-18.92-1.994-38.217-4.109-56.264-10.829-2.86-1.246-7.217-2.492-7.217-6.352 1.117-3.354 4.357-5.227 7.217-6.845 12.945-6.595 27.384-10.207 41.822-11.077-4.228-2.491-9.208-2.738-14.062-2.613-12.076.373-23.9 3.483-35.349 7.347-9.834 3.604-19.916 7.59-27.76 14.811-3.111 2.735-5.971 7.962-2.739 11.699 4.98 5.353 12.699 6.72 19.54 8.338 38.338 6.599 77.171 10.328 116.011 11.699 51.531 1.498 103.434-.744 154.095-10.704zm51.033 6.724c-23.402 7.468-47.672 11.574-71.822 14.936-41.696 5.227-83.769 6.845-125.716 5.603-25.515-.995-51.03-2.738-76.176-6.974 5.85 3.984 13.071 5.227 19.794 7.096 28.257 5.976 57.255 7.096 86.01 7.966 42.19.748 84.387-.87 125.962-7.468 19.669-3.48 39.459-7.715 57.13-16.927 9.215-4.854 18.552-12.326 20.163-23.152-9.332 9.955-22.772 14.563-35.345 18.92z"/>
    </symbol>

    <symbol id="js"  viewBox="0 0 800 800">
      <path d="M1.008.5C.438.583.48 1.27.521 1.958v508.974c169.364 1.135 340.808.162 510.979.486V.5H1.008zm258.885 451.667c-11.822 11.919-30.478 18.938-53.429 18.938-37.643 0-58.543-18.34-71.884-43.711a967.712 967.712 0 0 1 39.344-23.795c5.456 15.262 23.886 32.42 44.683 21.857 13.183-6.699 11.661-27.01 11.661-49.054V236.53c-.042-.688-.083-1.375.482-1.458h47.116v117.529c0 42.598 3.044 78.387-17.973 99.566zm210.803-42.25c-2.674 39.884-35.243 61.063-79.17 61.188-43.062.124-70.624-19.013-87.433-48.567 12.085-8.317 25.778-15.017 38.375-22.822 10.08 15.761 27.537 30.91 53.429 28.652 16.131-1.406 34.856-14.555 24.285-34.482-5.127-9.66-17.516-14.567-28.656-19.425-35.352-15.424-76.828-29.571-72.861-84.992 1.327-18.514 9.852-31.525 20.889-40.796 11.311-9.5 26.46-15.867 46.629-16.511 36.629-1.173 56.723 15.12 70.429 37.884-11.664 8.891-24.514 16.608-37.401 24.281-4.229-12.995-24.644-25.658-41.772-17.969-7.789 3.493-14.788 13.761-10.684 26.224 3.66 11.115 18.589 17.199 30.599 22.344 36.352 15.56 76.977 30.767 73.342 84.991z" clip-rule="evenodd"/>
    </symbol>

    <symbol id="php"  viewBox="0 0 800 800">
      <path d="M401.054 224c3.714 4.115 4.595 11.181 2.653 21.19-2.029 10.425-5.935 17.862-11.723 22.32-5.793 4.458-14.602 6.687-26.432 6.687h-17.849l10.957-56.37h20.103c11.15 0 18.577 2.059 22.291 6.173zm-251.3-6.173h-20.103l-10.958 56.37h17.848c11.827 0 20.639-2.229 26.432-6.687 5.789-4.458 9.694-11.896 11.723-22.32 1.942-10.01 1.06-17.075-2.653-21.19-3.713-4.114-11.14-6.173-22.289-6.173zM511.5 256c0 74.229-114.393 134.403-255.5 134.403S.5 330.229.5 256c0-74.228 114.393-134.403 255.5-134.403S511.5 181.772 511.5 256zm-312.958 9.286c3.04-5.448 5.203-11.461 6.483-18.037 3.102-15.967.761-28.403-7.024-37.313-7.781-8.91-20.165-13.363-37.136-13.363h-56.423L78.265 331.261h29.342l6.958-35.805h25.134c11.087 0 20.21-1.164 27.372-3.497 7.161-2.329 13.669-6.233 19.528-11.719 4.915-4.52 8.894-9.502 11.943-14.954zm103.272 30.17 12.181-62.682c2.479-12.747.619-21.971-5.572-27.664-6.196-5.688-17.449-8.537-33.768-8.537h-25.933l6.961-35.81h-29.11l-26.182 134.692h29.11l14.996-77.165h23.267c7.448 0 12.317 1.232 14.604 3.698 2.287 2.467 2.773 7.091 1.455 13.869l-11.581 59.598h29.572zm125.197-85.519c-7.78-8.91-20.164-13.363-37.135-13.363h-56.424l-26.178 134.688h29.343l6.957-35.805h25.135c11.086 0 20.21-1.164 27.371-3.497 7.161-2.329 13.669-6.233 19.528-11.719 4.92-4.521 8.896-9.502 11.943-14.954 3.044-5.448 5.202-11.461 6.483-18.037 3.103-15.968.762-28.404-7.023-37.313z"/>
    </symbol>

    <symbol id="postgre"  viewBox="0 0 800 800">
      <path d="M400.264 168.995c1.028-6.661 1.993-13.04 2.114-20.066-16.78-2.065-36.036-1.596-43.639 9.272-14.791 21.138 14.097 72.94 26.432 95.061 3.17 5.683 5.461 9.789 6.514 12.347a70.845 70.845 0 0 0 3.755 7.728c8.487-18.056 6.297-36.352 4.163-54.124-1.057-8.799-2.154-17.898-1.867-26.649.285-8.994 1.427-16.404 2.528-23.569zm-14.133-4.112c-1.363 1.436-4.243 3.927-8.172 4.472-.505.07-1.021.106-1.533.106-5.792 0-10.79-4.52-11.205-7.45-.476-3.535 5.292-6.224 11.245-7.053a28.06 28.06 0 0 1 3.84-.273c5.144 0 8.552 1.526 8.895 3.98.221 1.587-.981 4.027-3.07 6.218zM327.039 33.711c10.601-2.196 25.097-4.245 41.328-3.889 41.125.91 73.651 16.294 96.683 45.725 17.667 22.573-1.782 125.291-58.099 213.903-.553-.706-1.121-1.42-1.706-2.15a213.5 213.5 0 0 0-.714-.895c14.553-24.032 11.705-47.806 9.173-68.887-1.041-8.652-2.021-16.824-1.771-24.498.259-8.14 1.335-15.115 2.376-21.863 1.278-8.313 2.581-16.915 2.219-27.055.27-1.063.379-2.319.237-3.812-.915-9.728-12.02-38.829-34.651-65.174-12.376-14.407-30.429-30.529-55.075-41.405zM171.328 292.222a70.057 70.057 0 0 0 5.044 4.759c-6.948 7.438-22.048 23.891-38.119 43.224-11.372 13.674-19.226 11.06-21.809 10.196-16.828-5.614-36.354-41.182-53.569-97.587-14.896-48.802-23.603-97.875-24.29-111.638-2.176-43.52 8.373-73.852 31.356-90.151 37.4-26.526 98.897-10.648 123.607-2.595-.357.349-.725.677-1.075 1.032-40.549 40.952-39.587 110.918-39.486 115.193-.006 1.649.133 3.984.323 7.199.697 11.766 1.996 33.668-1.473 58.473-3.222 23.049 3.881 45.607 19.491 61.895zm226.605 8.857c-8.035 2.319-22.459 7.667-21.144 34.405-1.057 13.407-8.6 76.218-12.428 98.418-5.054 29.324-15.848 40.246-46.18 46.749-31.457 6.743-42.586-9.31-49.927-27.654-4.735-11.847-7.059-65.254-5.413-124.232a6.94 6.94 0 0 0-.307-2.251 29.342 29.342 0 0 0-.879-4.17c-2.452-8.584-8.438-15.759-15.617-18.736-2.247-.932-5.644-2.335-9.822-2.335a18.08 18.08 0 0 0-4.558.581c1.343-5.526 3.669-11.762 6.189-18.519l1.059-2.843c1.19-3.207 2.687-6.526 4.268-10.044 8.545-18.981 20.248-44.984 7.547-103.724-4.758-22.001-20.647-32.744-44.728-30.25-14.44 1.495-27.647 7.321-34.236 10.661-1.422.72-2.727 1.417-3.941 2.095 1.817-22.136 8.735-63.497 34.751-89.773 16.366-16.531 38.163-24.695 64.748-24.256 52.314.859 85.861 27.706 104.795 50.078 16.315 19.28 25.148 38.699 28.674 49.173-26.504-2.696-44.546 2.539-53.686 15.607-19.89 28.429 10.878 83.603 25.665 110.121 2.71 4.862 5.054 9.058 5.788 10.845 4.812 11.669 11.048 19.461 15.605 25.148 1.393 1.744 2.744 3.437 3.777 4.906zm-149.93 25.173c.581 2.037 1.238 5.901-.907 8.902-10.808 15.134-25.686 22.81-44.22 22.81-6.095 0-12.566-.848-19.24-2.518-3.904-.976-7.415-2.67-9.477-4.073 1.721-.812 4.784-1.912 10.096-3.005 25.71-5.297 29.679-9.031 38.349-20.039 1.989-2.524 4.244-5.385 7.367-8.874 2.358-2.638 4.46-3.977 6.246-3.977 1.253 0 2.666.54 4.383 1.25 3.124 1.299 6.169 5.212 7.403 9.524zm221.355-8.821c.108-.024.218-.049.322-.068-3.937 3.683-10.669 8.619-20.224 13.057-8.213 3.812-21.951 6.671-35.007 7.284-14.42.67-21.761-1.613-23.487-3.025-.807-16.658 5.396-18.4 11.959-20.244 1.028-.29 2.037-.572 3.005-.911.605.488 1.267.979 1.993 1.456 11.589 7.65 32.261 8.473 61.439 2.451zM224.536 278.37l1.055-2.823c1.357-3.658 2.948-7.188 4.633-10.931 8.163-18.14 18.326-40.719 6.614-94.891-2.265-10.464-7.708-16.544-16.642-18.591-19.575-4.485-47.027 10.223-52.95 15.475.055 1.186.144 2.69.244 4.404.728 12.258 2.081 35.077-1.583 61.281-2.616 18.712 3.098 36.972 15.676 50.093 9.895 10.325 22.902 16.037 36.275 16.077 1.538-6.308 4.016-12.946 6.678-20.094zm-18.43-109.428c-.917-1.216-2.411-3.575-2.109-5.707.428-3.124 4.188-4.998 10.058-4.998 1.301 0 2.648.097 4.008.287 6.336.881 12.875 3.882 12.245 8.386-.474 3.412-5.877 8.472-12.366 8.472-.567 0-1.14-.04-1.698-.119-3.752-.518-7.544-2.882-10.138-6.321zm297.077 139.285c-2.113-9.584-10.793-20.777-28.299-20.777-3.513 0-7.32.432-11.641 1.327-8.301 1.71-15.706 2.775-22.071 3.171 22.293-38.223 40.23-81.256 50.633-121.528 9.628-37.277 16.912-87.071-3.054-112.586C459.399 20.326 416.475.501 364.616.501c-29.228 0-53.098 6.53-60.326 8.74-11.398-1.988-23.668-3.102-36.482-3.31a155.31 155.31 0 0 0-2.546-.02c-23.059 0-43.723 5.237-61.434 15.567-16.13-5.401-47.269-14.147-79.702-14.147-36.481 0-65.214 10.757-85.396 31.976C16.385 62.799 6.212 97.864 8.497 143.529c.956 19.149 11.989 76.369 27.785 126.056 24.404 76.774 51.286 112.527 84.595 112.527 10.429 0 20.326-3.65 29.448-10.854 7.999 8.717 19.609 12.653 25.994 14.251 9.058 2.267 17.989 3.416 26.547 3.416 11.437 0 22.208-1.997 32.061-5.941.064 2.142.123 4.171.173 6.002.117 4.162.23 8.244.384 12.061 1.04 25.951 2.815 46.143 8.089 60.381.278.747.649 1.888 1.053 3.122 2.305 7.067 5.788 17.739 13.801 27.428 10.563 12.771 25.616 19.522 43.525 19.522 5.72 0 11.847-.689 18.215-2.057 19.248-4.122 41.114-10.423 57.019-33.067 14.911-21.232 22.144-53 23.454-103.008l.577-4.921 2.775.227c1.758.08 3.577.116 5.408.116 18.672 0 39.363-4.005 52.723-10.208 11.099-5.156 46.876-24.017 41.06-50.355zm-47.741 35.075c-11.487 5.332-29.791 8.704-45.659 8.704-7.611 0-14.649-.782-20.119-2.484-2.59 23.806-8.096 68.198-11.302 86.801-6.002 34.785-21.503 50.564-57.204 58.22-6.078 1.299-11.604 1.88-16.622 1.884-34.212.004-45.038-27.077-49.469-38.153-5.413-13.536-7.294-57.953-6.913-103.031-12.282 11.116-27.68 16.929-45.278 16.929-7.256 0-14.888-.988-22.685-2.94-2.255-.565-22.035-5.873-21.771-18.519.239-11.572 16.753-14.977 22.969-16.259 21.854-4.502 23.266-6.292 30.056-14.912a220.733 220.733 0 0 1 4.953-6.119c-.022-.258-.051-.512-.066-.77-9.8-.263-19.379-2.876-28.1-7.556-5.899 6.28-21.91 23.564-39.055 44.191-10.323 12.411-20.244 16.058-28.337 16.058-3.3.004-6.295-.604-8.893-1.473-22.182-7.396-43.266-43.368-62.66-106.91-14.736-48.277-24.072-98.686-24.891-115.076-2.437-48.707 10.132-83.181 37.356-102.47 48.744-34.534 127.507-8.015 144.689-1.577 16.941-11.55 37.393-17.215 61.105-16.842 12.92.212 24.782 1.874 35.665 4.58 5.171-2.269 31.844-10.338 63.378-9.991 45.897.488 83.813 18.193 109.647 51.204 17.433 22.279 5.93 76.516.169 98.799-11.971 46.351-34.163 96.026-61.14 137.128 4.082 3.001 16.518 7.962 51.218.798 11.688-2.412 18.724-.282 20.909 6.325 4.223 12.768-19.05 27.474-31.95 33.461z"/>
    </symbol>

    <symbol id="python"  viewBox="0 0 800 800">
      <path d="M194.734 246.879h121.768c33.9 0 60.956-27.908 60.956-61.95V68.846c0-33.035-27.87-57.855-60.956-63.371-20.943-3.484-42.673-5.069-63.51-4.971-20.845.097-40.74 1.874-58.258 4.971-51.586 9.117-60.952 28.191-60.952 63.371v46.463H255.69v15.486H88.032c-35.434 0-66.459 21.295-76.158 61.808-11.192 46.435-11.694 75.409 0 123.898 8.666 36.088 29.359 61.807 64.79 61.807h41.917v-55.699c0-40.239 34.809-75.73 76.153-75.73zm-7.671-162.546c-12.636 0-22.877-10.355-22.877-23.161 0-12.849 10.241-23.3 22.877-23.3 12.594 0 22.873 10.451 22.873 23.3 0 12.807-10.278 23.161-22.873 23.161zm312.307 108.27c-8.761-35.27-25.484-61.808-60.96-61.808h-45.75v54.134c0 41.972-35.582 77.292-76.158 77.292H194.734c-33.349 0-60.952 28.547-60.952 61.954v116.079c0 33.037 28.726 52.476 60.952 61.943 38.589 11.353 75.59 13.409 121.768 0 30.688-8.876 60.956-26.764 60.956-61.943v-46.461H255.69v-15.486h182.72c35.431 0 48.638-24.715 60.96-61.807 12.722-38.186 12.179-74.911 0-123.897zM324.178 424.766c12.64 0 22.873 10.356 22.873 23.156 0 12.85-10.233 23.305-22.873 23.305-12.595 0-22.877-10.455-22.877-23.305 0-12.8 10.282-23.156 22.877-23.156z"/>
    </symbol>

    <symbol id="svg" viewBox="0 0 800 800">
      <path d="M53.333 80a80 80 0 0 1 80-80H571.04l175.627 175.627V720a80 80 0 0 1-80 80H133.333a80 80 0 0 1-80-80zm213.334 240h-160v160h106.666v53.333H106.667v53.334h160v-160H160v-53.334h106.667zm106.666 0H320v197.707l80 80 80-80V320h-53.333v175.627L400 522.293l-26.667-26.666zm160 0h160v53.333H586.667v160H640v-80h53.333v133.334h-160Z" clip-rule="evenodd"/>
    </symbol>

  </defs>
</svg>
