<svg xmlns="http://www.w3.org/2000/svg" fill="none" viewBox="0 0 800 800">
  <path fill="#000" d="M400 0A400 400 0 0 0 0 400a400 400 0 0 0 400 400 400 400 0 0 0 400-400A400 400 0 0 0 400 0zM247.46 160c29.08 0 47.46 19.56 48.04 45.68 0 24.9-18.96 45.06-48.6 45.06-28.52 0-47.48-20.16-46.88-45.06-.6-26.12 18.36-45.68 47.44-45.68zM536.2 279.86c59.3 0 103.8 39.14 103.8 124.52v172.04h-90.16V415.68c0-37.4-13.04-62.88-45.66-62.88-24.92 0-39.74 17.2-45.66 33.8-2.38 5.94-3.56 14.22-3.56 22.54v167.28h-90.14V378.9h-.02c0-36.2-1.2-67.04-2.4-92.54h78.3l4.16 39.74h1.8c11.84-18.4 41.5-46.24 89.54-46.24zm-333.8 6.46h90.14v290.04H202.4V286.32z"/>
</svg>
