<svg xmlns="http://www.w3.org/2000/svg" xml:space="preserve" viewBox="0 0 800 800">
  <circle cx="400" cy="400" r="397.5" class="st0"/>
  <path fill="#f9f9f7" d="M200 200v400h400V200Z" class="st1"/>
  <path d="M225 394.762a13.841 13.841 0 0 1 11.477-13.639l7.477-1.296a88.795 88.795 0 0 1 11.24-27.1l-4.38-6.218a13.842 13.842 0 0 1 1.529-17.759l7.408-7.408a13.842 13.842 0 0 1 17.76-1.53l6.217 4.38a88.802 88.802 0 0 1 27.1-11.239l1.297-7.477a13.842 13.842 0 0 1 13.638-11.477h10.478a13.841 13.841 0 0 1 13.638 11.477l1.297 7.481a88.998 88.998 0 0 1 37.02 18.423l-1.053 1.28a105.699 105.699 0 0 0-19.26 35.58c-8.927-10.353-22.134-16.907-36.881-16.907-26.874 0-48.668 21.787-48.668 48.668 0 26.874 21.794 48.668 48.668 48.668 14.747 0 27.954-6.554 36.88-16.907 7.26-8.434 11.688-19.38 11.78-31.354v-.814c.094-21.387 7.708-41 20.341-56.334a89.955 89.955 0 0 1 11.8-11.887 89.043 89.043 0 0 1 37.02-18.416l1.298-7.482a13.842 13.842 0 0 1 13.638-11.477h10.478a13.841 13.841 0 0 1 13.638 11.477l1.297 7.478a88.802 88.802 0 0 1 27.1 11.24l6.218-4.38a13.842 13.842 0 0 1 17.759 1.528l7.408 7.409a13.842 13.842 0 0 1 1.529 17.759l-4.38 6.216a88.802 88.802 0 0 1 11.24 27.1l7.477 1.298A13.841 13.841 0 0 1 575 394.76v10.477a13.841 13.841 0 0 1-11.477 13.639l-7.478 1.296a88.813 88.813 0 0 1-11.24 27.1l4.38 6.218a13.842 13.842 0 0 1-1.528 17.759l-7.408 7.409a13.842 13.842 0 0 1-17.76 1.528l-6.217-4.38a88.82 88.82 0 0 1-27.1 11.24l-1.296 7.478a13.842 13.842 0 0 1-13.639 11.477H463.76a13.841 13.841 0 0 1-13.638-11.477l-1.298-7.482a89.031 89.031 0 0 1-37.02-18.416l1.067-1.293c8.687-10.547 15.194-22.66 19.254-35.574 8.92 10.353 22.127 16.907 36.874 16.907 26.873 0 48.66-21.794 48.66-48.668 0-26.88-21.787-48.668-48.66-48.668-14.747 0-27.954 6.554-36.874 16.907-7.267 8.427-11.694 19.374-11.787 31.354v.814c-.094 21.387-7.707 41-20.334 56.334a89.958 89.958 0 0 1-11.807 11.88 88.99 88.99 0 0 1-37.02 18.423l-1.297 7.481A13.842 13.842 0 0 1 336.241 506h-10.477a13.841 13.841 0 0 1-13.638-11.477l-1.297-7.478a88.82 88.82 0 0 1-27.1-11.24l-6.218 4.38a13.842 13.842 0 0 1-17.759-1.528l-7.409-7.409a13.842 13.842 0 0 1-1.528-17.759l4.38-6.218a88.813 88.813 0 0 1-11.24-27.1l-7.477-1.296A13.841 13.841 0 0 1 225 405.238v-10.476z"/>
</svg>
