<svg xmlns="http://www.w3.org/2000/svg" xml:space="preserve" viewBox="0 0 512 512">
  <path d="m72.836 323.871-20.463-20.464c-20.049-20.049-32.714-46.622-35.659-74.823a8.38 8.38 0 0 0-16.668 1.742c3.344 32.01 17.72 62.173 40.478 84.931l20.463 20.463a8.355 8.355 0 0 0 5.925 2.455 8.35 8.35 0 0 0 5.925-2.455 8.378 8.378 0 0 0-.001-11.849zm270.865-127.903a8.38 8.38 0 0 0-11.851.002l-35.628 35.642a8.38 8.38 0 0 0 5.927 14.303 8.356 8.356 0 0 0 5.926-2.456l35.628-35.642a8.378 8.378 0 0 0-.002-11.849zm25.086 34.847c-3.275-3.274-8.581-3.272-11.85.001l-58.121 58.134a8.379 8.379 0 1 0 11.851 11.848l58.121-58.134a8.376 8.376 0 0 0-.001-11.849z"/>
  <path d="M504.491 165.691c-4.601-.486-8.725 2.86-9.204 7.463-2.948 28.202-15.612 54.775-35.662 74.824L357.566 350.036a12.72 12.72 0 0 1-9.055 3.751 12.72 12.72 0 0 1-9.055-3.752 12.72 12.72 0 0 1-3.751-9.055c0-3.421 1.332-6.637 3.751-9.055.016-.016.028-.032.042-.047l65.523-65.523a8.38 8.38 0 0 0-11.851-11.85l-77.064 77.064a29.395 29.395 0 0 0-6.99-11.118L270.1 281.436l20.098-20.098a8.38 8.38 0 0 0-11.851-11.85l-20.097 20.097-64.165-64.164c-.163-.163-.5-.5-.23-1.155.27-.654.749-.655.978-.655l35.989-.057c17.219-.027 31.206-14.058 31.178-31.278-.027-17.199-14.033-31.178-31.227-31.178h-.03l-140.204.132a8.38 8.38 0 0 0 .007 16.759h.008l140.204-.132h.013c7.966 0 14.456 6.478 14.47 14.446.012 7.978-6.469 14.48-14.446 14.492l-35.988.057a17.768 17.768 0 0 0-16.44 11.013 17.769 17.769 0 0 0 3.868 19.407l115.03 115.03c4.98 4.98 4.991 13.07.041 18.067l-.044.044c-.008.008-.013.016-.021.023a12.723 12.723 0 0 1-9.033 3.731 12.72 12.72 0 0 1-9.055-3.751l-99.01-99.01a8.38 8.38 0 0 0-11.85 11.85l117.875 117.876c4.994 4.993 4.994 13.119 0 18.112-2.419 2.419-5.634 3.751-9.055 3.751s-6.637-1.332-9.055-3.751l-113-113.001a8.38 8.38 0 0 0-11.85 11.85l89.642 89.642c4.99 4.994 4.989 13.117-.004 18.108-4.994 4.993-13.119 4.993-18.112 0l-95.909-95.909a8.38 8.38 0 0 0-11.85 11.85l65.571 65.572c4.992 4.994 4.991 13.118-.001 18.11-2.419 2.419-5.635 3.751-9.056 3.751s-6.638-1.332-9.057-3.751L93.869 344.9a8.38 8.38 0 0 0-11.85 11.85l60.564 60.564c5.584 5.585 13.009 8.66 20.906 8.66 7.897 0 15.322-3.075 20.906-8.66a29.377 29.377 0 0 0 6.991-11.12l11.498 11.498c5.764 5.764 13.336 8.645 20.906 8.645 7.571 0 15.142-2.883 20.906-8.645a29.389 29.389 0 0 0 6.991-11.121l4.52 4.52c5.584 5.584 13.009 8.659 20.906 8.659 7.898 0 15.323-3.075 20.907-8.66 11.527-11.528 11.527-30.285 0-41.812l-.015-.015a29.442 29.442 0 0 0 11.111-7.002l.084-.088 11.402-11.402a29.444 29.444 0 0 0 7.003 11.113c5.584 5.585 13.009 8.66 20.906 8.66 7.898 0 15.323-3.075 20.907-8.66l102.059-102.058c22.757-22.757 37.132-52.92 40.477-84.931a8.379 8.379 0 0 0-7.463-9.204z"/>
  <path d="M449.848 183.017a8.38 8.38 0 0 0-10.835-4.799c-12.948 4.997-26.906 6.003-40.371 2.914a8.38 8.38 0 0 0-3.751 16.333 85.714 85.714 0 0 0 19.201 2.183c10.507 0 20.976-1.943 30.956-5.796a8.38 8.38 0 0 0 4.8-10.835zm-28.389-97.221-140.484-.133h-.028c-17.04 0-30.921 13.856-30.948 30.896l-.001.563c-.013 8.266 3.193 16.043 9.03 21.897 5.835 5.858 13.602 9.089 21.869 9.101l38.82.061-76.923 76.923a8.38 8.38 0 0 0 11.85 11.85l82.793-82.793c7.287 12.988 17.743 23.762 30.751 31.53a8.376 8.376 0 0 0 11.491-2.897 8.381 8.381 0 0 0-2.898-11.491c-13.377-7.988-23.421-19.915-29.046-34.489-.006-.016-.017-.028-.022-.044-1.221-3.107-4.24-5.313-7.782-5.318l-59.008-.093a14.099 14.099 0 0 1-10.027-4.172 14.094 14.094 0 0 1-4.139-10.036l.001-.563c.012-7.814 6.376-14.167 14.189-14.167h.013l140.484.133h.008a8.38 8.38 0 0 0 .007-16.758z"/>
</svg>
