<svg xmlns="http://www.w3.org/2000/svg">
<defs>

  <symbol id="SQL"  viewBox="0 0 800 800">
  <circle cx="400" cy="400" r="397.5" class="st0"/>
  <path fill="#ffffff" d="M400.137 492.022c-14.675 0-23.144 14.404-23.144 32.183-.146 18.07 8.607 31.906 23.008 31.906 14.536 0 23.007-13.694 23.007-32.322 0-17.363-8.187-31.767-22.87-31.767z"/>
  <path fill="#ffffff" d="M545.023 295.854c-.024-1.834-.606-3.646-1.865-5.078l-77.128-88.094c-.014-.025-.045-.033-.061-.055a7.821 7.821 0 0 0-1.555-1.31c-.168-.109-.345-.206-.521-.306a8.039 8.039 0 0 0-1.547-.648c-.139-.042-.276-.102-.421-.139a7.644 7.644 0 0 0-1.793-.224H270.589c-8.648 0-15.687 7.04-15.687 15.687v368.626c0 8.651 7.04 15.687 15.686 15.687h258.823c8.647 0 15.687-7.036 15.687-15.687v-287.58c0-.295-.047-.583-.077-.879zM307.03 573.05c-10.874 0-21.599-2.827-26.96-5.796l4.373-17.78c5.783 2.964 14.681 5.929 23.851 5.929 9.886 0 15.106-4.099 15.106-10.31 0-5.933-4.51-9.313-15.946-13.404-15.807-5.507-26.115-14.265-26.115-28.094 0-16.235 13.556-28.658 35.998-28.658 10.73 0 18.635 2.26 24.278 4.803l-4.803 17.36c-3.808-1.832-10.585-4.51-19.899-4.51-9.321 0-13.83 4.23-13.83 9.173 0 6.07 5.359 8.751 17.638 13.409 16.796 6.211 24.71 14.966 24.71 28.377-.005 15.943-12.29 29.5-38.4 29.5zm134.245 14.954c-13.55-3.952-24.84-8.042-37.546-13.412-2.115-.842-4.373-1.267-6.634-1.405-21.453-1.406-41.496-17.222-41.496-48.28 0-28.512 18.067-49.97 46.436-49.97 29.083 0 45.03 22.02 45.03 47.993 0 21.6-10.019 36.845-22.588 42.486v.57c7.345 2.123 15.533 3.815 23.009 5.359zm79.342-16.368H461.19v-95.14h21.6v77.068h37.83ZM270.588 466.34V215.687H452.29v80.257a7.843 7.843 0 0 0 7.843 7.844h69.278l.008 162.552z"/>
  <path fill="#ffffff" d="M452.352 324.306c.345-.95.59-1.922.59-2.95 0-12.626-27.283-19.437-52.959-19.437-25.65 0-52.926 6.811-52.926 19.438 0 1.028.24 2.004.588 2.958l-.136.243c-1.173 2.13-1.753 4.277-1.753 6.392v15.622c0 2.406.756 4.715 2.098 6.899l-.176.297c-1.279 2.22-1.922 4.467-1.922 6.687v15.62c0 2.33.714 4.565 1.984 6.686l-.062.098c-1.279 2.216-1.922 4.468-1.922 6.683v15.62c0 13.888 23.82 24.76 54.228 24.76 30.44 0 54.26-10.872 54.26-24.76v-15.62c0-2.22-.643-4.475-1.938-6.687l-.053-.086c1.26-2.126 1.991-4.36 1.991-6.694v-15.62c0-2.222-.643-4.48-1.938-6.693l-.168-.288c1.34-2.187 2.106-4.492 2.106-6.906v-15.622c0-2.114-.59-4.268-1.753-6.398zm-3.92 80.856c0 8.97-19.885 18.95-48.448 18.95-28.537-.001-48.424-9.98-48.424-18.95V390.47c8.905 8.156 27.227 13.359 48.424 13.359 21.225 0 39.546-5.206 48.447-13.367zm0-29.088c0 8.961-19.885 18.949-48.448 18.949-28.537 0-48.424-9.988-48.424-18.95V361.38c8.905 8.153 27.227 13.36 48.424 13.36 21.225 0 39.546-5.207 48.447-13.368zm0-29.506c0 8.961-19.885 18.949-48.448 18.949-28.537 0-48.424-9.984-48.424-18.95V333.57c8.703 7.375 28.883 11.2 48.424 11.2 19.567 0 39.738-3.825 48.447-11.2z"/>
  </symbol>

  <symbol id="backEnd"  viewBox="0 0 800 800">
    <circle cx="400" cy="400" r="397.5" class="st0"/>
    <path fill="#ffffff" d="M200 200v400h400V200Z" class="st1"/>
    <path d="M225 394.762a13.841 13.841 0 0 1 11.477-13.639l7.477-1.296a88.795 88.795 0 0 1 11.24-27.1l-4.38-6.218a13.842 13.842 0 0 1 1.529-17.759l7.408-7.408a13.842 13.842 0 0 1 17.76-1.53l6.217 4.38a88.802 88.802 0 0 1 27.1-11.239l1.297-7.477a13.842 13.842 0 0 1 13.638-11.477h10.478a13.841 13.841 0 0 1 13.638 11.477l1.297 7.481a88.998 88.998 0 0 1 37.02 18.423l-1.053 1.28a105.699 105.699 0 0 0-19.26 35.58c-8.927-10.353-22.134-16.907-36.881-16.907-26.874 0-48.668 21.787-48.668 48.668 0 26.874 21.794 48.668 48.668 48.668 14.747 0 27.954-6.554 36.88-16.907 7.26-8.434 11.688-19.38 11.78-31.354v-.814c.094-21.387 7.708-41 20.341-56.334a89.955 89.955 0 0 1 11.8-11.887 89.043 89.043 0 0 1 37.02-18.416l1.298-7.482a13.842 13.842 0 0 1 13.638-11.477h10.478a13.841 13.841 0 0 1 13.638 11.477l1.297 7.478a88.802 88.802 0 0 1 27.1 11.24l6.218-4.38a13.842 13.842 0 0 1 17.759 1.528l7.408 7.409a13.842 13.842 0 0 1 1.529 17.759l-4.38 6.216a88.802 88.802 0 0 1 11.24 27.1l7.477 1.298A13.841 13.841 0 0 1 575 394.76v10.477a13.841 13.841 0 0 1-11.477 13.639l-7.478 1.296a88.813 88.813 0 0 1-11.24 27.1l4.38 6.218a13.842 13.842 0 0 1-1.528 17.759l-7.408 7.409a13.842 13.842 0 0 1-17.76 1.528l-6.217-4.38a88.82 88.82 0 0 1-27.1 11.24l-1.296 7.478a13.842 13.842 0 0 1-13.639 11.477H463.76a13.841 13.841 0 0 1-13.638-11.477l-1.298-7.482a89.031 89.031 0 0 1-37.02-18.416l1.067-1.293c8.687-10.547 15.194-22.66 19.254-35.574 8.92 10.353 22.127 16.907 36.874 16.907 26.873 0 48.66-21.794 48.66-48.668 0-26.88-21.787-48.668-48.66-48.668-14.747 0-27.954 6.554-36.874 16.907-7.267 8.427-11.694 19.374-11.787 31.354v.814c-.094 21.387-7.707 41-20.334 56.334a89.958 89.958 0 0 1-11.807 11.88 88.99 88.99 0 0 1-37.02 18.423l-1.297 7.481A13.842 13.842 0 0 1 336.241 506h-10.477a13.841 13.841 0 0 1-13.638-11.477l-1.297-7.478a88.82 88.82 0 0 1-27.1-11.24l-6.218 4.38a13.842 13.842 0 0 1-17.759-1.528l-7.409-7.409a13.842 13.842 0 0 1-1.528-17.759l4.38-6.218a88.813 88.813 0 0 1-11.24-27.1l-7.477-1.296A13.841 13.841 0 0 1 225 405.238v-10.476z"/>
  </symbol>
  
  <symbol id="github"  viewBox="0 0 800 800">
    <path d="M400 0c220.92 0 400 183.6 400 410.12 0 181.16-114.48 334.84-273.32 389.12-20.28 4.04-27.48-8.76-27.48-19.68 0-13.52.48-57.68.48-112.56 0-38.24-12.8-63.2-27.16-75.92 89.08-10.16 182.68-44.84 182.68-202.36 0-44.8-15.52-81.36-41.2-110.08 4.16-10.36 17.88-52.08-3.92-108.56 0 0-33.52-11-109.88 42.04a375.84 375.84 0 0 0-100.2-13.8 375 375 0 0 0-100.12 13.8c-76.44-53.04-110.04-42.04-110.04-42.04-21.72 56.48-8 98.2-3.88 108.56-25.56 28.72-41.2 65.28-41.2 110.08 0 157.12 93.4 192.32 182.24 202.68-11.44 10.24-21.8 28.32-25.4 54.84-22.8 10.48-80.72 28.6-116.4-34.08 0 0-21.16-39.4-61.32-42.28 0 0-39-.52-2.72 24.92 0 0 26.2 12.6 44.4 60 0 0 23.48 73.2 134.76 48.4.2 34.28.56 66.6.56 76.36 0 10.84-7.36 23.52-27.32 19.72C114.6 745.08 0 591.32 0 410.12 0 183.6 179.12 0 400 0"/>
  </symbol>

  <symbol id="handshake"  viewBox="0 0 800 800">
    <path d="m72.836 323.871-20.463-20.464c-20.049-20.049-32.714-46.622-35.659-74.823a8.38 8.38 0 0 0-16.668 1.742c3.344 32.01 17.72 62.173 40.478 84.931l20.463 20.463a8.355 8.355 0 0 0 5.925 2.455 8.35 8.35 0 0 0 5.925-2.455 8.378 8.378 0 0 0-.001-11.849zm270.865-127.903a8.38 8.38 0 0 0-11.851.002l-35.628 35.642a8.38 8.38 0 0 0 5.927 14.303 8.356 8.356 0 0 0 5.926-2.456l35.628-35.642a8.378 8.378 0 0 0-.002-11.849zm25.086 34.847c-3.275-3.274-8.581-3.272-11.85.001l-58.121 58.134a8.379 8.379 0 1 0 11.851 11.848l58.121-58.134a8.376 8.376 0 0 0-.001-11.849z"/>
    <path d="M504.491 165.691c-4.601-.486-8.725 2.86-9.204 7.463-2.948 28.202-15.612 54.775-35.662 74.824L357.566 350.036a12.72 12.72 0 0 1-9.055 3.751 12.72 12.72 0 0 1-9.055-3.752 12.72 12.72 0 0 1-3.751-9.055c0-3.421 1.332-6.637 3.751-9.055.016-.016.028-.032.042-.047l65.523-65.523a8.38 8.38 0 0 0-11.851-11.85l-77.064 77.064a29.395 29.395 0 0 0-6.99-11.118L270.1 281.436l20.098-20.098a8.38 8.38 0 0 0-11.851-11.85l-20.097 20.097-64.165-64.164c-.163-.163-.5-.5-.23-1.155.27-.654.749-.655.978-.655l35.989-.057c17.219-.027 31.206-14.058 31.178-31.278-.027-17.199-14.033-31.178-31.227-31.178h-.03l-140.204.132a8.38 8.38 0 0 0 .007 16.759h.008l140.204-.132h.013c7.966 0 14.456 6.478 14.47 14.446.012 7.978-6.469 14.48-14.446 14.492l-35.988.057a17.768 17.768 0 0 0-16.44 11.013 17.769 17.769 0 0 0 3.868 19.407l115.03 115.03c4.98 4.98 4.991 13.07.041 18.067l-.044.044c-.008.008-.013.016-.021.023a12.723 12.723 0 0 1-9.033 3.731 12.72 12.72 0 0 1-9.055-3.751l-99.01-99.01a8.38 8.38 0 0 0-11.85 11.85l117.875 117.876c4.994 4.993 4.994 13.119 0 18.112-2.419 2.419-5.634 3.751-9.055 3.751s-6.637-1.332-9.055-3.751l-113-113.001a8.38 8.38 0 0 0-11.85 11.85l89.642 89.642c4.99 4.994 4.989 13.117-.004 18.108-4.994 4.993-13.119 4.993-18.112 0l-95.909-95.909a8.38 8.38 0 0 0-11.85 11.85l65.571 65.572c4.992 4.994 4.991 13.118-.001 18.11-2.419 2.419-5.635 3.751-9.056 3.751s-6.638-1.332-9.057-3.751L93.869 344.9a8.38 8.38 0 0 0-11.85 11.85l60.564 60.564c5.584 5.585 13.009 8.66 20.906 8.66 7.897 0 15.322-3.075 20.906-8.66a29.377 29.377 0 0 0 6.991-11.12l11.498 11.498c5.764 5.764 13.336 8.645 20.906 8.645 7.571 0 15.142-2.883 20.906-8.645a29.389 29.389 0 0 0 6.991-11.121l4.52 4.52c5.584 5.584 13.009 8.659 20.906 8.659 7.898 0 15.323-3.075 20.907-8.66 11.527-11.528 11.527-30.285 0-41.812l-.015-.015a29.442 29.442 0 0 0 11.111-7.002l.084-.088 11.402-11.402a29.444 29.444 0 0 0 7.003 11.113c5.584 5.585 13.009 8.66 20.906 8.66 7.898 0 15.323-3.075 20.907-8.66l102.059-102.058c22.757-22.757 37.132-52.92 40.477-84.931a8.379 8.379 0 0 0-7.463-9.204z"/>
    <path d="M449.848 183.017a8.38 8.38 0 0 0-10.835-4.799c-12.948 4.997-26.906 6.003-40.371 2.914a8.38 8.38 0 0 0-3.751 16.333 85.714 85.714 0 0 0 19.201 2.183c10.507 0 20.976-1.943 30.956-5.796a8.38 8.38 0 0 0 4.8-10.835zm-28.389-97.221-140.484-.133h-.028c-17.04 0-30.921 13.856-30.948 30.896l-.001.563c-.013 8.266 3.193 16.043 9.03 21.897 5.835 5.858 13.602 9.089 21.869 9.101l38.82.061-76.923 76.923a8.38 8.38 0 0 0 11.85 11.85l82.793-82.793c7.287 12.988 17.743 23.762 30.751 31.53a8.376 8.376 0 0 0 11.491-2.897 8.381 8.381 0 0 0-2.898-11.491c-13.377-7.988-23.421-19.915-29.046-34.489-.006-.016-.017-.028-.022-.044-1.221-3.107-4.24-5.313-7.782-5.318l-59.008-.093a14.099 14.099 0 0 1-10.027-4.172 14.094 14.094 0 0 1-4.139-10.036l.001-.563c.012-7.814 6.376-14.167 14.189-14.167h.013l140.484.133h.008a8.38 8.38 0 0 0 .007-16.758z"/>
  </symbol>

  <symbol id="JS"  viewBox="0 0 800 800">
    <circle cx="400" cy="400" r="397.5" class="st0"/>
    <path fill="#ffffff" d="M200 200v400h400V200Zm217.632 311.897c0 38.916-22.825 56.605-56.148 56.605-30.015 0-47.475-15.52-56.377-34.35l30.585-18.489c5.934 10.5 11.298 19.287 24.194 19.287 12.325 0 20.085-4.793 20.085-23.623V383.509h37.547v128.388zm88.902 56.72c-34.922 0-57.404-16.663-68.474-38.346l30.585-17.689c8.102 13.124 18.488 22.825 37.09 22.825 15.52 0 25.449-7.76 25.449-18.488 0-12.896-10.157-17.461-27.39-24.993l-9.357-3.994c-27.162-11.527-45.079-26.02-45.079-56.605 0-28.189 21.455-49.644 55.007-49.644 23.852 0 41.084 8.331 53.41 30.129l-29.216 18.83c-6.505-11.869-13.466-16.434-24.194-16.434-10.956 0-18.031 6.962-18.031 16.092 0 11.298 6.961 15.863 23.053 22.824l9.358 3.994c31.954 13.695 49.985 27.618 49.985 59.116.115 33.78-26.476 52.382-62.196 52.382z" class="st1"/>
  </symbol>

  <symbol id="linkedin"  viewBox="0 0 800 800">
    <path d="M400 0A400 400 0 0 0 0 400a400 400 0 0 0 400 400 400 400 0 0 0 400-400A400 400 0 0 0 400 0zM247.46 160c29.08 0 47.46 19.56 48.04 45.68 0 24.9-18.96 45.06-48.6 45.06-28.52 0-47.48-20.16-46.88-45.06-.6-26.12 18.36-45.68 47.44-45.68zM536.2 279.86c59.3 0 103.8 39.14 103.8 124.52v172.04h-90.16V415.68c0-37.4-13.04-62.88-45.66-62.88-24.92 0-39.74 17.2-45.66 33.8-2.38 5.94-3.56 14.22-3.56 22.54v167.28h-90.14V378.9h-.02c0-36.2-1.2-67.04-2.4-92.54h78.3l4.16 39.74h1.8c11.84-18.4 41.5-46.24 89.54-46.24zm-333.8 6.46h90.14v290.04H202.4V286.32z"/>
  </symbol>

</defs>
</svg>
