<svg xmlns="http://www.w3.org/2000/svg">
<defs>
  <symbol id="cross" viewBox="0 0 20 20">
    <path d="M17.1 5.2l-2.6-2.6-4.6 4.7-4.7-4.7-2.5 2.6 4.7 4.7-4.7 4.7 2.5 2.5 4.7-4.7 4.6 4.7 2.6-2.5-4.7-4.7"/>
  </symbol>

  <symbol id="play" viewBox="0 0 15 15">
    <circle fill="var(--color01)" cx="400" cy="400" r="397.5" class="st0" style="stroke-width:.99375"/>
    <path fill="var(--color01-alt)" d="M7.5,0.5c3.9,0,7,3.1,7,7c0,3.9-3.1,7-7,7c-3.9,0-7-3.1-7-7l0,0C0.5,3.6,3.6,0.5,7.5,0.5 C7.5,0.5,7.5,0.5,7.5,0.5L7.5,0.5L7.5,0.5z M6.1,4.7v5.6l4.2-2.8L6.1,4.7z"/>
  </symbol>
  
<symbol id="SQL" viewBox="0 0 800 800">
  <path fill="var(--color01-alt)" d="M277.412 401.323c-20.081 0-31.67 19.71-31.67 44.04-.2 24.725 11.778 43.66 31.483 43.66 19.892 0 31.484-18.74 31.484-44.23 0-23.76-11.204-43.47-31.297-43.47z"/>
  <path fill="var(--color01-alt)" d="M599.894 256.447c-.032-2.529-.834-5.027-2.57-7l-106.31-121.425c-.02-.035-.062-.046-.084-.076-.634-.708-1.36-1.291-2.143-1.806-.232-.151-.476-.285-.719-.423a11.08 11.08 0 0 0-2.132-.892c-.19-.059-.38-.14-.58-.192a10.536 10.536 0 0 0-2.471-.31H221.623c-11.92 0-21.623 9.704-21.623 21.624v508.106c0 11.925 9.702 21.623 21.622 21.623h356.755c11.92 0 21.623-9.698 21.623-21.623V257.658c-.001-.406-.065-.804-.106-1.211zm-328.04 382.08c-14.99 0-29.772-3.896-37.163-7.988l6.029-24.508c7.97 4.085 20.236 8.172 32.875 8.172 13.627 0 20.82-5.65 20.82-14.211 0-8.177-6.216-12.837-21.978-18.475-21.788-7.59-35.997-19.663-35.997-38.725 0-22.377 18.685-39.501 49.62-39.501 14.79 0 25.685 3.114 33.464 6.62l-6.62 23.928c-5.25-2.525-14.59-6.214-27.428-6.214-12.848 0-19.064 5.828-19.064 12.642 0 8.367 7.387 12.063 24.313 18.482 23.15 8.562 34.059 20.63 34.059 39.115-.006 21.976-16.94 40.663-52.93 40.663zm185.04 20.613c-18.676-5.447-34.238-11.085-51.753-18.487-2.914-1.16-6.028-1.746-9.143-1.937-29.572-1.938-57.198-23.739-57.198-66.549 0-39.3 24.903-68.876 64.006-68.876 40.087 0 62.068 30.352 62.068 66.153 0 29.771-13.81 50.785-31.135 58.562v.785c10.125 2.926 21.412 5.259 31.716 7.386zm109.364-22.561h-81.916V505.44h29.772v106.23h52.144zM221.622 491.44V145.945h250.452v110.626c0 5.967 4.836 10.811 10.81 10.811h95.492l.012 224.059z" style="stroke-width:1.0073"/>
  <path fill="var(--color01-alt)" d="M333.747 171.822c.472-1.3.807-2.63.807-4.037 0-17.278-37.333-26.598-72.468-26.598-35.1 0-72.424 9.32-72.424 26.598 0 1.407.328 2.743.805 4.048l-.186.333c-1.606 2.914-2.4 5.853-2.4 8.746v21.378c0 3.292 1.035 6.452 2.872 9.44l-.241.407c-1.75 3.037-2.63 6.113-2.63 9.15v21.374c0 3.188.976 6.247 2.714 9.15l-.084.134c-1.75 3.032-2.63 6.114-2.63 9.145v21.375c0 19.003 32.596 33.88 74.205 33.88 41.654 0 74.25-14.877 74.25-33.88V261.09c0-3.037-.88-6.124-2.653-9.15l-.072-.118c1.723-2.909 2.725-5.967 2.725-9.16v-21.374c0-3.042-.88-6.129-2.653-9.16l-.23-.394c1.835-2.992 2.883-6.147 2.883-9.449v-21.378c0-2.893-.807-5.84-2.4-8.755zm-5.365 110.642c0 12.274-27.21 25.93-66.295 25.93-39.05 0-66.263-13.656-66.263-25.93V262.36c12.186 11.161 37.257 18.28 66.263 18.28 29.045 0 54.115-7.124 66.295-18.291zm0-39.804c0 12.263-27.21 25.93-66.295 25.93-39.05 0-66.263-13.667-66.263-25.93v-20.107c12.186 11.157 37.257 18.283 66.263 18.283 29.045 0 54.115-7.127 66.295-18.294zm0-40.376c0 12.263-27.21 25.93-66.295 25.93-39.05 0-66.263-13.662-66.263-25.93v-17.788c11.909 10.093 39.523 15.326 66.263 15.326 26.775 0 54.378-5.233 66.295-15.326z"/>
  <circle fill="var(--color01)" cx="400" cy="400" r="397.5" class="st0" style="stroke-width:.99375"/>
</symbol>


  <symbol id="circle" viewBox="0 0 800 800">
    <circle cx="400" cy="400" r="397.5" class="st0" style="stroke-width:.99375"/>
  </symbol>
</defs>
</svg>
