<svg xmlns="http://www.w3.org/2000/svg">
<defs>
  <symbol id="cross" viewBox="0 0 20 20">
    <path d="M17.1 5.2l-2.6-2.6-4.6 4.7-4.7-4.7-2.5 2.6 4.7 4.7-4.7 4.7 2.5 2.5 4.7-4.7 4.6 4.7 2.6-2.5-4.7-4.7"/>
  </symbol>

  <symbol id="play" viewBox="0 0 15 15">
    <circle fill="var(--color01)" cx="400" cy="400" r="397.5" class="st0" style="stroke-width:.99375"/>
    <path fill="var(--color01-alt)" d="M7.5,0.5c3.9,0,7,3.1,7,7c0,3.9-3.1,7-7,7c-3.9,0-7-3.1-7-7l0,0C0.5,3.6,3.6,0.5,7.5,0.5 C7.5,0.5,7.5,0.5,7.5,0.5L7.5,0.5L7.5,0.5z M6.1,4.7v5.6l4.2-2.8L6.1,4.7z"/>
  </symbol>
  
<symbol id="SQL"  viewBox="0 0 800 800">
  <circle cx="400" cy="400" r="397.5"/>
  <path fill="#ffffff" d="M400.188 525.922c-20.081 0-31.67 19.71-31.67 44.04-.2 24.725 11.778 43.66 31.483 43.66 19.892 0 31.484-18.74 31.484-44.23 0-23.76-11.204-43.47-31.297-43.47z"/>
  <path fill="#ffffff" d="M598.447 257.487c-.032-2.51-.828-4.99-2.552-6.95L490.354 129.99c-.02-.034-.062-.045-.084-.075-.629-.702-1.35-1.281-2.128-1.792-.23-.15-.472-.283-.713-.42a11 11 0 0 0-2.117-.886c-.189-.058-.377-.14-.576-.19a10.46 10.46 0 0 0-2.453-.307h-259.37c-11.834 0-21.466 9.633-21.466 21.466v504.427c0 11.838 9.632 21.466 21.465 21.466h354.172c11.833 0 21.466-9.628 21.466-21.466V258.689c0-.403-.064-.798-.105-1.202zM272.78 636.8c-14.88 0-29.556-3.868-36.893-7.93l5.985-24.331c7.914 4.056 20.09 8.113 32.638 8.113 13.527 0 20.67-5.608 20.67-14.108 0-8.118-6.172-12.744-21.82-18.341-21.63-7.536-35.736-19.521-35.736-38.445 0-22.215 18.55-39.215 49.26-39.215 14.683 0 25.5 3.092 33.222 6.572l-6.573 23.755c-5.21-2.506-14.484-6.17-27.229-6.17-12.755 0-18.926 5.787-18.926 12.552 0 8.306 7.334 11.975 24.137 18.348 22.983 8.5 33.812 20.48 33.812 38.832-.005 21.816-16.816 40.368-52.546 40.368zm183.7 20.464c-18.54-5.408-33.99-11.005-51.378-18.353-2.893-1.152-5.984-1.734-9.077-1.923-29.357-1.924-56.783-23.567-56.783-66.067 0-39.015 24.722-68.378 63.542-68.378 39.797 0 61.62 30.133 61.62 65.674 0 29.556-13.71 50.418-30.91 58.138v.78c10.051 2.904 21.256 5.22 31.485 7.332zm108.572-22.398h-81.322v-130.19h29.556v105.46h51.766zm-342.14-144.087V147.786h248.64V257.61c0 5.924 4.8 10.733 10.732 10.733h94.8l.011 222.436z"/>
  <path fill="#ffffff" d="M471.638 296.42c.472-1.3.807-2.63.807-4.036 0-17.278-37.333-26.598-72.468-26.598-35.1 0-72.424 9.32-72.424 26.598 0 1.407.328 2.743.805 4.048l-.186.333c-1.606 2.914-2.4 5.853-2.4 8.746v21.378c0 3.292 1.035 6.452 2.872 9.44l-.241.407c-1.75 3.037-2.63 6.113-2.63 9.15v21.374c0 3.188.976 6.247 2.714 9.15l-.084.134c-1.75 3.032-2.63 6.114-2.63 9.145v21.375c0 19.003 32.596 33.88 74.205 33.88 41.654 0 74.25-14.877 74.25-33.88v-21.375c0-3.037-.88-6.124-2.653-9.15l-.072-.118c1.723-2.91 2.725-5.967 2.725-9.16v-21.374c0-3.042-.88-6.13-2.653-9.16l-.23-.394c1.835-2.992 2.883-6.147 2.883-9.45v-21.377c0-2.893-.807-5.84-2.4-8.755zm-5.365 110.643c0 12.274-27.21 25.93-66.295 25.93-39.05 0-66.263-13.656-66.263-25.93v-20.104c12.186 11.16 37.257 18.28 66.263 18.28 29.045 0 54.115-7.124 66.295-18.291zm0-39.804c0 12.263-27.21 25.93-66.295 25.93-39.05 0-66.263-13.667-66.263-25.93v-20.107c12.186 11.157 37.257 18.283 66.263 18.283 29.045 0 54.115-7.127 66.295-18.294zm0-40.376c0 12.263-27.21 25.93-66.295 25.93-39.05 0-66.263-13.662-66.263-25.93v-17.788c11.909 10.093 39.523 15.326 66.263 15.326 26.775 0 54.378-5.233 66.295-15.326z"/>
</symbol>


  <symbol id="circle" viewBox="0 0 800 800">
    <linearGradient x1="0" y1="0" x2="100%" y2="100%" id="gradient">
      <stop class="gradient-svg-second" offset="0"/>
      <stop class="gradient-svg" offset="100%"/>
    </linearGradient>
    <circle fill="url(#gradient)" cx="400" cy="400" r="397.5" class="st0" style="fill:#000;stroke-width:.99375"/>
  </symbol>
</defs>
</svg>
