<svg xmlns="http://www.w3.org/2000/svg" xml:space="preserve" viewBox="0 0 800 800">
  <circle cx="400" cy="400" r="397.5" class="st0"/>
  <path fill="#f9f9f7" d="M200 200v400h400V200Zm217.632 311.897c0 38.916-22.825 56.605-56.148 56.605-30.015 0-47.475-15.52-56.377-34.35l30.585-18.489c5.934 10.5 11.298 19.287 24.194 19.287 12.325 0 20.085-4.793 20.085-23.623V383.509h37.547v128.388zm88.902 56.72c-34.922 0-57.404-16.663-68.474-38.346l30.585-17.689c8.102 13.124 18.488 22.825 37.09 22.825 15.52 0 25.449-7.76 25.449-18.488 0-12.896-10.157-17.461-27.39-24.993l-9.357-3.994c-27.162-11.527-45.079-26.02-45.079-56.605 0-28.189 21.455-49.644 55.007-49.644 23.852 0 41.084 8.331 53.41 30.129l-29.216 18.83c-6.505-11.869-13.466-16.434-24.194-16.434-10.956 0-18.031 6.962-18.031 16.092 0 11.298 6.961 15.863 23.053 22.824l9.358 3.994c31.954 13.695 49.985 27.618 49.985 59.116.115 33.78-26.476 52.382-62.196 52.382z" class="st1"/>
</svg>
