<svg xmlns="http://www.w3.org/2000/svg" xml:space="preserve" viewBox="0 0 800 800">
  <circle cx="400" cy="400" r="397.5" class="st0" style="fill:#000;stroke-width:.99375"/>
  <path fill="#ffffff" d="M400.137 418.342c-14.675 0-23.144 14.404-23.144 32.183-.146 18.07 8.607 31.906 23.008 31.906 14.536 0 23.007-13.694 23.007-32.322 0-17.363-8.187-31.767-22.87-31.767z" style="stroke-width:.730782" transform="translate(0 73.68)"/>
  <path fill="#ffffff" d="M545.023 222.174c-.024-1.834-.606-3.646-1.865-5.078l-77.128-88.094c-.014-.025-.045-.033-.061-.055a7.821 7.821 0 0 0-1.555-1.31c-.168-.109-.345-.206-.521-.306a8.039 8.039 0 0 0-1.547-.648c-.139-.042-.276-.102-.421-.139a7.644 7.644 0 0 0-1.793-.224H270.589c-8.648 0-15.687 7.04-15.687 15.687v368.626c0 8.651 7.04 15.687 15.686 15.687h258.823c8.647 0 15.687-7.036 15.687-15.687v-287.58c0-.295-.047-.583-.077-.879zM307.03 499.37c-10.874 0-21.599-2.827-26.96-5.796l4.373-17.78c5.783 2.964 14.681 5.929 23.851 5.929 9.886 0 15.106-4.099 15.106-10.31 0-5.933-4.51-9.313-15.946-13.404-15.807-5.507-26.115-14.265-26.115-28.094 0-16.235 13.556-28.658 35.998-28.658 10.73 0 18.635 2.26 24.278 4.803l-4.803 17.36c-3.808-1.832-10.585-4.51-19.899-4.51-9.321 0-13.83 4.23-13.83 9.173 0 6.07 5.359 8.751 17.638 13.409 16.796 6.211 24.71 14.966 24.71 28.377-.005 15.943-12.29 29.5-38.4 29.5zm134.245 14.954c-13.55-3.952-24.84-8.042-37.546-13.412-2.115-.842-4.373-1.267-6.634-1.405-21.453-1.406-41.496-17.222-41.496-48.28 0-28.512 18.067-49.97 46.436-49.97 29.083 0 45.03 22.02 45.03 47.993 0 21.6-10.019 36.845-22.588 42.486v.57c7.345 2.123 15.533 3.815 23.009 5.359zm79.342-16.368H461.19v-95.14h21.6v77.068h37.83ZM270.588 392.66V142.007H452.29v80.257a7.843 7.843 0 0 0 7.843 7.844h69.278l.008 162.552z" style="stroke-width:.730782" transform="translate(0 73.68)"/>
  <path fill="#ffffff" d="M452.352 250.626c.345-.95.59-1.922.59-2.95 0-12.626-27.283-19.437-52.959-19.437-25.65 0-52.926 6.811-52.926 19.438 0 1.028.24 2.004.588 2.958l-.136.243c-1.173 2.13-1.753 4.277-1.753 6.392v15.622c0 2.406.756 4.715 2.098 6.899l-.176.297c-1.279 2.22-1.922 4.467-1.922 6.687v15.62c0 2.33.714 4.565 1.984 6.686l-.062.098c-1.279 2.216-1.922 4.468-1.922 6.683v15.62c0 13.888 23.82 24.76 54.228 24.76 30.44 0 54.26-10.872 54.26-24.76v-15.62c0-2.22-.643-4.475-1.938-6.687l-.053-.086c1.26-2.126 1.991-4.36 1.991-6.694v-15.62c0-2.222-.643-4.48-1.938-6.693l-.168-.288c1.34-2.187 2.106-4.492 2.106-6.906v-15.622c0-2.114-.59-4.268-1.753-6.398zm-3.92 80.856c0 8.97-19.885 18.949-48.448 18.949-28.537 0-48.424-9.98-48.424-18.95v-14.69c8.905 8.155 27.227 13.358 48.424 13.358 21.225 0 39.546-5.206 48.447-13.367zm0-29.088c0 8.961-19.885 18.949-48.448 18.949-28.537 0-48.424-9.988-48.424-18.95V287.7c8.905 8.153 27.227 13.36 48.424 13.36 21.225 0 39.546-5.207 48.447-13.368zm0-29.506c0 8.961-19.885 18.949-48.448 18.949-28.537 0-48.424-9.984-48.424-18.95V259.89c8.703 7.375 28.883 11.2 48.424 11.2 19.567 0 39.738-3.825 48.447-11.2z" style="stroke-width:.730782" transform="translate(0 73.68)"/>
</svg>
