<?xml version="1.0" encoding="utf-8"?>
<!-- Generator: Adobe Illustrator 24.1.2, SVG Export Plug-In . SVG Version: 6.00 Build 0)  -->
<svg version="1.1" id="Layer_1" xmlns="http://www.w3.org/2000/svg" xmlns:xlink="http://www.w3.org/1999/xlink" x="0px" y="0px"
	 viewBox="0 0 800 800" style="enable-background:new 0 0 800 800;" xml:space="preserve">
<style type="text/css">
	.st0{fill:#AE2012;}
</style>
<path class="st0" d="M379.3,5.1c11.7-6.8,26.1-6.8,37.8,0l310.7,181.3c11.5,6.7,18.6,19.1,18.6,32.4v362.5
	c0,13.3-7.1,25.7-18.6,32.4L417.1,794.9c-11.7,6.8-26.1,6.8-37.8,0L68.6,613.6C57.1,606.9,50,594.6,50,581.3V218.8
	c0-13.3,7.1-25.7,18.6-32.4L379.3,5.1z M398.2,719.1l273.2-159.4V240.3L398.2,80.9L125,240.3v319.4L398.2,719.1z"/>
<path class="st0" d="M400,275c-69,0-125,56-125,125c0,69,56,125,125,125c35.6,0,67.7-14.8,90.5-38.8c14.3-15,38-15.6,53-1.3
	c15,14.3,15.6,38,1.3,53c-36.4,38.2-87.8,62-144.8,62c-110.5,0-200-89.5-200-200s89.5-200,200-200c56.7,0,108,23.7,144.3,61.5
	c14.3,14.9,13.9,38.7-1.1,53c-14.9,14.3-38.7,13.9-53-1.1C467.4,289.7,435.5,275,400,275z"/>
</svg>
