<?xml version="1.0" encoding="utf-8"?>
<!-- Generator: Adobe Illustrator 24.1.2, SVG Export Plug-In . SVG Version: 6.00 Build 0)  -->
<svg version="1.1" id="Layer_1" xmlns="http://www.w3.org/2000/svg" xmlns:xlink="http://www.w3.org/1999/xlink" x="0px" y="0px"
	 viewBox="0 0 800 800" style="enable-background:new 0 0 800 800;" xml:space="preserve">
<style type="text/css">
	.st0{fill:#AE2012;}
</style>
<path class="st0" d="M350,275c-69,0-125,56-125,125c0,69,56,125,125,125c35.6,0,67.7-14.8,90.5-38.8c14.3-15,38-15.6,53-1.3
	c15,14.3,15.6,38,1.3,53c-36.4,38.2-87.8,62-144.8,62c-110.5,0-200-89.5-200-200s89.5-200,200-200c56.7,0,108,23.7,144.3,61.5
	c14.3,14.9,13.9,38.7-1.1,53c-14.9,14.3-38.7,13.9-53-1.1C417.4,289.7,385.5,275,350,275z"/>
<path class="st0" d="M329.3,5.1c11.7-6.8,26.1-6.8,37.8,0l235.7,137.5c17.9,10.4,23.9,33.4,13.5,51.3s-33.4,23.9-51.3,13.5
	L348.2,80.9L75,240.3v319.4l273.2,159.4L565,592.6c17.9-10.4,40.8-4.4,51.3,13.5c10.4,17.9,4.4,40.9-13.5,51.3L367.1,794.9
	c-11.7,6.8-26.1,6.8-37.8,0L18.6,613.6C7.1,606.9,0,594.6,0,581.3V218.8c0-13.3,7.1-25.7,18.6-32.4L329.3,5.1z"/>
<path class="st0" d="M609,262.5c13.8,0,25,11.2,25,25v225c0,13.8-11.2,25-25,25s-25-11.2-25-25v-225
	C584,273.7,595.2,262.5,609,262.5z"/>
<path class="st0" d="M716,262.5c13.8,0,25,11.2,25,25v225c0,13.8-11.2,25-25,25s-25-11.2-25-25v-225
	C691,273.7,702.2,262.5,716,262.5z"/>
<path class="st0" d="M525,346.5c0-13.8,11.2-25,25-25h225c13.8,0,25,11.2,25,25c0,13.8-11.2,25-25,25H550
	C536.2,371.5,525,360.3,525,346.5z"/>
<path class="st0" d="M525,453.5c0-13.8,11.2-25,25-25h225c13.8,0,25,11.2,25,25c0,13.8-11.2,25-25,25H550
	C536.2,478.5,525,467.3,525,453.5z"/>
</svg>
