<?xml version="1.0" encoding="utf-8"?>
<!-- Generator: Adobe Illustrator 24.1.2, SVG Export Plug-In . SVG Version: 6.00 Build 0)  -->
<svg version="1.1" id="Layer_1" xmlns="http://www.w3.org/2000/svg" xmlns:xlink="http://www.w3.org/1999/xlink" x="0px" y="0px"
	 viewBox="0 0 800 800" style="enable-background:new 0 0 800 800;" xml:space="preserve">
<style type="text/css">
	.st0{fill:#AE2012;}
</style>
<path class="st0" d="M0,87.5C0,39.2,39.2,0,87.5,0h625C760.8,0,800,39.2,800,87.5v100c0,20.7-16.8,37.5-37.5,37.5
	S725,208.2,725,187.5v-100c0-6.9-5.6-12.5-12.5-12.5h-625C80.6,75,75,80.6,75,87.5v625c0,6.9,5.6,12.5,12.5,12.5h675
	c20.7,0,37.5,16.8,37.5,37.5S783.2,800,762.5,800h-675C39.2,800,0,760.8,0,712.5V87.5z M412.5,287.5c20.7,0,37.5,16.8,37.5,37.5v200
	c0,50.2-13.8,87.9-42.2,111.6c-27.1,22.6-60.1,25.9-82.8,25.9c-20.7,0-37.5-16.8-37.5-37.5s16.8-37.5,37.5-37.5
	c17.3,0,28.1-3,34.7-8.5c5.3-4.4,15.3-16.7,15.3-54V325C375,304.3,391.8,287.5,412.5,287.5z M563.8,329
	c20.9-24.9,53.8-41.5,98.7-41.5c41.7,0,73.2,14.3,94.5,36.7c14.2,15.1,13.6,38.8-1.5,53s-38.8,13.6-53-1.5
	c-5.5-5.8-16.4-13.3-40-13.3c-25,0-36,8.4-41.3,14.7c-6.5,7.8-8.7,17.6-8.7,22.8s2.2,15,8.7,22.8c5.3,6.3,16.3,14.7,41.3,14.7
	c3.8,0,7.4,0.6,10.9,1.6c33.2,4.7,58.2,19.5,75.3,39.9c19.7,23.5,26.3,51.2,26.3,71s-6.6,47.5-26.3,71
	c-20.9,24.9-53.8,41.5-98.7,41.5c-41.7,0-73.2-14.3-94.5-36.7c-14.2-15-13.6-38.8,1.5-53c15-14.2,38.8-13.6,53,1.5
	c5.5,5.8,16.4,13.3,40,13.3c25,0,36-8.4,41.3-14.7c6.5-7.8,8.7-17.6,8.7-22.8s-2.2-15-8.7-22.8c-5.3-6.3-16.3-14.7-41.3-14.7
	c-3.8,0-7.4-0.6-10.9-1.6c-33.2-4.7-58.2-19.5-75.3-39.9c-19.7-23.5-26.3-51.2-26.3-71S544.1,352.5,563.8,329z"/>
</svg>
