<?xml version="1.0" encoding="utf-8"?>
<!-- Generator: Adobe Illustrator 24.1.2, SVG Export Plug-In . SVG Version: 6.00 Build 0)  -->
<svg version="1.1" id="Layer_1" xmlns="http://www.w3.org/2000/svg" xmlns:xlink="http://www.w3.org/1999/xlink" x="0px" y="0px"
	 viewBox="0 0 800 800" style="enable-background:new 0 0 800 800;" xml:space="preserve">
<style type="text/css">
	.st0{fill:#AE2012;}
</style>
<path class="st0" d="M379.3,5.1c11.7-6.8,26.1-6.8,37.8,0l310.7,181.3c11.5,6.7,18.6,19.1,18.6,32.4v362.5
	c0,13.3-7.1,25.7-18.6,32.4L417.1,794.9c-11.7,6.8-26.1,6.8-37.8,0l-77.7-45.3c-17.9-10.4-23.9-33.4-13.5-51.3
	c10.4-17.9,33.4-23.9,51.3-13.5l58.8,34.3l273.2-159.4V240.3L398.2,80.9L125,240.3v319.4l55.8,32.6c17.2,5.5,38.5,6.9,53.4,0.3
	c7-3.1,13.2-8.1,18.2-17c5.2-9.4,10-25,10-50.5V262.5c0-20.7,16.8-37.5,37.5-37.5s37.5,16.8,37.5,37.5V525c0,34.5-6.4,63.6-19.5,87
	c-13.3,23.9-32.3,39.8-53.4,49.1c-40.3,17.8-84.8,10.5-112.1,0.7c-2.2-0.8-4.2-1.7-6.2-2.9l-77.7-45.3C57.1,606.9,50,594.6,50,581.3
	V218.8c0-13.3,7.1-25.7,18.6-32.4L379.3,5.1z M412.3,264.2c19.8-23.6,50.8-39.2,92.9-39.2c39,0,68.8,13.4,88.9,34.7
	c14.2,15.1,13.6,38.8-1.5,53c-15,14.2-38.8,13.6-53-1.5c-4.4-4.6-13.6-11.2-34.4-11.2c-22.1,0-31.2,7.4-35.5,12.4
	c-5.4,6.5-7.3,14.7-7.3,18.8s1.8,12.4,7.3,18.8c4.2,5,13.3,12.4,35.5,12.4c3.7,0,7.3,0.5,10.7,1.5c31,4.5,54.6,18.4,70.8,37.6
	c18.6,22.2,24.8,48.3,24.8,67.1s-6.2,44.9-24.8,67.1c-19.8,23.6-50.8,39.2-92.9,39.2c-39,0-68.8-13.4-88.9-34.7
	c-14.2-15.1-13.6-38.8,1.5-53c15.1-14.2,38.8-13.6,53,1.5c4.4,4.6,13.6,11.2,34.4,11.2c22.1,0,31.2-7.4,35.5-12.4
	c5.4-6.5,7.3-14.7,7.3-18.8s-1.8-12.4-7.3-18.8c-4.2-5-13.3-12.4-35.5-12.4c-3.7,0-7.3-0.5-10.7-1.5c-31-4.5-54.6-18.4-70.8-37.6
	c-18.6-22.2-24.8-48.3-24.8-67.1S393.7,286.3,412.3,264.2z"/>
</svg>
