<?xml version="1.0" encoding="utf-8"?>
<!-- Generator: Adobe Illustrator 24.1.2, SVG Export Plug-In . SVG Version: 6.00 Build 0)  -->
<svg version="1.1" id="Layer_1" xmlns="http://www.w3.org/2000/svg" xmlns:xlink="http://www.w3.org/1999/xlink" x="0px" y="0px"
	 viewBox="0 0 800 800" style="enable-background:new 0 0 800 800;" xml:space="preserve">
<style type="text/css">
	.st0{fill:#AE2012;}
</style>
<path class="st0" d="M242.5,118.6c-12.5,7.2-25.8,27.2-27.3,70.8c-0.7,20.7-18.1,36.9-38.8,36.2c-20.7-0.7-36.9-18.1-36.2-38.8
	C142.1,133.3,159,80.2,205,53.6C251.1,27,305.7,39.1,353.1,64.4c18.3,9.7,25.2,32.5,15.4,50.7c-9.7,18.3-32.5,25.2-50.7,15.4
	C279.1,109.9,255.1,111.3,242.5,118.6z M443.6,183.6c15.9-13.2,39.6-11,52.8,5c27.7,33.5,54.3,71.6,78.4,113.4
	c52,90.1,84.1,182.4,92.7,259.8c4.3,38.6,3,75.4-6,107c-9.1,31.8-26.8,60.5-56.5,77.7c-35.9,20.8-77.4,17.8-115.4,4
	c-38.1-13.9-77.4-40.2-114.8-74.3c-15.3-14-16.4-37.7-2.4-53c14-15.3,37.7-16.4,53-2.4c33,30.1,63.9,49.8,89.9,59.2
	c26.1,9.5,42.5,7.2,52.3,1.5c8.2-4.7,16.5-14.4,21.9-33.4c5.5-19.2,7.2-45.5,3.6-78c-7.3-64.9-35.1-147.3-83.1-230.6
	c-22.1-38.3-46.3-73-71.2-103.1C425.4,220.5,427.6,196.9,443.6,183.6z"/>
<path class="st0" d="M725,410.3c0-14.5-10.7-35.9-47.7-59c-17.6-11-22.9-34.1-11.9-51.7s34.1-22.9,51.7-11.9
	C762.4,316,800,357.2,800,410.3c0,53.2-37.8,94.5-83.3,122.9c-17.6,10.9-40.7,5.6-51.7-12c-11-17.6-5.6-40.7,12-51.7
	C714.2,446.3,725,424.8,725,410.3z M568.1,551.9c3.5,20.4-10.3,39.8-30.7,43.3c-42.8,7.3-89.2,11.2-137.4,11.2
	c-104,0-200-18.4-271.4-49.6C93,541.2,61.8,521.7,39,498.1c-23-23.8-39-53.5-39-87.8c0-41.5,23.3-76,54.3-102
	c31.1-26.1,73.5-46.9,121.7-62.2c19.7-6.3,40.8,4.7,47.1,24.4c6.3,19.7-4.7,40.8-24.4,47.1c-42.5,13.5-75.1,30.5-96.2,48.2
	C81.2,383.6,75,398.9,75,410.3c0,9.5,4.2,21.5,17.9,35.7c13.9,14.4,35.8,29,65.8,42.1c59.8,26.2,145.1,43.3,241.3,43.3
	c44.2,0,86.4-3.6,124.9-10.2C545.3,517.7,564.7,531.5,568.1,551.9z"/>
<path class="st0" d="M243.6,681.5c12.5,7.2,36.4,8.7,75-11.8c18.3-9.7,41-2.8,50.7,15.5c9.7,18.3,2.8,41-15.5,50.7
	c-47.2,25.1-101.7,37-147.6,10.5c-46.1-26.6-63-80-64.8-133.6c-0.7-20.7,15.5-38,36.2-38.7c20.7-0.7,38,15.5,38.7,36.2
	C217.8,654.2,231,674.3,243.6,681.5z M199.4,474.9c-19.4-7.2-29.3-28.8-22.1-48.2c15.1-40.7,34.9-82.8,59-124.6
	c52-90.1,115.9-164,178.6-210.2c31.3-23.1,63.8-40.3,95.6-48.3c32.1-8,65.8-7.1,95.5,10.1c35.9,20.8,54.2,58.2,61.2,98
	c7,40,3.9,87.1-7,136.5c-4.4,20.2-24.4,33-44.7,28.6c-20.2-4.4-33-24.4-28.6-44.7c9.6-43.6,11.1-80.3,6.4-107.4
	c-4.8-27.3-15-40.4-24.8-46c-8.2-4.7-20.7-7.1-39.9-2.3c-19.4,4.8-43,16.5-69.4,35.9c-52.6,38.7-110.1,104-158.2,187.3
	c-22.1,38.3-40,76.6-53.6,113.2C240.4,472.2,218.8,482.1,199.4,474.9z"/>
<path class="st0" d="M473,403.3c0,37.5-30.4,68-68,68s-68-30.4-68-68s30.4-68,68-68S473,365.8,473,403.3z"/>
</svg>
