<?xml version="1.0" encoding="utf-8"?>
<!-- Generator: Adobe Illustrator 24.1.2, SVG Export Plug-In . SVG Version: 6.00 Build 0)  -->
<svg version="1.1" id="Layer_1" xmlns="http://www.w3.org/2000/svg" xmlns:xlink="http://www.w3.org/1999/xlink" x="0px" y="0px"
	 viewBox="0 0 800 800" style="enable-background:new 0 0 800 800;" xml:space="preserve">
<style type="text/css">
	.st0{fill:#AE2012;}
</style>
<path class="st0" d="M500.1,64.1l-350.7,79.2l-0.1,0.1c-0.5,0.1-1,0.3-1.5,0.6c-0.2,0.1-0.3,0.1-0.5,0.2c-1.3,0.7-2.3,1.8-3,3
	c-0.1,0.2-0.1,0.3-0.2,0.5c-0.2,0.5-0.4,1-0.6,1.5l-0.1,0.1L64.1,500.1c-0.6,2.7,0.2,5.5,2.1,7.4l226.3,226.3
	c0.4,0.3,0.7,0.6,1.2,0.9c0.2,0.1,0.3,0.2,0.4,0.3c0.6,0.4,1.2,0.6,1.9,0.8l0,0c0.2,0,0.3,0,0.5,0.1c0.5,0.1,1,0.2,1.5,0.2
	c0.3,0,0.6,0,1-0.1c0.3,0,0.6,0,0.9-0.1l350.7-79.2c3-0.7,5.4-3,6-6l79.2-350.7c0.3-1.1,0.2-2.3,0-3.4c0-0.2,0-0.3-0.1-0.5l0,0
	c-0.2-0.7-0.5-1.3-0.8-1.9c-0.1-0.2-0.2-0.3-0.4-0.5c-0.3-0.4-0.6-0.8-0.9-1.1L507.5,66.2C505.5,64.3,502.7,63.5,500.1,64.1z
	 M83.2,501.8l11.3-11.3c3.1-3.1,3.1-8.1,0.1-11.3c-2.4-2.4-6-3-9-1.6l66-292.3l131.7,516.5L83.2,501.8z M642.2,642.2l-318.8,72
	l114.7-114.7c0.8,0.6,1.8,1.1,2.8,1.4l16,4.3c4.1,1.2,8.4-1.2,9.5-5.4c0-0.1,0-0.2,0.1-0.3c1-4.3-1.6-8.6-5.9-9.7l-10.2-2.7
	l136.7-136.7l2.7,10.2c1.1,4.3,5.4,6.9,9.7,5.9c4.1-1,6.7-5.2,5.7-9.3c0-0.1,0-0.2-0.1-0.3l-4.3-16c-0.3-1-0.7-2-1.4-2.8
	l114.7-114.7L642.2,642.2z M302.5,712.5L261.8,553l3.1,0.8c4.1,1.2,8.4-1.2,9.5-5.4c0-0.1,0-0.2,0.1-0.3c1-4.3-1.6-8.6-5.9-9.7
	l-11.3-3l-42.7-167.3c1.6-0.2,3.1-1,4.3-2.1l11.3-11.3c3.1-3.1,3.1-8.2,0-11.3c-3.1-3.1-8.2-3.1-11.3,0l-8.4,8.4l-48.4-189.7
	l189.7,48.4l-8.4,8.4c-3.1,3.1-3.1,8.2,0,11.3c3.1,3.1,8.2,3.1,11.3,0l11.3-11.3c1.1-1.2,1.9-2.7,2.1-4.3l167.3,42.7l3,11.3
	c1.1,4.3,5.4,6.9,9.7,5.9c4.1-1,6.7-5.2,5.7-9.3c0-0.1,0-0.2-0.1-0.3l-0.8-3.1l159.5,40.7L302.5,712.5z M701.8,283.2L185.3,151.6
	l292.3-66c-1.9,4-0.1,8.7,3.9,10.6c3,1.4,6.7,0.8,9-1.6l11.3-11.3L701.8,283.2z"/>
<path class="st0" d="M316.6,551.3c-4.1-1.2-8.4,1.2-9.5,5.4c0,0.1,0,0.2-0.1,0.3c-1,4.3,1.6,8.6,5.9,9.7l16,4.3
	c4.1,1.2,8.4-1.2,9.5-5.4c0-0.1,0-0.2,0.1-0.3c1-4.3-1.6-8.6-5.9-9.7L316.6,551.3z"/>
<path class="st0" d="M572.6,619.8c-4.1-1.2-8.4,1.2-9.5,5.4c0,0.1,0,0.2-0.1,0.3c-1,4.3,1.6,8.6,5.9,9.7l16,4.3
	c4.1,1.2,8.4-1.2,9.5-5.4c0-0.1,0-0.2,0.1-0.3c1-4.3-1.6-8.6-5.9-9.7L572.6,619.8z"/>
<path class="st0" d="M124.6,500c-4.1-1.2-8.4,1.2-9.5,5.4c0,0.1,0,0.2-0.1,0.3c-1,4.3,1.6,8.6,5.9,9.7l16,4.3
	c4.1,1.2,8.4-1.2,9.5-5.4c0-0.1,0-0.2,0.1-0.3c1-4.3-1.6-8.6-5.9-9.7L124.6,500z"/>
<path class="st0" d="M380.6,568.4c-4.1-1.2-8.4,1.2-9.5,5.4c0,0.1,0,0.2-0.1,0.3c-1,4.3,1.6,8.6,5.9,9.7l16,4.3
	c4.1,1.2,8.4-1.2,9.5-5.4c0-0.1,0-0.2,0.1-0.3c1-4.3-1.6-8.6-5.9-9.7L380.6,568.4z"/>
<path class="st0" d="M508.6,602.7c-4.1-1.2-8.4,1.2-9.5,5.4c0,0.1,0,0.2-0.1,0.3c-1,4.3,1.6,8.6,5.9,9.7l16,4.3
	c4.1,1.2,8.4-1.2,9.5-5.4c0-0.1,0-0.2,0.1-0.3c1-4.3-1.6-8.6-5.9-9.7L508.6,602.7z"/>
<path class="st0" d="M188.6,517.1c-4.1-1.2-8.4,1.2-9.5,5.4c0,0.1,0,0.2-0.1,0.3c-1,4.3,1.6,8.6,5.9,9.7l16,4.3
	c4.1,1.2,8.4-1.2,9.5-5.4c0-0.1,0-0.2,0.1-0.3c1-4.3-1.6-8.6-5.9-9.7L188.6,517.1z"/>
<path class="st0" d="M556.9,307c-4.1,1-6.7,5.2-5.7,9.3c0,0.1,0,0.2,0.1,0.3l4.3,16c1.1,4.3,5.4,6.9,9.7,5.9c4.1-1,6.7-5.2,5.7-9.3
	c0-0.1,0-0.2-0.1-0.3l-4.3-16C565.5,308.6,561.2,306,556.9,307z"/>
<path class="st0" d="M625.4,563c-4.1,1-6.7,5.2-5.7,9.3c0,0.1,0,0.2,0.1,0.3l4.3,16c1.1,4.3,5.4,6.9,9.7,5.9c4.1-1,6.7-5.2,5.7-9.3
	c0-0.1,0-0.2-0.1-0.3l-4.3-16C634,564.6,629.7,562,625.4,563z"/>
<path class="st0" d="M522.7,179c-4.1,1-6.7,5.2-5.7,9.3c0,0.1,0,0.2,0.1,0.3l4.3,16c1.1,4.3,5.4,6.9,9.7,5.9c4.1-1,6.7-5.2,5.7-9.3
	c0-0.1,0-0.2-0.1-0.3l-4.3-16C531.3,180.6,527,178,522.7,179z"/>
<path class="st0" d="M505.6,115c-4.1,1-6.7,5.2-5.7,9.3c0,0.1,0,0.2,0.1,0.3l4.3,16c1.1,4.3,5.4,6.9,9.7,5.9c4.1-1,6.7-5.2,5.7-9.3
	c0-0.1,0-0.2-0.1-0.3l-4.3-16C514.2,116.6,509.9,114,505.6,115z"/>
<path class="st0" d="M608.3,499c-4.1,1-6.7,5.2-5.7,9.3c0,0.1,0,0.2,0.1,0.3l4.3,16c1.1,4.3,5.4,6.9,9.7,5.9c4.1-1,6.7-5.2,5.7-9.3
	c0-0.1,0-0.2-0.1-0.3l-4.3-16C616.9,500.6,612.6,498,608.3,499z"/>
<path class="st0" d="M574.1,371c-4.1,1-6.7,5.2-5.7,9.3c0,0.1,0,0.2,0.1,0.3l4.3,16c1.1,4.3,5.4,6.9,9.7,5.9c4.1-1,6.7-5.2,5.7-9.3
	c0-0.1,0-0.2-0.1-0.3l-4.3-16C582.7,372.6,578.4,370,574.1,371z"/>
<path class="st0" d="M128.5,433.9l-11.3,11.3c-3.1,3.1-3.1,8.2,0,11.3c3.1,3.1,8.2,3.1,11.3,0l11.3-11.3c3.1-3.1,3.1-8.2,0-11.3
	C136.7,430.8,131.6,430.8,128.5,433.9z"/>
<path class="st0" d="M309.5,252.9l-11.3,11.3c-3.1,3.1-3.1,8.2,0,11.3c3.1,3.1,8.2,3.1,11.3,0l11.3-11.3c3.1-3.1,3.1-8.2,0-11.3
	C317.7,249.8,312.6,249.8,309.5,252.9z"/>
<path class="st0" d="M456.6,117.2c-3.1-3.1-8.2-3.1-11.3,0l-11.3,11.3c-3.1,3.1-3.1,8.2,0,11.3c3.1,3.1,8.2,3.1,11.3,0l11.3-11.3
	C459.7,125.3,459.7,120.3,456.6,117.2z"/>
<path class="st0" d="M173.7,388.7L162.4,400c-3.1,3.1-3.1,8.2,0,11.3c3.1,3.1,8.2,3.1,11.3,0L185,400c3.1-3.1,3.1-8.2,0-11.3
	C181.9,385.6,176.9,385.6,173.7,388.7z"/>
<path class="st0" d="M264.2,298.2l-11.3,11.3c-3.1,3.1-3.1,8.2,0,11.3c3.1,3.1,8.2,3.1,11.3,0l11.3-11.3c3.1-3.1,3.1-8.2,0-11.3
	C272.4,295.1,267.4,295.1,264.2,298.2z"/>
<path class="st0" d="M400,162.4l-11.3,11.3c-3.1,3.1-3.1,8.2,0,11.3c3.1,3.1,8.2,3.1,11.3,0l11.3-11.3c3.1-3.1,3.1-8.2,0-11.3
	C408.2,159.3,403.1,159.3,400,162.4z"/>
</svg>
