<?xml version="1.0" encoding="utf-8"?>
<!-- Generator: Adobe Illustrator 24.1.2, SVG Export Plug-In . SVG Version: 6.00 Build 0)  -->
<svg version="1.1" id="Layer_1" xmlns="http://www.w3.org/2000/svg" xmlns:xlink="http://www.w3.org/1999/xlink" x="0px" y="0px"
	 viewBox="0 0 400 600" style="enable-background:new 0 0 400 600;" xml:space="preserve">
<style type="text/css">
	.st0{fill:#AE2012;}
</style>
<path class="st0" d="M429.7-60.7c-0.1-0.1-0.1-0.1-0.2-0.2c-0.7-0.6-1.4-1.1-2.2-1.4c-0.1,0-0.2-0.1-0.3-0.2c-0.1,0-0.1,0-0.2,0
	c-0.9-0.3-1.8-0.5-2.7-0.5c-0.2,0-0.4,0-0.6,0c-0.3,0-0.6,0-0.9,0.1L83.2,5.1c-3.2,0.6-5.6,3.1-6.3,6.3L9,350.7
	c0,0.3-0.1,0.6-0.1,0.9c0,0.2,0,0.4,0,0.6c0,0.9,0.2,1.8,0.5,2.7c0,0.1,0,0.1,0,0.2c0,0.1,0.1,0.2,0.2,0.3c0.3,0.8,0.8,1.6,1.4,2.2
	c0.1,0.1,0.1,0.1,0.2,0.2l0.1,0.1l226.3,226.3l0,0c0.1,0.1,0.2,0.1,0.3,0.2c0.4,0.4,0.8,0.7,1.3,1c0.2,0.1,0.4,0.2,0.6,0.3
	c0.4,0.2,0.8,0.4,1.3,0.5l0.1,0.1c0.2,0.1,0.4,0,0.6,0.1c0.4,0.1,0.8,0.1,1.2,0.2c0.3,0,0.6,0,0.9-0.1c0.3,0,0.6,0,0.9-0.1
	l339.4-67.9c0.3-0.1,0.6-0.2,0.9-0.3c0.3-0.1,0.6-0.2,0.8-0.3c1.7-0.8,3.1-2.2,3.9-3.9c0.1-0.3,0.2-0.5,0.3-0.8
	c0.1-0.3,0.2-0.6,0.3-0.9l67.9-339.4c0-0.6,0.1-1.2,0.1-1.7c0-0.4-0.1-0.8-0.2-1.2c0-0.2,0-0.4-0.1-0.7l-0.1-0.1
	c-0.1-0.4-0.3-0.8-0.5-1.2c-0.1-0.2-0.2-0.4-0.3-0.6c-0.2-0.3-0.5-0.7-0.7-1c-0.2-0.2-0.3-0.4-0.5-0.7l0,0L429.7-60.7L429.7-60.7z"
	/>
</svg>
