<?xml version="1.0" encoding="utf-8"?>
<!-- Generator: Adobe Illustrator 24.1.2, SVG Export Plug-In . SVG Version: 6.00 Build 0)  -->
<svg version="1.1" id="Layer_1" xmlns="http://www.w3.org/2000/svg" xmlns:xlink="http://www.w3.org/1999/xlink" x="0px" y="0px"
	 viewBox="0 0 800 800" style="enable-background:new 0 0 800 800;" xml:space="preserve">
<style type="text/css">
	.st0{fill:url(#SVGID_1_);}
	.st1{fill:none;stroke:#FCFCFC;stroke-width:28.5755;stroke-linecap:round;stroke-linejoin:round;stroke-miterlimit:133.3333;}
</style>
<linearGradient id="SVGID_1_" gradientUnits="userSpaceOnUse" x1="60.225" y1="610.1403" x2="742.5005" y2="192.1901" gradientTransform="matrix(1 0 0 -1 0 802)">
	<stop  offset="0" style="stop-color:#BB402A"/>
	<stop  offset="8.627998e-02" style="stop-color:#B63421"/>
	<stop  offset="0.2309" style="stop-color:#B22918"/>
	<stop  offset="0.4346" style="stop-color:#AF2213"/>
	<stop  offset="1" style="stop-color:#AE2012"/>
</linearGradient>
<circle class="st0" cx="400" cy="400" r="400"/>
<path class="st1" d="M400,300v75 M400,300c27.6,0,50-22.4,50-50s-22.4-50-50-50c-27.6,0-50,22.4-50,50S372.4,300,400,300z M400,375
	c-27.6,0-50,22.4-50,50c0,27.6,22.4,50,50,50c27.6,0,50-22.4,50-50C450,397.3,427.6,375,400,375z M300,381.2l50,31.3 M500,381.2
	l-50,31.3 M312.5,512.6l50-50 M487.5,512.6l-50-50 M300,350c0,27.6-22.4,50-50,50s-50-22.4-50-50s22.4-50,50-50S300,322.3,300,350z
	 M600,350c0,27.6-22.4,50-50,50c-27.6,0-50-22.4-50-50s22.4-50,50-50C577.6,300,600,322.3,600,350z M575.1,550c0,27.6-22.4,50-50,50
	c-27.6,0-50-22.4-50-50c0-27.6,22.4-50,50-50C552.6,500,575.1,522.4,575.1,550z M325,550c0,27.6-22.4,50-50,50s-50-22.4-50-50
	c0-27.6,22.4-50,50-50S325,522.4,325,550z"/>
</svg>
