<?xml version="1.0" encoding="utf-8"?>
<!-- Generator: Adobe Illustrator 24.1.2, SVG Export Plug-In . SVG Version: 6.00 Build 0)  -->
<svg version="1.1" id="Capa_1" xmlns="http://www.w3.org/2000/svg" xmlns:xlink="http://www.w3.org/1999/xlink" x="0px" y="0px"
	 viewBox="0 0 800 800" style="enable-background:new 0 0 800 800;" xml:space="preserve">
<style type="text/css">
	.st0{fill:url(#SVGID_1_);}
	.st1{fill:#FEFDFF;}
</style>
<g>
	<linearGradient id="SVGID_1_" gradientUnits="userSpaceOnUse" x1="60.225" y1="192.3597" x2="742.5005" y2="610.3099">
		<stop  offset="0" style="stop-color:#BB402A"/>
		<stop  offset="8.627999e-02" style="stop-color:#B63421"/>
		<stop  offset="0.2309" style="stop-color:#B22918"/>
		<stop  offset="0.4346" style="stop-color:#AF2213"/>
		<stop  offset="1" style="stop-color:#AE2012"/>
	</linearGradient>
	<circle class="st0" cx="400" cy="400.5" r="400"/>
</g>
<g>
	<path class="st1" d="M562,370.7V390h-42.9c5.1-3.8,9.7-8,13.9-12.8c19.9-22.6,24.4-50.9,25.1-68.7h33.7c8.7,0,15.8-7.1,15.8-15.8
		v-89.4c0-8.7-7.1-15.8-15.8-15.8h-89.3c-8.7,0-15.8,7.1-15.8,15.8v89.3c0,8.7,7.1,15.8,15.8,15.8H537c-0.6,14.5-4.4,37.2-19.8,54.8
		c-12.9,14.7-32,23.2-56.7,25.8v-33.3c0-8.7-7.1-15.8-15.8-15.8h-89.3c-8.7,0-15.8,7.1-15.8,15.8V390H238v-19.3h-59.6v59.6H238V411
		h49.6c-30.2,23.4-40.3,60.5-43.6,81.4h-35.8c-8.7,0-15.8,7.1-15.8,15.8v89.3c0,8.7,7.1,15.8,15.8,15.8h89.3
		c8.7,0,15.8-7.1,15.8-15.8v-89.3c0-8.7-7.1-15.8-15.8-15.8h-32.5c4.3-25.4,19.6-72.8,74.5-80.4v33.1c0,8.7,7.1,15.8,15.8,15.8h89.3
		c8.7,0,15.8-7.1,15.8-15.8V411H562v19.3h59.6v-59.6L562,370.7L562,370.7z M518.2,219.2H576V277h-57.8V219.2z M281.8,581.8H224V524
		h57.8V581.8z M428.9,429.4h-57.8v-57.8h57.8V429.4z"/>
</g>
</svg>
