<?xml version="1.0" encoding="UTF-8" standalone="no"?>
<svg
   xml:space="preserve"
   viewBox="0 0 800 800"
   version="1.1"
   id="svg2"
   sodipodi:docname="backEnd.svg"
   inkscape:version="1.4 (86a8ad7, 2024-10-11)"
   xmlns:inkscape="http://www.inkscape.org/namespaces/inkscape"
   xmlns:sodipodi="http://sodipodi.sourceforge.net/DTD/sodipodi-0.dtd"
   xmlns="http://www.w3.org/2000/svg"
   xmlns:svg="http://www.w3.org/2000/svg"><defs
   id="defs2" /><sodipodi:namedview
   id="namedview2"
   pagecolor="#ffffff"
   bordercolor="#000000"
   borderopacity="0.25"
   inkscape:showpageshadow="2"
   inkscape:pageopacity="0.0"
   inkscape:pagecheckerboard="0"
   inkscape:deskcolor="#d1d1d1"
   inkscape:zoom="1.06875"
   inkscape:cx="400.46784"
   inkscape:cy="400"
   inkscape:window-width="1920"
   inkscape:window-height="1057"
   inkscape:window-x="-8"
   inkscape:window-y="-8"
   inkscape:window-maximized="1"
   inkscape:current-layer="svg2" />
  <circle
   cx="400"
   cy="400"
   r="397.5"
   class="st0"
   id="circle1" />
  
  <path
   d="m 200,394.01429 a 15.818286,15.818286 0 0 1 13.11657,-15.58743 l 8.54514,-1.48114 a 101.48,101.48 0 0 1 12.84572,-30.97143 l -5.00572,-7.10629 a 15.819429,15.819429 0 0 1 1.74743,-20.296 l 8.46629,-8.46628 a 15.819429,15.819429 0 0 1 20.29714,-1.74858 l 7.10514,5.00572 a 101.488,101.488 0 0 1 30.97143,-12.84457 l 1.48229,-8.54515 a 15.819429,15.819429 0 0 1 15.58628,-13.11657 h 11.97486 a 15.818286,15.818286 0 0 1 15.58629,13.11657 l 1.48228,8.54972 a 101.712,101.712 0 0 1 42.30857,21.05486 l -1.20342,1.46285 a 120.79886,120.79886 0 0 0 -22.01143,40.66286 c -10.20229,-11.832 -25.296,-19.32229 -42.14972,-19.32229 -30.71314,0 -55.62057,24.89943 -55.62057,55.62058 0,30.71314 24.90743,55.62057 55.62057,55.62057 16.85372,0 31.94743,-7.49029 42.14857,-19.32229 8.29715,-9.63886 13.35772,-22.14857 13.46286,-35.83314 v -0.93029 c 0.10743,-24.44228 8.80914,-46.85714 23.24686,-64.38171 a 102.80571,102.80571 0 0 1 13.48571,-13.58514 101.76343,101.76343 0 0 1 42.30857,-21.04686 l 1.48343,-8.55086 a 15.819429,15.819429 0 0 1 15.58629,-13.11657 h 11.97486 a 15.818286,15.818286 0 0 1 15.58628,13.11657 l 1.48229,8.54629 a 101.488,101.488 0 0 1 30.97143,12.84571 l 7.10628,-5.00571 a 15.819429,15.819429 0 0 1 20.296,1.74628 l 8.46629,8.46743 a 15.819429,15.819429 0 0 1 1.74743,20.296 l -5.00572,7.104 a 101.488,101.488 0 0 1 12.84572,30.97143 l 8.54514,1.48343 A 15.818286,15.818286 0 0 1 600,394.012 v 11.97372 a 15.818286,15.818286 0 0 1 -13.11657,15.58742 l -8.54629,1.48115 a 101.50057,101.50057 0 0 1 -12.84571,30.97143 l 5.00571,7.10628 a 15.819429,15.819429 0 0 1 -1.74628,20.296 l -8.46629,8.46743 a 15.819429,15.819429 0 0 1 -20.29714,1.74629 l -7.10514,-5.00572 a 101.50857,101.50857 0 0 1 -30.97143,12.84572 l -1.48115,8.54628 a 15.819429,15.819429 0 0 1 -15.58742,13.11657 H 472.86857 A 15.818286,15.818286 0 0 1 457.28229,508.028 l -1.48343,-8.55086 a 101.74971,101.74971 0 0 1 -42.30857,-21.04685 l 1.21942,-1.47772 c 9.928,-12.05371 17.36458,-25.89714 22.00458,-40.656 10.19428,11.832 25.288,19.32229 42.14171,19.32229 30.712,0 55.61143,-24.90743 55.61143,-55.62057 0,-30.72 -24.89943,-55.62057 -55.61143,-55.62057 -16.85371,0 -31.94743,7.49028 -42.14171,19.32228 -8.30515,9.63086 -13.36458,22.14172 -13.47086,35.83314 v 0.93029 c -0.10743,24.44229 -8.808,46.85714 -23.23886,64.38171 a 102.80914,102.80914 0 0 1 -13.49371,13.57715 101.70286,101.70286 0 0 1 -42.30857,21.05485 l -1.48229,8.54972 a 15.819429,15.819429 0 0 1 -15.58743,13.11657 h -11.97371 a 15.818286,15.818286 0 0 1 -15.58629,-13.11657 l -1.48228,-8.54629 a 101.50857,101.50857 0 0 1 -30.97143,-12.84571 l -7.10629,5.00571 a 15.819429,15.819429 0 0 1 -20.296,-1.74628 l -8.46743,-8.46743 a 15.819429,15.819429 0 0 1 -1.74628,-20.296 l 5.00571,-7.10629 A 101.50057,101.50057 0 0 1 221.66286,423.05314 L 213.11771,421.572 A 15.818286,15.818286 0 0 1 200,405.98686 Z"
   id="path2"
   style="fill:#ffffff;stroke-width:1.14286" />
</svg>
