<svg xmlns="http://www.w3.org/2000/svg" xml:space="preserve" viewBox="0 0 800 800">
  <path d="m566.758 470.183 209.494 63.322c-14.077 58.756-36.236 107.836-66.49 147.235-30.251 39.386-67.81 69.125-112.663 89.178C552.24 789.974 495.166 800 425.85 800c-84.078 0-152.763-12.225-206.057-36.662-53.303-24.43-99.305-67.395-138-128.93C43.1 572.892 23.748 494.13 23.748 398.145c0-127.965 34.041-226.31 102.114-295.053C193.928 34.371 290.237 0 414.78 0c97.45 0 174.048 19.71 229.808 59.104 55.768 39.397 97.181 99.917 124.283 181.524l-211.086 46.966c-7.39-23.56-15.13-40.804-23.214-51.71-13.375-18.29-29.738-32.37-49.082-42.218-19.35-9.844-40.99-14.775-64.904-14.775-54.184 0-95.696 21.792-124.544 65.361-21.81 32.335-32.711 83.106-32.711 152.314 0 85.744 13.008 144.516 39.046 176.31 26.03 31.795 62.62 47.701 109.766 47.701 45.732 0 80.287-12.851 103.687-38.52 23.396-25.674 40.371-62.973 50.93-111.874z"/>
</svg>
