<svg xmlns="http://www.w3.org/2000/svg" xml:space="preserve" viewBox="-0.07 71.3 800 800">
  <path d="M782.41 403.135c-17.918-12.465-59.207-17.139-91.303-10.907-3.739-31.16-21.034-58.427-50.948-82.577l-17.139-12.464-11.997 17.917c-14.957 23.371-22.436 56.09-20.255 87.252.78 10.906 4.519 30.382 15.737 47.52-10.44 6.233-32.252 14.023-60.609 14.023H4.781l-1.558 6.232c-5.297 31.162-5.297 128.54 56.09 203.327 46.43 56.87 115.297 85.694 205.82 85.694 196.16 0 341.372-94.263 409.459-264.87 26.954.778 84.603 0 113.738-58.428.78-1.558 2.182-4.674 7.479-16.36l2.96-6.232zM437.455 183.448h-82.266v77.903h82.266zm0 93.484h-82.266v77.903h82.266zm-97.379 0H257.81v77.903h82.266zm-97.223 0h-82.266v77.903h82.266zm-97.379 93.484H63.21v77.903h82.265zm97.379 0h-82.266v77.903h82.266zm97.223 0H257.81v77.903h82.266zm97.379 0h-82.266v77.903h82.266zm97.223 0h-82.266v77.903h82.266z" style="fill:#2396ed;stroke-width:1.55806"/>
</svg>
