<svg xmlns="http://www.w3.org/2000/svg" viewBox="0 0 800 800.003">
  <path fill-rule="evenodd" d="M399.999 0c220.919 0 399.998 183.6 399.998 410.118 0 181.16-114.48 334.84-273.319 389.119-20.28 4.04-27.48-8.76-27.48-19.68 0-13.52.48-57.68.48-112.56 0-38.24-12.8-63.2-27.16-75.92 89.08-10.16 182.68-44.839 182.68-202.358 0-44.8-15.52-81.36-41.2-110.08 4.16-10.36 17.88-52.08-3.92-108.56 0 0-33.52-11-109.88 42.04a375.839 375.839 0 0 0-100.2-13.8 374.999 374.999 0 0 0-100.12 13.8c-76.439-53.04-110.039-42.04-110.039-42.04-21.72 56.48-8 98.2-3.88 108.56-25.56 28.72-41.2 65.28-41.2 110.08 0 157.119 93.4 192.319 182.24 202.679-11.44 10.24-21.8 28.32-25.4 54.84-22.8 10.48-80.72 28.6-116.4-34.08 0 0-21.16-39.4-61.32-42.28 0 0-39-.52-2.72 24.92 0 0 26.2 12.6 44.4 60 0 0 23.48 73.2 134.76 48.4.2 34.28.56 66.6.56 76.36 0 10.84-7.36 23.519-27.32 19.719C114.599 745.077 0 591.317 0 410.118 0 183.6 179.12 0 399.999 0"/>
</svg>
