<svg xmlns="http://www.w3.org/2000/svg" xml:space="preserve" viewBox="0 0 800 800">
  <path d="m113.792 506.05-31.974-31.975C50.491 442.748 30.701 401.227 26.1 357.162a13.094 13.094 0 0 0-26.045 2.721c5.226 50.017 27.689 97.148 63.249 132.708l31.974 31.974a13.055 13.055 0 0 0 9.258 3.836 13.047 13.047 0 0 0 9.258-3.836 13.09 13.09 0 0 0-.002-18.514zm423.236-199.852a13.094 13.094 0 0 0-18.517.003l-55.67 55.692a13.094 13.094 0 0 0 9.26 22.349 13.057 13.057 0 0 0 9.26-3.838l55.67-55.692a13.09 13.09 0 0 0-.003-18.514zm39.198 54.45c-5.117-5.116-13.408-5.113-18.516.001l-90.816 90.836a13.092 13.092 0 1 0 18.517 18.513l90.816-90.836a13.088 13.088 0 0 0-.001-18.514z"/>
  <path d="M788.268 258.89c-7.19-.76-13.633 4.468-14.382 11.66-4.606 44.067-24.394 85.588-55.723 116.915l-159.47 159.47a19.875 19.875 0 0 1-14.15 5.86 19.875 19.875 0 0 1-14.148-5.862 19.875 19.875 0 0 1-5.86-14.149c0-5.345 2.08-10.37 5.86-14.149.025-.025.044-.05.066-.073L632.843 416.18a13.094 13.094 0 0 0-18.518-18.516L493.91 518.079a45.93 45.93 0 0 0-10.922-17.372l-60.964-60.962 31.404-31.404a13.094 13.094 0 0 0-18.518-18.516l-31.402 31.402-100.26-100.258c-.255-.255-.781-.782-.36-1.805.423-1.022 1.171-1.024 1.529-1.024l56.234-.089c26.905-.042 48.76-21.966 48.717-48.873-.043-26.874-21.928-48.716-48.794-48.716h-.047l-219.073.206a13.094 13.094 0 0 0 .01 26.186h.013l219.074-.206h.02c12.447 0 22.588 10.122 22.61 22.573.019 12.465-10.108 22.625-22.572 22.644l-56.233.089a27.763 27.763 0 0 0-25.688 17.208 27.765 27.765 0 0 0 6.044 30.324L464.47 519.224c7.782 7.782 7.799 20.423.064 28.23l-.068.07c-.013.012-.02.025-.033.035a19.88 19.88 0 0 1-14.115 5.83 19.875 19.875 0 0 1-14.148-5.86L281.463 392.821a13.094 13.094 0 0 0-18.516 18.516l184.184 184.185c7.803 7.802 7.803 20.499 0 28.3a19.876 19.876 0 0 1-14.149 5.862 19.874 19.874 0 0 1-14.149-5.861L242.267 447.256a13.094 13.094 0 0 0-18.516 18.516L363.82 605.84c7.797 7.804 7.795 20.496-.007 28.295-7.803 7.802-20.498 7.802-28.3 0L185.652 484.274a13.094 13.094 0 0 0-18.516 18.516l102.457 102.458c7.8 7.804 7.798 20.498-.002 28.298a19.88 19.88 0 0 1-14.15 5.86 19.884 19.884 0 0 1-14.152-5.86l-94.632-94.637a13.094 13.094 0 0 0-18.516 18.516l94.633 94.634c8.726 8.726 20.327 13.531 32.667 13.531s23.94-4.805 32.666-13.531a45.903 45.903 0 0 0 10.924-17.376l17.966 17.966c9.006 9.007 20.838 13.508 32.666 13.508 11.83 0 23.66-4.504 32.666-13.508a45.921 45.921 0 0 0 10.924-17.377l7.063 7.063c8.725 8.725 20.327 13.53 32.666 13.53 12.341 0 23.943-4.805 32.668-13.532 18.011-18.012 18.011-47.32 0-65.332l-.023-.024a46.004 46.004 0 0 0 17.36-10.94l.132-.138 17.816-17.816a46.007 46.007 0 0 0 10.943 17.364c8.725 8.727 20.327 13.532 32.666 13.532 12.34 0 23.943-4.805 32.668-13.532l159.47-159.469c35.56-35.558 58.02-82.689 63.247-132.707a13.092 13.092 0 0 0-11.661-14.382z"/>
  <path d="M702.886 285.962a13.094 13.094 0 0 0-16.93-7.499c-20.231 7.808-42.041 9.38-63.08 4.553a13.094 13.094 0 0 0-5.862 25.521 133.931 133.931 0 0 0 30.002 3.411c16.418 0 32.776-3.036 48.37-9.056a13.094 13.094 0 0 0 7.5-16.93zM658.528 134.05l-219.511-.207h-.044c-26.626 0-48.315 21.65-48.357 48.276l-.002.88c-.02 12.915 4.99 25.067 14.11 34.214 9.117 9.154 21.253 14.202 34.17 14.22l60.658.096-120.195 120.195a13.094 13.094 0 0 0 18.517 18.516L527.24 240.873c11.387 20.294 27.724 37.129 48.05 49.267a13.088 13.088 0 0 0 17.955-4.527 13.096 13.096 0 0 0-4.528-17.955c-20.902-12.481-36.596-31.118-45.386-53.89-.009-.025-.026-.044-.034-.069-1.908-4.855-6.625-8.302-12.16-8.31l-92.202-.145a22.03 22.03 0 0 1-15.667-6.519 22.022 22.022 0 0 1-6.467-15.681l.001-.88c.019-12.21 9.963-22.136 22.17-22.136h.021l219.511.207h.013a13.094 13.094 0 0 0 .01-26.185z"/>
</svg>
