<svg xmlns="http://www.w3.org/2000/svg" xml:space="preserve" viewBox="0 0 800 800">
  <path d="M302.808 325.43c-7.403-16.37-10.722-35.463-5.066-52.808 5.655-17.733 18.322-31.957 30.989-45.21 35.264-35.273 78.724-61.19 113.214-97.042 19.096-19.684 34.878-43.263 40.332-70.351C486.761 40.144 484.62 19.684 480.53 0c18.317 20.852 24.358 50.666 19.095 77.56-5.649 30.202-22.413 56.898-42.092 79.89-15.782 18.517-33.908 34.885-52.808 50.088-22.02 17.733-43.647 36.828-57.48 61.772-11.698 20.263-14.427 45.207-6.435 67.228 13.058 37.802 43.454 65.864 60.02 101.523-18.321-16.175-36.245-32.933-53.01-50.663-17.53-18.708-34.097-38.582-45.01-61.968zm99.382-29.622c-3.311 30.986 12.858 60.215 32.155 83.211 9.35 10.326 17.34 22.993 17.726 37.415.393 19.285-10.514 37.22-24.554 49.88 3.318-.385 5.655-3.31 8.384-4.868 21.046-13.447 41.307-30.4 51.635-53.585 6.821-15.785 5.263-34.495-3.698-49.113-10.527-17.147-24.358-32.347-32.541-51.052-4.489-10.523-6.047-22.798-2.343-33.906 4.876-15.002 15.396-27.281 26.505-37.999 30.591-29.031 67.615-49.695 103.083-72.295-44.82 12.859-89.054 30.594-126.857 58.462-23.97 17.927-46.18 42.868-49.495 73.85zM615.182 442.35c21.241 1.171 42.085 16.758 45.986 38.195 3.705 18.513-5.257 36.828-16.759 50.857-18.904 22.604-44.433 38.78-70.148 52.617-2.539 1.551-4.68 3.502-6.63 5.649 33.909-8.577 67.81-21.431 95.29-43.454 15.195-12.667 28.641-29.43 31.567-49.501 2.729-17.34-4.477-35.27-17.341-46.765-15.593-14.23-37.607-19.488-58.267-16.758-11.888 1.558-24.941 4.091-33.124 14.03 9.747-1.944 19.287-5.845 29.426-4.87zm-423.055 55.726c25.523 6.821 51.832 8.772 77.944 10.527 23.383 1.558 46.771 1.95 70.351 1.754 60.796-.97 121.982-5.067 181.61-18.316 5.648-1.362 11.887-2.337 16.96-5.844 9.936-6.435 20.841-11.502 31.564-16.568-48.525 7.795-97.241 14.426-146.345 17.542-49.69 3.117-99.774 5.066-149.656 1.755-14.225-1.362-28.842-2.147-42.092-7.606-3.121-1.362-7.41-4.084-5.852-8.183 2.926-5.262 8.772-7.792 13.838-10.52 21.439-10.134 44.82-15.783 67.621-22.408-39.171-.589-78.146 9.348-113.994 24.745-7.992 3.9-16.955 7.015-23.383 13.642-2.54 2.723-2.54 7.408.387 9.741 5.847 5.262 13.637 7.6 21.047 9.74zM507.81 551.67c-34.104 6.041-68.405 11.698-102.897 13.446-37.804 2.534-75.607.387-113.019-3.508-7.208-.975-14.42-2.142-20.849-5.453-3.312-1.95-6.623-5.066-6.428-9.164.387-6.429 5.84-10.908 9.741-15.587-12.078 4.288-24.163 8.765-34.295 16.764-4.293 3.313-8.576 8.57-7.41 14.415 1.762 6.82 8.386 10.912 14.231 14.028 14.416 7.41 30.591 10.718 46.38 13.642 39.939 6.434 80.668 6.63 120.809 3.895 42.49-3.311 84.772-10.323 125.888-22.408-11.692-5.257-22.801-11.305-32.15-20.07zM293.65 619.1c-10.912 3.115-22.021 6.821-30.982 14.023-4.49 3.508-7.993 9.556-5.846 15.206 2.729 7.208 9.55 11.502 15.973 15.194 16.764 9.164 35.664 13.446 54.175 16.763 41.902 6.621 84.962 5.649 126.665-1.753 24.746-4.68 49.495-11.305 72.487-21.628-15.004-6.237-29.615-13.256-43.644-21.437-24.359 4.286-48.918 8.772-73.86 10.33-32.927 2.532-66.253-.196-99.186-4.287-7.796-1.755-17.537-2.533-22.799-9.356-2.722-5.656 3.51-9.749 7.017-13.055zm266.578 125.293c27.278-5.642 54.758-12.085 79.699-24.745 7.79-4.489 17.34-9.36 19.88-18.709 1.361-8.963-7.993-13.642-14.618-17.346 4.09 4.686 6.82 11.502 2.724 16.955-6.821 9.163-18.506 12.667-28.838 16.175-32.344 9.159-65.866 12.863-99.185 16.567-88.274 7.987-177.136 9.938-265.406 2.533-29.62-3.122-59.83-6.433-88.084-16.953-4.477-1.951-11.298-3.902-11.298-9.945 1.748-5.25 6.82-8.183 11.298-10.716 20.266-10.325 42.871-15.98 65.475-17.342-6.62-3.9-14.416-4.286-22.015-4.09-18.906.583-37.417 5.452-55.34 11.502-15.396 5.642-31.18 11.882-43.46 23.187-4.871 4.282-9.349 12.465-4.289 18.315 7.797 8.38 19.881 10.521 30.591 13.054 60.02 10.331 120.816 16.17 181.622 18.315 80.674 2.346 161.931-1.164 241.244-16.757zm79.895 10.527c-36.637 11.691-74.633 18.12-112.442 23.383-65.277 8.183-131.144 10.716-196.815 8.771-39.945-1.557-79.89-4.286-119.257-10.918 9.158 6.237 20.463 8.183 30.988 11.11 44.238 9.355 89.636 11.109 134.654 12.47 66.05 1.172 132.112-1.361 197.2-11.69 30.793-5.449 61.775-12.08 89.44-26.501 14.427-7.6 29.044-19.297 31.566-36.246-14.61 15.585-35.65 22.8-55.334 29.62z"/>
</svg>
