<svg xmlns="http://www.w3.org/2000/svg" xml:space="preserve" viewBox="0 0 800 800">
  <path fill-rule="evenodd" d="M.796 0C-.096.13-.031 1.205.034 2.283V799.11c265.149 1.776 533.554.253 799.966.76V0Zm405.3 707.11c-18.509 18.66-47.716 29.65-83.647 29.65-58.932 0-91.652-28.713-112.538-68.433a1515.009 1515.009 0 0 1 61.595-37.252c8.542 23.893 37.395 50.755 69.954 34.218 20.638-10.488 18.256-42.286 18.256-76.797V369.52c-.066-1.078-.13-2.153.754-2.283h73.763v183.998c0 66.69 4.766 122.72-28.138 155.877zm330.023-66.144c-4.186 62.44-55.174 95.597-123.945 95.793-67.416.194-110.566-29.766-136.881-76.034 18.92-13.021 40.357-23.51 60.078-35.73 15.781 24.675 43.11 48.392 83.646 44.857 25.254-2.201 54.57-22.787 38.02-53.984-8.027-15.123-27.422-22.805-44.863-30.41-55.345-24.148-120.278-46.296-114.068-133.06 2.078-28.985 15.424-49.355 32.703-63.869 17.708-14.873 41.425-24.84 73-25.849 57.345-1.836 88.804 23.671 110.261 59.31-18.26 13.92-38.378 26-58.553 38.013-6.621-20.344-38.582-40.169-65.397-28.131-12.194 5.468-23.151 21.543-16.726 41.055 5.73 17.4 29.102 26.926 47.904 34.98 56.911 24.36 120.512 48.168 114.821 133.059z" clip-rule="evenodd"/>
</svg>
