<svg xmlns="http://www.w3.org/2000/svg" xml:space="preserve" viewBox="0 0 800 800">
  <path fill-rule="evenodd" d="M.796 0C-.097.13-.031 1.205.033 2.283V799.11c265.15 1.776 533.555.253 799.967.76V0Zm405.299 707.11c-18.508 18.66-47.715 29.65-83.646 29.65-58.932 0-91.653-28.713-112.539-68.433a1515.009 1515.009 0 0 1 61.596-37.252c8.541 23.893 37.395 50.755 69.953 34.218 20.64-10.488 18.256-42.286 18.256-76.797V369.52c-.065-1.078-.13-2.153.755-2.283h73.763v183.998c0 66.69 4.765 122.72-28.138 155.877zm330.024-66.144c-4.186 62.44-55.175 95.597-123.945 95.793-67.416.194-110.566-29.766-136.881-76.034 18.92-13.021 40.357-23.51 60.078-35.73 15.78 24.675 43.11 48.392 83.646 44.857 25.254-2.201 54.57-22.787 38.02-53.984-8.027-15.123-27.423-22.805-44.863-30.41-55.346-24.148-120.279-46.296-114.068-133.06 2.077-28.985 15.424-49.355 32.703-63.869 17.708-14.873 41.425-24.84 73-25.849 57.345-1.836 88.803 23.671 110.26 59.31-18.26 13.92-38.377 26-58.553 38.013-6.62-20.344-38.581-40.169-65.396-28.131-12.194 5.468-23.151 21.543-16.726 41.055 5.73 17.4 29.102 26.926 47.904 34.98 56.911 24.36 120.512 48.168 114.821 133.059z" clip-rule="evenodd"/>
</svg>
