<svg xmlns="http://www.w3.org/2000/svg" xml:space="preserve" viewBox="0 0 800 800">
  <path d="M89.947 798.662h620.106c48.899 0 88.61-39.71 88.61-88.609V89.947c0-48.899-39.711-88.61-88.61-88.61H89.947c-48.899 0-88.61 39.711-88.61 88.61v620.106c0 48.899 39.711 88.61 88.61 88.61" style="clip-rule:evenodd;fill:#007ebb;fill-rule:evenodd;stroke-width:1.55727"/>
  <path d="M687.94 687.94H569.587V486.429c0-55.284-21.023-86.118-64.782-86.118-47.497 0-72.414 32.08-72.414 86.118v201.51H318.4V304.073H432.39v51.701s34.26-63.38 115.706-63.38c81.445 0 139.687 49.676 139.687 152.612V687.94zM182.449 253.772c-38.776 0-70.389-31.768-70.389-70.856s31.457-70.856 70.389-70.856 70.233 31.768 70.233 70.856-31.457 70.856-70.233 70.856M123.584 687.94H242.56V304.072H123.584Z" style="clip-rule:evenodd;fill:#fff;fill-rule:evenodd;stroke-width:1.55727"/>
</svg>
