<svg xmlns="http://www.w3.org/2000/svg" xml:space="preserve" viewBox="0 0 800 800">
  <path d="M627.09 349.902c5.815 6.442 7.194 17.505 4.154 33.174-3.177 16.321-9.292 27.964-18.353 34.944-9.07 6.979-22.86 10.468-41.381 10.468h-27.944l17.154-88.25h31.473c17.456 0 29.083 3.223 34.897 9.664zm-393.424-9.664h-31.473l-17.155 88.25h27.942c18.516 0 32.312-3.49 41.38-10.468 9.064-6.98 15.177-18.624 18.354-34.944 3.04-15.67 1.66-26.732-4.154-33.174-5.812-6.44-17.44-9.664-34.894-9.664zM800 400c0 116.21-179.089 210.416-400 210.416S0 516.21 0 400c0-116.208 179.089-210.416 400-210.416S800 283.792 800 400zm-489.954 14.538c4.76-8.53 8.146-17.943 10.15-28.238 4.856-24.997 1.191-44.467-10.997-58.416-12.181-13.949-31.57-20.92-58.138-20.92h-88.334l-40.981 210.861h45.936l10.893-56.054h39.35c17.356 0 31.639-1.823 42.852-5.475 11.21-3.646 21.4-9.758 30.572-18.347 7.694-7.076 13.924-14.876 18.697-23.411zm161.678 47.233 19.07-98.133c3.882-19.956.97-34.397-8.723-43.31-9.7-8.904-27.317-13.364-52.866-13.364h-40.6l10.899-56.063H353.93l-40.99 210.868h45.574l23.477-120.806h36.426c11.66 0 19.283 1.929 22.864 5.79 3.58 3.861 4.34 11.1 2.278 21.712l-18.131 93.304h46.296zm196.004-133.885c-12.18-13.95-31.568-20.92-58.137-20.92h-88.335l-40.984 210.861h45.939l10.891-56.055h39.35c17.356 0 31.64-1.822 42.851-5.475 11.211-3.646 21.4-9.758 30.573-18.346 7.702-7.078 13.927-14.876 18.697-23.412 4.766-8.529 8.144-17.943 10.15-28.238 4.857-24.998 1.192-44.468-10.995-58.415z"/>
</svg>
