<svg xmlns="http://www.w3.org/2000/svg" xml:space="preserve" viewBox="0 0 800 800">
  <path d="M625.854 263.788c1.61-10.429 3.12-20.415 3.31-31.415-26.27-3.233-56.417-2.499-68.32 14.516-23.156 33.093 22.07 114.192 41.38 148.824 4.964 8.897 8.55 15.325 10.199 19.33a110.912 110.912 0 0 0 5.879 12.098c13.287-28.267 9.858-56.91 6.517-84.734-1.655-13.775-3.372-28.02-2.923-41.72.446-14.081 2.234-25.682 3.958-36.9zm-22.126-6.438c-2.134 2.248-6.643 6.148-12.794 7.001-.79.11-1.598.166-2.4.166-9.068 0-16.892-7.076-17.542-11.663-.745-5.535 8.285-9.744 17.605-11.042a43.93 43.93 0 0 1 6.011-.428c8.054 0 13.39 2.39 13.926 6.231.346 2.485-1.536 6.305-4.806 9.735zM511.216 51.992c16.596-3.438 39.29-6.646 64.701-6.088 64.384 1.424 115.305 25.51 151.363 71.585 27.66 35.34-2.79 196.15-90.957 334.878a387.386 387.386 0 0 0-2.671-3.366 334.247 334.247 0 0 0-1.118-1.4c22.784-37.624 18.325-74.844 14.361-107.848-1.63-13.545-3.164-26.339-2.773-38.353.406-12.743 2.09-23.663 3.72-34.228 2.001-13.014 4.04-26.481 3.474-42.356.423-1.664.594-3.63.371-5.968-1.432-15.23-18.818-60.789-54.248-102.034-19.375-22.555-47.638-47.795-86.223-64.822ZM267.44 456.707a109.678 109.678 0 0 0 7.896 7.45c-10.877 11.645-34.517 37.403-59.677 67.67-17.804 21.408-30.1 17.315-34.144 15.963-26.345-8.79-56.914-64.473-83.865-152.779-23.32-76.402-36.952-153.229-38.028-174.776-3.406-68.133 13.109-115.62 49.09-141.137 58.552-41.528 154.83-16.67 193.514-4.062-.558.546-1.135 1.06-1.683 1.615-63.481 64.113-61.975 173.65-61.817 180.342-.01 2.582.208 6.237.505 11.27 1.092 18.42 3.125 52.71-2.306 91.544-5.044 36.084 6.076 71.4 30.515 96.9zm354.764 13.866c-12.58 3.63-35.161 12.003-33.103 53.863-1.654 20.99-13.463 119.324-19.456 154.08-7.913 45.908-24.811 63.007-72.298 73.188-49.248 10.557-66.671-14.575-78.164-43.294-7.413-18.547-11.051-102.16-8.474-194.493a10.865 10.865 0 0 0-.48-3.524 45.937 45.937 0 0 0-1.377-6.528c-3.839-13.439-13.21-24.672-24.45-29.333-3.517-1.459-8.835-3.655-15.376-3.655a28.305 28.305 0 0 0-7.136.91c2.103-8.652 5.744-18.415 9.69-28.993l1.657-4.451c1.863-5.02 4.207-10.217 6.682-15.725 13.378-29.715 31.7-70.425 11.815-162.386-7.449-34.444-32.324-51.263-70.024-47.358-22.607 2.34-43.283 11.461-53.599 16.69a171.526 171.526 0 0 0-6.17 3.28c2.845-34.655 13.676-99.408 54.405-140.545 25.622-25.88 59.747-38.661 101.367-37.974 81.9 1.345 134.42 43.375 164.063 78.4 25.542 30.184 39.37 60.586 44.891 76.983-41.494-4.22-69.74 3.975-84.049 24.434-31.139 44.507 17.03 130.886 40.18 172.401 4.243 7.612 7.913 14.181 9.062 16.979 7.533 18.268 17.296 30.467 24.43 39.37 2.181 2.73 4.296 5.381 5.914 7.681zm-234.725 39.41c.91 3.189 1.938 9.238-1.42 13.937-16.92 23.693-40.213 35.71-69.229 35.71-9.542 0-19.673-1.328-30.121-3.942-6.112-1.528-11.609-4.18-14.837-6.377 2.694-1.27 7.49-2.993 15.806-4.704 40.25-8.293 46.464-14.139 60.037-31.372 3.114-3.952 6.645-8.43 11.534-13.893 3.691-4.13 6.982-6.226 9.778-6.226 1.962 0 4.174.845 6.862 1.957 4.891 2.033 9.658 8.16 11.59 14.91zm346.545-13.81c.169-.037.341-.077.504-.106-6.164 5.766-16.703 13.493-31.662 20.441-12.858 5.968-34.366 10.444-54.806 11.404-22.575 1.049-34.068-2.525-36.77-4.736-1.263-26.08 8.448-28.806 18.723-31.693 1.609-.454 3.189-.896 4.704-1.426a39.602 39.602 0 0 0 3.12 2.279c18.144 11.977 50.507 13.265 96.187 3.837zM350.74 435.021l1.652-4.42c2.124-5.727 4.615-11.253 7.253-17.113 12.78-28.4 28.69-63.748 10.355-148.558-3.546-16.382-12.068-25.9-26.054-29.105-30.646-7.021-73.624 16.005-82.897 24.227.086 1.857.226 4.212.382 6.895 1.14 19.19 3.258 54.915-2.478 95.939-4.096 29.295 4.85 57.882 24.542 78.424 15.49 16.164 35.854 25.107 56.79 25.17 2.408-9.876 6.288-20.269 10.455-31.46zm-28.853-171.316c-1.436-1.904-3.775-5.597-3.302-8.935.67-4.89 6.557-7.825 15.746-7.825 2.037 0 4.146.152 6.275.45 9.92 1.379 20.157 6.077 19.17 13.128-.742 5.342-9.2 13.264-19.36 13.264-.887 0-1.784-.063-2.658-.186-5.874-.811-11.81-4.512-15.871-9.896zM786.98 481.764c-3.308-15.005-16.897-32.528-44.304-32.528-5.5 0-11.46.676-18.225 2.078-12.995 2.677-24.588 4.344-34.553 4.964 34.9-59.84 62.982-127.211 79.269-190.26 15.073-58.359 26.477-136.314-4.781-176.26C718.433 31.038 651.233 0 570.045 0c-45.758 0-83.128 10.223-94.444 13.683-17.844-3.112-37.054-4.856-57.115-5.182a243.147 243.147 0 0 0-3.986-.031c-36.1 0-68.45 8.199-96.179 24.37-25.252-8.455-74.002-22.147-124.778-22.147-57.113 0-102.096 16.84-133.693 50.06C24.868 97.531 8.942 152.428 12.52 223.92c1.497 29.979 18.77 119.56 43.499 197.348 38.206 120.195 80.291 176.168 132.439 176.168 16.327 0 31.821-5.714 46.102-16.992 12.523 13.647 30.7 19.809 40.695 22.31 14.181 3.55 28.163 5.348 41.561 5.348 17.906 0 34.768-3.126 50.194-9.3.1 3.353.192 6.53.27 9.396.184 6.516.36 12.906.602 18.882 1.628 40.628 4.407 72.24 12.664 94.53.435 1.17 1.016 2.956 1.648 4.888 3.609 11.064 9.062 27.771 21.606 42.94C420.337 789.431 443.903 800 471.941 800c8.955 0 18.547-1.079 28.516-3.22 30.134-6.454 64.367-16.318 89.267-51.769 23.344-33.24 34.668-82.974 36.719-161.265l.903-7.704 4.344.355c2.753.125 5.6.182 8.467.182 29.232 0 61.625-6.27 82.54-15.981 17.377-8.072 73.388-37.6 64.283-78.834zm-74.742 54.912c-17.983 8.347-46.64 13.626-71.482 13.626-11.915 0-22.933-1.224-31.497-3.888-4.055 37.27-12.675 106.768-17.694 135.892-9.396 54.458-33.664 79.16-89.556 91.147-9.516 2.033-18.167 2.943-26.023 2.95-53.561.005-70.51-42.391-77.447-59.732-8.474-21.191-11.419-90.728-10.823-161.3-19.228 17.402-43.334 26.503-70.885 26.503-11.36 0-23.308-1.547-35.515-4.603-3.53-.885-34.497-9.195-34.084-28.993.375-18.116 26.228-23.447 35.96-25.454 34.214-7.048 36.424-9.85 47.054-23.346a345.57 345.57 0 0 1 7.755-9.58c-.035-.404-.08-.801-.104-1.205-15.342-.412-30.339-4.503-43.992-11.83-9.235 9.832-34.301 36.891-61.143 69.184-16.161 19.43-31.693 25.14-44.363 25.14-5.167.006-9.856-.946-13.923-2.306-34.727-11.579-67.735-67.895-98.098-167.374-23.07-75.58-37.686-154.5-38.968-180.159-3.816-76.253 15.862-130.225 58.483-160.423 76.311-54.065 199.62-12.548 226.52-2.469 26.521-18.082 58.54-26.95 95.663-26.367 20.227.332 38.798 2.934 55.836 7.17 8.095-3.552 49.853-16.184 99.222-15.64 71.854.763 131.214 28.481 171.659 80.162 27.292 34.88 9.283 119.79.264 154.676-18.741 72.565-53.484 150.334-95.718 214.682 6.39 4.698 25.86 12.465 80.185 1.25 18.298-3.777 29.313-.442 32.734 9.902 6.611 19.989-29.824 43.012-50.02 52.385z"/>
</svg>
