<svg xmlns="http://www.w3.org/2000/svg" xml:space="preserve" viewBox="0 0 800 800">
  <path d="M304.085 385.722H494.72c53.072 0 95.43-43.692 95.43-96.987V107c0-51.718-43.632-90.575-95.43-99.21C461.932 2.334 427.913-.148 395.29.006c-32.634.152-63.78 2.934-91.206 7.782C223.324 22.062 208.66 51.924 208.66 107v72.74h190.854v24.245H137.036c-55.474 0-104.046 33.339-119.23 96.764-17.522 72.697-18.308 118.058 0 193.97 13.567 56.498 45.963 96.763 101.433 96.763h65.623v-87.2c0-62.997 54.496-118.56 119.223-118.56zm-12.01-254.476c-19.782 0-35.815-16.211-35.815-36.26 0-20.116 16.033-36.477 35.815-36.477 19.717 0 35.81 16.361 35.81 36.477 0 20.05-16.092 36.26-35.81 36.26zM781.011 300.75c-13.716-55.217-39.897-96.764-95.437-96.764H613.95v84.75c0 65.71-55.706 121.006-119.23 121.006H304.085c-52.21 0-95.424 44.692-95.424 96.992v181.73c0 51.72 44.972 82.153 95.424 96.975 60.413 17.773 118.34 20.992 190.635 0 48.044-13.896 95.43-41.901 95.43-96.976v-72.737H399.515V591.48h286.06c55.469 0 76.145-38.693 95.436-96.762 19.917-59.783 19.067-117.278 0-193.969zM506.737 664.215c19.789 0 35.81 16.213 35.81 36.252 0 20.117-16.021 36.485-35.81 36.485-19.718 0-35.815-16.368-35.815-36.485 0-20.04 16.097-36.252 35.815-36.252z"/>
</svg>
