<svg xmlns="http://www.w3.org/2000/svg" viewBox="0 0 800 800">
  <path d="M534.937 8.996a400 400 0 1 1-400 400 400 400 0 0 1 400-400m-80 533.2a102 102 0 0 1 0 60c0 2 0 4-2.4 6.8s0 2.8-2.8 4.8a100 100 0 0 1-18.4 26.8c-23.2 25.6-56.4 35.2-69.6 27.2-13.2-8-6.8-44.8 19.6-73.2a276.4 276.4 0 0 1 70.4-50.4l3.2-2m330.8-360c-18-71.2-136-94.4-247.2-54.8a560 560 0 0 0-190 106.8c-61.2 57.6-71.2 107.6-67.2 128.4 13.6 73.6 115.2 122 156.8 157.6-12 6-101.6 51.2-123.2 97.6a64.8 64.8 0 0 0 20 89.2 126.4 126.4 0 0 0 136.4-55.2 137.6 137.6 0 0 0 13.6-122.8 173.6 173.6 0 0 1 61.2-3.2c70.4 8.4 84 52 80 70.4a46.4 46.4 0 0 1-22 31.6c-4.8 2.8-6.4 4-6 6.4.4 2.4 2.8 3.2 6.8 2.4a54.4 54.4 0 0 0 40-48.8c0-43.2-40-91.2-112.4-90a193.6 193.6 0 0 0-62.4 8.8l-3.2-3.6c-45.2-48-128.4-80-124.8-146.8 0-23.6 9.2-85.2 160-160 123.2-61.6 222-44.8 240-6.8 24.4 53.2-52.8 152.8-180.8 167.2a97.6 97.6 0 0 1-80-20.4c-6.8-6.8-7.6-8-10-6.8-2.4 1.2 0 9.2 0 13.2a80 80 0 0 0 46 36.4 247.2 247.2 0 0 0 150.4-14.8c75.2-30.4 136-115.2 118-184z" style="stroke-width:40" transform="translate(-134.938 -8.996)"/>
</svg>
