<svg xmlns="http://www.w3.org/2000/svg" viewBox="0 0 800 800">
  <path d="M799.33 400 400 .67.67 400 400 799.33ZM181.4 381.564l155.24-155.24c11.147-20 27.986-41.863 52.079-65.956a15.967 15.967 0 0 1 22.562 0c6.223 6.223 6.223 16.34 0 22.562-41.73 41.73-59.434 74.542-61.098 102.928-1.164 19.634 5.79 36.605 16.306 52.346 11.98 17.836 28.42 34.142 44.792 50.515 37.604 37.604 73.41 76.172 70.415 127.32-.499 8.519-2.096 17.47-4.958 26.888L609.915 409.75a20.46 20.46 0 0 1-2.43-9.75c0-11.514 9.352-20.865 20.866-20.865s20.865 9.351 20.865 20.865-9.351 20.865-20.865 20.865a20.46 20.46 0 0 1-9.75-2.43l-155.24 155.24c-11.148 20-27.987 41.864-52.08 65.957a15.967 15.967 0 0 1-22.562 0 15.967 15.967 0 0 1 0-22.562c41.73-41.73 59.434-74.542 61.098-102.928 1.164-19.634-5.79-36.605-16.306-52.346-11.98-17.836-28.42-34.142-44.792-50.515-37.604-37.604-73.41-76.172-70.415-127.32.499-8.519 2.096-17.47 4.958-26.888L190.085 390.25c1.564 2.895 2.43 6.223 2.43 9.75 0 11.514-9.352 20.865-20.866 20.865A20.88 20.88 0 0 1 150.784 400c0-11.514 9.351-20.865 20.865-20.865 3.528 0 6.855.865 9.75 2.43m-9.75 9.85a8.564 8.564 0 0 1 8.585 8.586 8.564 8.564 0 0 1-8.586 8.586 8.56 8.56 0 0 1-8.585-8.586 8.564 8.564 0 0 1 8.585-8.586m456.7 0a8.564 8.564 0 0 1 8.586 8.586 8.564 8.564 0 0 1-8.585 8.586 8.56 8.56 0 0 1-8.586-8.586 8.564 8.564 0 0 1 8.586-8.586" style="stroke-width:33.2776"/>
</svg>
